<svg width="127" height="129" viewBox="0 0 127 129" fill="none" xmlns="http://www.w3.org/2000/svg">
<g clip-path="url(#clip0_3_11466)">
<path d="M1.85025 92.3641C1.8294 92.3358 1.8146 92.3028 1.80706 92.2668C-1.00096 78.9226 -0.528859 64.9425 3.17062 51.8896C6.87011 38.8363 13.6512 27.2236 22.7564 18.3488C31.8617 9.47405 42.9323 3.68672 54.7314 1.63347C66.5306 -0.419779 78.5937 1.34191 89.5727 6.72169C89.5975 6.73384 89.6199 6.75147 89.6387 6.77359C89.6576 6.79571 89.673 6.8219 89.683 6.85068C89.693 6.87941 89.6977 6.9102 89.6977 6.94116C89.6971 6.97219 89.6918 7.0028 89.6812 7.03135C89.6706 7.05989 89.6553 7.08573 89.6364 7.10743C89.6169 7.1292 89.5945 7.1463 89.5691 7.15792C89.5444 7.16954 89.5178 7.17532 89.4907 7.17503C89.4636 7.17473 89.437 7.16836 89.4122 7.15621C66.9499 -3.83285 41.4613 0.645673 22.893 18.8441C4.43813 36.9315 -3.48859 65.0228 2.20614 92.1553C2.21699 92.2072 2.21239 92.2615 2.19308 92.3099C2.17377 92.3582 2.14088 92.3972 2.09974 92.4213C2.05859 92.4455 2.01159 92.4532 1.96632 92.4426C1.92104 92.432 1.88016 92.4042 1.85025 92.3641Z" fill="#F0F0F0"/>
<path d="M34.2465 122.971C34.2165 122.931 34.1992 122.88 34.1974 122.827C34.1956 122.774 34.2095 122.722 34.2368 122.679C34.2639 122.636 34.303 122.605 34.3475 122.59C34.392 122.576 34.4394 122.58 34.4819 122.6C56.8598 133.383 82.2258 128.845 100.681 110.757C119.424 92.3877 127.383 64.1498 121.453 37.0641C121.446 37.034 121.445 37.0028 121.449 36.9721C121.453 36.9414 121.462 36.9119 121.476 36.8853C121.49 36.8587 121.508 36.8355 121.529 36.817C121.551 36.7985 121.576 36.7851 121.602 36.7775C121.628 36.77 121.656 36.7684 121.682 36.7729C121.709 36.7775 121.734 36.788 121.758 36.8039C121.781 36.8198 121.801 36.8408 121.817 36.8657C121.833 36.8906 121.844 36.9189 121.851 36.949C124.729 50.1108 124.364 63.9345 120.797 76.8711C117.105 90.203 110.225 102.07 100.947 111.116C91.8877 120 80.8633 125.818 69.101 127.922C57.3387 130.027 45.2996 128.335 34.3232 123.036C34.2936 123.021 34.2673 123 34.2465 122.971Z" fill="#F0F0F0"/>
<path d="M29.5037 127.163C29.4861 127.139 29.4729 127.111 29.4646 127.082C29.4562 127.052 29.4531 127.022 29.4552 126.99C29.4574 126.96 29.4648 126.93 29.4771 126.902C29.4894 126.874 29.5063 126.849 29.5268 126.829L126.474 31.8128C126.515 31.7722 126.569 31.7522 126.623 31.7572C126.678 31.7622 126.728 31.7918 126.763 31.8394C126.799 31.8871 126.816 31.949 126.811 32.0114C126.807 32.0738 126.781 32.1317 126.74 32.1723L29.7929 127.189C29.7724 127.209 29.7487 127.225 29.723 127.234C29.6974 127.243 29.6703 127.247 29.6435 127.245C29.6166 127.242 29.5904 127.233 29.5664 127.22C29.5425 127.206 29.5211 127.186 29.5037 127.163Z" fill="#F0F0F0"/>
<path d="M0.0490185 99.1559C0.0315361 99.1323 0.0182687 99.1046 0.00997 99.0751C0.00167123 99.0456 -0.00149602 99.0144 0.000653127 98.9837C0.00280227 98.953 0.0102244 98.923 0.022494 98.8952C0.0347637 98.8675 0.0516414 98.8427 0.0721622 98.8227L97.0192 3.8061C97.0611 3.76557 97.1148 3.74562 97.169 3.75064C97.2233 3.75566 97.2734 3.78524 97.3088 3.83288C97.3436 3.88051 97.3613 3.94232 97.3572 4.0047C97.3525 4.06708 97.3271 4.12494 97.2858 4.16557L0.338319 99.1825C0.317807 99.2025 0.294051 99.2179 0.268409 99.2273C0.242767 99.2367 0.215741 99.2403 0.188875 99.2379C0.162009 99.2356 0.135832 99.2267 0.111834 99.2126C0.0878374 99.199 0.0664904 99.1795 0.0490185 99.1559Z" fill="#F0F0F0"/>
<path d="M29.5037 127.163C29.4861 127.139 29.4729 127.111 29.4646 127.082C29.4562 127.052 29.4531 127.022 29.4552 126.99C29.4574 126.96 29.4648 126.93 29.4771 126.902C29.4894 126.874 29.5063 126.849 29.5268 126.829L126.474 31.8128C126.515 31.7722 126.569 31.7522 126.623 31.7572C126.678 31.7622 126.728 31.7918 126.763 31.8394C126.799 31.8871 126.816 31.949 126.811 32.0114C126.807 32.0738 126.781 32.1317 126.74 32.1723L29.7929 127.189C29.7724 127.209 29.7487 127.225 29.723 127.234C29.6974 127.243 29.6703 127.247 29.6435 127.245C29.6166 127.242 29.5904 127.233 29.5664 127.22C29.5425 127.206 29.5211 127.186 29.5037 127.163Z" fill="#F0F0F0"/>
<path d="M105.678 19.9093H68.156V19.6833C68.156 19.5073 68.0952 19.3384 67.9867 19.2139C67.8788 19.0895 67.7319 19.0195 67.5791 19.0195H51.719C51.566 19.0195 51.4193 19.0895 51.3111 19.2139C51.2029 19.3384 51.1421 19.5073 51.1421 19.6833V19.9093H13.4658C12.7927 19.9093 12.1471 20.2169 11.6712 20.7646C11.1952 21.3122 10.9277 22.0549 10.9277 22.8294V81.9419C10.9277 82.7163 11.1952 83.4589 11.6712 84.0069C12.1471 84.5542 12.7927 84.8621 13.4658 84.8621H105.678C106.351 84.8621 106.996 84.5542 107.472 84.0069C107.948 83.4589 108.216 82.7163 108.216 81.9419V22.8294C108.216 22.0549 107.948 21.3122 107.472 20.7646C106.996 20.2169 106.351 19.9093 105.678 19.9093Z" fill="#A7D2D0"/>
<path d="M15.4855 26.124C15.4225 26.1241 15.3622 26.1529 15.3176 26.2042C15.2731 26.2554 15.2481 26.3249 15.248 26.3973V82.4668C15.2481 82.5394 15.2731 82.609 15.3176 82.6597C15.3622 82.711 15.4225 82.7399 15.4855 82.7399H103.66C103.723 82.7399 103.783 82.711 103.828 82.6597C103.873 82.609 103.898 82.5394 103.898 82.4668V26.3973C103.898 26.3249 103.873 26.2554 103.828 26.2042C103.783 26.1529 103.723 26.1241 103.66 26.124H15.4855Z" fill="#199886"/>
<path d="M59.4947 23.4683C60.0073 23.4683 60.4231 22.9903 60.4231 22.4006C60.4231 21.8109 60.0073 21.3329 59.4947 21.3329C58.9824 21.3329 58.5669 21.8109 58.5669 22.4006C58.5669 22.9903 58.9824 23.4683 59.4947 23.4683Z" fill="#199886"/>
<path d="M109.906 80.8778H101.075V79.8285C101.075 79.7713 101.019 79.7241 100.949 79.7241H97.9211C97.8515 79.7241 97.7954 79.7713 97.7954 79.8285V80.8778H95.9027V79.8285C95.9027 79.7713 95.8467 79.7241 95.7771 79.7241H92.7495C92.6793 79.7241 92.6233 79.7713 92.6233 79.8285V80.8778H90.7311V79.8285C90.7311 79.7713 90.6745 79.7241 90.6049 79.7241H87.5773C87.5071 79.7241 87.4511 79.7713 87.4511 79.8285V80.8778H85.5589V79.8285C85.5589 79.7713 85.5023 79.7241 85.4327 79.7241H82.4051C82.3355 79.7241 82.2789 79.7713 82.2789 79.8285V80.8778H80.3867V79.8285C80.3867 79.7713 80.3301 79.7241 80.2605 79.7241H77.2329C77.1633 79.7241 77.1067 79.7713 77.1067 79.8285V80.8778H75.2146V79.8285C75.2146 79.7713 75.1579 79.7241 75.0883 79.7241H72.0608C71.9912 79.7241 71.9345 79.7713 71.9345 79.8285V80.8778H70.0424V79.8285C70.0424 79.7713 69.9858 79.7241 69.9162 79.7241H46.1999C46.1303 79.7241 46.0738 79.7713 46.0738 79.8285V80.8778H44.1815V79.8285C44.1815 79.7713 44.1251 79.7241 44.0554 79.7241H41.0278C40.9581 79.7241 40.9016 79.7713 40.9016 79.8285V80.8778H39.0094V79.8285C39.0094 79.7713 38.9529 79.7241 38.8832 79.7241H35.8557C35.786 79.7241 35.7295 79.7713 35.7295 79.8285V80.8778H33.8372V79.8285C33.8372 79.7713 33.7808 79.7241 33.7111 79.7241H30.6835C30.6138 79.7241 30.5573 79.7713 30.5573 79.8285V80.8778H28.6651V79.8285C28.6651 79.7713 28.6087 79.7241 28.5389 79.7241H25.5114C25.4417 79.7241 25.3852 79.7713 25.3852 79.8285V80.8778H23.493V79.8285C23.493 79.7713 23.4365 79.7241 23.3668 79.7241H20.3392C20.2695 79.7241 20.2131 79.7713 20.2131 79.8285V80.8778H18.3208V79.8285C18.3208 79.7713 18.2644 79.7241 18.1947 79.7241H15.1671C15.0974 79.7241 15.0409 79.7713 15.0409 79.8285V80.8778H9.23802C7.56593 80.8778 6.21045 81.9991 6.21045 83.3816V84.5141C6.21045 85.8972 7.56593 87.0179 9.23802 87.0179H109.906C111.578 87.0179 112.933 85.8972 112.933 84.5141V83.3816C112.933 81.9991 111.578 80.8778 109.906 80.8778Z" fill="#A7D2D0"/>
<path d="M49.3068 49.7134H23.2443C23.1899 49.7134 23.1377 49.6885 23.0992 49.6443C23.0607 49.6 23.0391 49.54 23.0391 49.4773C23.0391 49.4147 23.0607 49.3546 23.0992 49.3104C23.1377 49.2661 23.1899 49.2412 23.2443 49.2412H49.3068C49.3612 49.2412 49.4134 49.2661 49.4519 49.3104C49.4904 49.3546 49.512 49.4147 49.512 49.4773C49.512 49.54 49.4904 49.6 49.4519 49.6443C49.4134 49.6885 49.3612 49.7134 49.3068 49.7134Z" fill="#F2F2F2"/>
<path d="M49.3068 55.4976H23.2443C23.1899 55.4976 23.1377 55.4417 23.0992 55.3421C23.0607 55.2425 23.0391 55.1074 23.0391 54.9666C23.0391 54.8258 23.0607 54.6907 23.0992 54.5911C23.1377 54.4915 23.1899 54.4355 23.2443 54.4355H49.3068C49.3612 54.4355 49.4134 54.4915 49.4519 54.5911C49.4904 54.6907 49.512 54.8258 49.512 54.9666C49.512 55.1074 49.4904 55.2425 49.4519 55.3421C49.4134 55.4417 49.3612 55.4976 49.3068 55.4976Z" fill="#F2F2F2"/>
<path d="M49.3059 60.6917H23.2434C23.2164 60.6923 23.1897 60.6787 23.1647 60.6522C23.1398 60.625 23.117 60.5861 23.0979 60.5372C23.0788 60.4876 23.0636 60.4292 23.0533 60.3643C23.0429 60.3 23.0376 60.231 23.0376 60.1608C23.0376 60.0912 23.0429 60.0216 23.0533 59.9574C23.0636 59.8925 23.0788 59.8341 23.0979 59.7845C23.117 59.7355 23.1398 59.6964 23.1647 59.6698C23.1897 59.6432 23.2164 59.6296 23.2434 59.6299H49.3059C49.3329 59.6296 49.3597 59.6432 49.3846 59.6698C49.4096 59.6964 49.4323 59.7355 49.4514 59.7845C49.4705 59.8341 49.4857 59.8925 49.4961 59.9574C49.5064 60.0216 49.5117 60.0912 49.5117 60.1608C49.5117 60.231 49.5064 60.3 49.4961 60.3643C49.4857 60.4292 49.4705 60.4876 49.4514 60.5372C49.4323 60.5861 49.4096 60.625 49.3846 60.6522C49.3597 60.6787 49.3329 60.6923 49.3059 60.6917Z" fill="#F2F2F2"/>
<path d="M93.5303 36.1372H61.3111C60.9714 36.1372 60.6953 36.4594 60.6953 36.8568V73.0762C60.6953 73.4738 60.9714 73.7958 61.3111 73.7958H93.5303C93.8701 73.7958 94.1455 73.4738 94.1455 73.0762V36.8568C94.1455 36.4594 93.8701 36.1372 93.5303 36.1372Z" fill="white"/>
<path d="M67.3946 56.0908C67.5049 53.7615 68.3047 51.5547 69.6513 49.8638C70.9985 48.1729 72.8045 47.1079 74.7474 46.8586C76.6909 46.6094 78.6456 47.192 80.2623 48.5028C81.879 49.8135 83.0533 51.7671 83.5759 54.0153C83.6762 54.011 83.7759 54.0062 83.8767 54.0062C84.2206 54.0101 84.5615 54.0794 84.8871 54.2114C88.9893 55.8194 87.9094 63.1307 83.5913 63.1307H72.9797C72.2289 63.133 71.4857 62.9549 70.7944 62.6063C70.1031 62.2577 69.4773 61.7463 68.9553 61.1028C68.4333 60.4593 68.0258 59.6963 67.7562 58.86C67.4872 58.0238 67.3622 57.1313 67.3887 56.236C67.3905 56.1877 67.3923 56.1393 67.3946 56.0908Z" fill="#199886"/>
<path d="M77.0662 55.8742V51.7236H75.2489V55.8742H73.7974L74.9776 58.3874L76.1573 60.9005L77.3375 58.3874L78.5177 55.8742H77.0662Z" fill="white"/>
</g>
<defs>
<clipPath id="clip0_3_11466">
<rect width="126.812" height="127.992" fill="white" transform="translate(0 0.800781)"/>
</clipPath>
</defs>
</svg>
