<svg width="208" height="137" viewBox="0 0 208 137" fill="none" xmlns="http://www.w3.org/2000/svg">
<g filter="url(#filter0_d_3_11600)">
<g clip-path="url(#clip0_3_11600)">
<path d="M202.131 0.800171H4.65625V127.494H202.131V0.800171Z" fill="#9CDCD5"/>
<path d="M7.84463 5.33436C8.63202 5.33436 9.27032 4.65986 9.27032 3.82782C9.27032 2.99579 8.63202 2.32129 7.84463 2.32129C7.05725 2.32129 6.41895 2.99579 6.41895 3.82782C6.41895 4.65986 7.05725 5.33436 7.84463 5.33436Z" fill="#199886"/>
<path d="M11.4877 5.33436C12.2751 5.33436 12.9134 4.65986 12.9134 3.82782C12.9134 2.99579 12.2751 2.32129 11.4877 2.32129C10.7003 2.32129 10.062 2.99579 10.062 3.82782C10.062 4.65986 10.7003 5.33436 11.4877 5.33436Z" fill="#199886"/>
<path d="M15.1308 5.33436C15.9181 5.33436 16.5564 4.65986 16.5564 3.82782C16.5564 2.99579 15.9181 2.32129 15.1308 2.32129C14.3434 2.32129 13.7051 2.99579 13.7051 3.82782C13.7051 4.65986 14.3434 5.33436 15.1308 5.33436Z" fill="#199886"/>
<path d="M41.5718 47.8446C50.8227 47.8446 58.3219 39.9201 58.3219 30.1448C58.3219 20.3694 50.8227 12.4448 41.5718 12.4448C32.321 12.4448 24.8218 20.3694 24.8218 30.1448C24.8218 39.9201 32.321 47.8446 41.5718 47.8446Z" fill="#F2F2F2"/>
<path d="M76.7252 55.2974H6.41895V57.8592H76.7252V55.2974Z" fill="#199886"/>
<path d="M76.7252 79.7512H6.41895V82.313H76.7252V79.7512Z" fill="#F2F2F2"/>
<path d="M76.7252 86.9707H6.41895V89.5326H76.7252V86.9707Z" fill="#F2F2F2"/>
<path d="M76.7252 94.1907H6.41895V96.7525H76.7252V94.1907Z" fill="#F2F2F2"/>
<path d="M76.7252 101.41H6.41895V103.972H76.7252V101.41Z" fill="#F2F2F2"/>
<path d="M76.7252 108.63H6.41895V111.192H76.7252V108.63Z" fill="#F2F2F2"/>
<path d="M76.7252 115.85H6.41895V118.412H76.7252V115.85Z" fill="#F2F2F2"/>
<path d="M200.149 12.212H87.9668V12.6778H200.149V12.212Z" fill="#199886"/>
<path d="M200.149 16.8699H87.9668V17.3356H200.149V16.8699Z" fill="#199886"/>
<path d="M200.149 21.5276H87.9668V21.9934H200.149V21.5276Z" fill="#199886"/>
<path d="M200.149 26.1855H87.9668V26.6513H200.149V26.1855Z" fill="#199886"/>
<path d="M200.149 30.8434H87.9668V31.3092H200.149V30.8434Z" fill="#199886"/>
<path d="M200.149 35.5013H87.9668V35.9672H200.149V35.5013Z" fill="#199886"/>
<path d="M200.149 40.1592H87.9668V40.6249H200.149V40.1592Z" fill="#199886"/>
<path d="M200.149 44.817H87.9668V45.2829H200.149V44.817Z" fill="#199886"/>
<path d="M200.149 49.475H87.9668V49.9408H200.149V49.475Z" fill="#199886"/>
<path d="M200.149 54.1327H87.9668V54.5985H200.149V54.1327Z" fill="#199886"/>
<path d="M200.149 58.7906H87.9668V59.2565H200.149V58.7906Z" fill="#199886"/>
<path d="M97.4421 52.2697H89.9487V54.1329H97.4421V52.2697Z" fill="#199886"/>
<path d="M109.564 47.8446H102.07V49.7078H109.564V47.8446Z" fill="#199886"/>
<path d="M121.685 38.5291H114.192V40.3922H121.685V38.5291Z" fill="#199886"/>
<path d="M133.807 42.954H126.314V44.8171H133.807V42.954Z" fill="#199886"/>
<path d="M145.929 33.8711H138.436V35.7342H145.929V33.8711Z" fill="#199886"/>
<path d="M158.051 42.954H150.558V44.8171H158.051V42.954Z" fill="#199886"/>
<path d="M170.173 29.2133H162.679V31.0764H170.173V29.2133Z" fill="#199886"/>
<path d="M182.295 20.1304H174.801V21.9935H182.295V20.1304Z" fill="#199886"/>
<path d="M194.416 24.7881H186.923V26.6513H194.416V24.7881Z" fill="#199886"/>
<path opacity="0.1" d="M186.923 26.1855V44.9333H182.295V21.0619H174.801V44.9333H170.173V30.1446H162.679V44.9333H145.929V34.8026H138.436V44.9333H126.204V49.4749H121.685V39.4604H114.192V49.4749H102.07V54.1327H89.9487V59.2566H102.07H133.807H138.436H145.929H186.923H194.416V54.1327V26.1855H186.923Z" fill="#199886"/>
<path d="M118.885 76.2633C118.852 75.986 118.785 75.7142 118.685 75.455C118.672 75.406 118.65 75.3604 118.62 75.3209C118.59 75.2815 118.552 75.2492 118.509 75.226C118.452 75.2103 118.392 75.2096 118.334 75.2239L117.438 75.3689C117.363 75.3725 117.291 75.402 117.233 75.4529C117.116 75.5826 117.231 75.7917 117.228 75.9708C117.217 76.071 117.176 76.1653 117.112 76.2403C117.048 76.3154 116.964 76.3675 116.871 76.3895C116.683 76.4297 116.49 76.4271 116.304 76.3822L115.05 76.1762C115.419 76.0517 115.748 75.82 115.998 75.5073C116.163 75.3008 116.251 74.9152 116.013 74.8173C115.942 74.7968 115.868 74.7905 115.795 74.7988C115.227 74.8035 114.78 74.3023 114.248 74.0913C113.907 73.9649 113.538 73.9554 113.192 74.0643C112.847 74.1732 112.542 74.395 112.323 74.6976L112.991 74.7316C113.054 74.728 113.116 74.7455 113.169 74.7818C113.315 74.9089 113.133 75.1531 113.154 75.352C113.181 75.6106 113.505 75.6658 113.75 75.692C113.995 75.7181 114.306 75.9284 114.188 76.1567C112.957 76.6047 111.705 75.2809 110.412 75.4438C110.088 75.5096 109.769 75.5973 109.456 75.7064C107.505 76.2281 105.488 74.8361 103.494 75.1309C103.051 75.2107 102.616 75.3321 102.193 75.4936C101.914 75.5646 101.656 75.7069 101.441 75.9078C101.337 76.0114 101.272 76.1509 101.256 76.3011C101.24 76.4514 101.276 76.6026 101.356 76.7276C100.841 76.7724 100.323 76.7205 99.8256 76.5739C99.9602 76.653 100.072 76.7688 100.15 76.9094C100.227 77.0499 100.267 77.2098 100.266 77.3724C99.4627 77.5109 98.6804 77.7631 97.9403 78.122C98.0784 78.3646 98.2397 78.5918 98.4217 78.7997L97.4043 79.4904C97.4871 79.5187 97.563 79.5663 97.626 79.6298C97.6892 79.6931 97.738 79.7708 97.7689 79.8568C97.7997 79.9429 97.8119 80.0352 97.8044 80.1269C97.7969 80.2185 97.7701 80.3073 97.7258 80.3865C98.0823 80.2191 98.303 79.7856 98.6842 79.6978C98.9399 79.6692 99.1978 79.7222 99.4249 79.8495C99.6524 79.9768 99.9138 80.0203 100.167 79.9731C100.413 79.8969 100.593 79.561 100.438 79.347C101.486 79.0238 102.569 78.845 103.66 78.8149C103.744 78.8037 103.83 78.8209 103.904 78.8638C104.046 78.9679 104.009 79.193 104.001 79.3755C103.994 79.558 104.128 79.798 104.283 79.7158C104.101 79.8821 104.256 80.1955 104.431 80.3705C104.605 80.5456 104.815 80.787 104.708 81.0148C104.68 81.0742 104.633 81.1217 104.606 81.1817C104.527 81.3587 104.653 81.565 104.801 81.6826C104.963 81.777 105.109 81.8995 105.233 82.045C105.336 82.2078 105.29 82.4927 105.106 82.5153L104.583 81.8138C104.404 82.0095 104.282 82.2548 104.23 82.5212C104.498 82.7721 104.666 83.1224 104.698 83.4998C104.731 83.8774 104.625 84.2537 104.403 84.5515C104.14 84.8202 103.848 85.056 103.534 85.2547C103.378 85.3555 103.245 85.4931 103.147 85.6566C103.049 85.8202 102.987 86.0056 102.968 86.1982C102.969 86.8665 102.918 87.4872 103.155 88.1068C103.591 89.249 104.096 90.3612 104.665 91.4366C104.814 91.719 105.008 92.0285 105.31 92.0771C104.928 91.093 104.583 90.0936 104.277 89.0789C104.376 89.0638 104.476 89.073 104.571 89.1057C104.666 89.1383 104.752 89.1935 104.824 89.2671C104.894 89.4254 104.93 89.5978 104.93 89.7723C104.968 89.9386 105.032 90.0971 105.119 90.2415L106.946 93.6801C107.067 93.9835 107.284 94.2333 107.56 94.3865C107.754 94.4247 107.945 94.4803 108.13 94.5527C108.263 94.6359 108.353 94.7838 108.489 94.8623C108.874 95.084 109.409 94.6586 109.769 94.9235C109.861 95.0128 109.949 95.1072 110.032 95.2063C110.364 95.5101 110.909 95.3068 111.292 95.5336C111.521 95.712 111.697 95.956 111.799 96.2368C112.129 96.9002 112.663 97.5502 113.371 97.603C113.593 97.5931 113.816 97.6012 114.038 97.6272C114.255 97.6795 114.469 97.8799 114.434 98.1124C114.374 98.511 114.56 98.9475 114.51 99.3478C114.419 100.077 113.441 100.397 113.357 101.127C113.357 101.288 113.348 101.448 113.331 101.608C113.287 101.8 113.151 101.956 113.102 102.146C113.011 102.508 113.255 102.867 113.524 103.11C113.793 103.353 114.114 103.562 114.261 103.902C114.417 104.262 114.34 104.681 114.391 105.073C114.501 105.927 115.2 106.561 115.919 106.97C116.149 107.072 116.353 107.23 116.515 107.431C116.7 107.713 116.682 108.084 116.744 108.421C116.895 109.246 117.552 109.926 117.571 110.766C117.584 111.363 117.27 111.904 117.082 112.468C116.906 113.008 116.843 113.581 116.896 114.149C116.949 114.717 117.117 115.267 117.389 115.76C117.544 116 117.681 116.254 117.797 116.518C117.974 117.002 117.916 117.553 118.08 118.043C118.296 118.691 118.889 119.226 118.832 119.91C119.102 120.501 119.697 120.791 120.295 120.967L121.367 121.283C121.568 121.36 121.784 121.387 121.996 121.36C122.102 121.344 122.199 121.291 122.272 121.209C122.346 121.127 122.39 121.021 122.399 120.908C121.865 120.821 121.354 120.617 120.897 120.311C120.464 119.972 120.167 119.37 120.331 118.827C120.408 118.576 120.57 118.285 120.416 118.077C120.327 117.958 120.166 117.927 120.066 117.819C120.003 117.722 119.969 117.606 119.971 117.488C119.973 117.37 120.01 117.256 120.076 117.161C120.212 116.974 120.32 116.765 120.394 116.543C120.417 116.414 120.402 116.28 120.351 116.16C120.299 116.041 120.215 115.94 120.108 115.872C120.307 115.793 120.488 115.671 120.639 115.513C120.713 115.432 120.762 115.329 120.779 115.219C120.795 115.108 120.78 114.994 120.733 114.893C121.059 114.937 121.444 114.958 121.658 114.695C121.732 114.58 121.779 114.448 121.795 114.31C121.811 114.172 121.795 114.032 121.75 113.902C121.657 113.642 121.595 113.372 121.565 113.096C122.317 113.134 123.07 113.107 123.818 113.015C123.71 112.63 123.464 112.305 123.133 112.108C123.472 112.048 123.781 111.619 123.888 111.274C123.979 110.922 123.983 110.552 123.901 110.197C123.876 110.106 123.872 110.009 123.891 109.915C123.945 109.792 124.041 109.694 124.159 109.641L125.84 108.621C125.941 108.568 126.032 108.497 126.109 108.411C126.185 108.291 126.23 108.153 126.24 108.01C126.251 107.866 126.226 107.722 126.169 107.591C126.053 107.332 125.963 107.06 125.9 106.781C125.796 105.929 126.659 105.318 126.95 104.516C127.049 104.196 127.103 103.861 127.11 103.523C127.133 103.162 127.135 102.743 126.873 102.51C126.621 102.287 126.228 102.337 125.965 102.129C125.724 101.939 125.64 101.57 125.377 101.416C125.137 101.276 124.837 101.365 124.571 101.3C124.102 101.184 123.807 100.613 123.328 100.56C123.058 100.53 122.753 100.67 122.531 100.504C122.336 100.357 122.328 100.063 122.291 99.8128C122.226 99.4246 122.05 99.0667 121.786 98.7874C121.523 98.5082 121.185 98.3209 120.818 98.2509C120.539 98.2037 120.236 98.2216 119.999 98.0599C119.759 97.8961 119.649 97.5895 119.461 97.3627C119.157 96.9971 118.678 96.8673 118.23 96.7559L116.407 96.303C116.084 96.2228 115.667 96.1801 115.493 96.4795C115.442 96.5937 115.405 96.7146 115.385 96.839C115.32 97.0642 115.189 97.2618 115.011 97.4034C114.833 97.545 114.617 97.6232 114.394 97.6271C114.241 97.3516 113.994 97.1492 113.703 97.0622C113.514 97.0285 113.328 96.9815 113.144 96.9215C113.048 96.8721 112.963 96.8023 112.893 96.7167C112.824 96.6311 112.771 96.5314 112.739 96.4237C112.707 96.316 112.697 96.2024 112.708 96.0901C112.719 95.9778 112.751 95.869 112.804 95.7706C112.909 95.5729 112.949 95.3441 112.919 95.1196C112.889 94.8951 112.79 94.6872 112.637 94.5283C112.472 94.3935 112.283 94.2945 112.081 94.2369C111.88 94.1791 111.67 94.1642 111.463 94.1926C111.354 93.9415 111.536 93.6584 111.732 93.476C111.928 93.2936 112.166 93.1141 112.209 92.8417C112.276 92.4132 111.759 92.0878 111.366 92.2156C110.973 92.3434 110.722 92.7465 110.557 93.144C110.477 93.3789 110.367 93.601 110.231 93.8045C110.161 93.9054 110.066 93.9838 109.956 94.0311C109.847 94.0785 109.727 94.0929 109.611 94.0727C109.287 93.9854 109.162 93.5793 109.091 93.2346C108.976 92.7767 108.918 92.3047 108.918 91.8307C108.921 91.3518 109.101 90.893 109.419 90.5523C109.957 90.0305 110.782 90.0817 111.507 90.1649C111.429 90.0557 111.392 89.9203 111.402 89.7839C111.412 89.6475 111.469 89.5198 111.562 89.4247C111.658 89.3338 111.775 89.2691 111.901 89.2365C112.026 89.2038 112.158 89.2041 112.284 89.2373C112.502 89.2854 112.699 89.4098 112.843 89.5906C113.049 89.8563 113.108 90.2149 113.264 90.5165C113.419 90.8181 113.77 91.0753 114.057 90.9136C114.305 90.7738 114.344 90.4108 114.282 90.1212C114.185 89.8428 114.128 89.5506 114.112 89.2542C114.155 88.6897 114.708 88.3498 115.197 88.1175C115.686 87.8849 116.245 87.5721 116.323 87.0118C116.325 86.9021 116.345 86.7935 116.381 86.6906C116.435 86.5995 116.51 86.5246 116.6 86.4731C118.026 85.4771 119.476 84.469 121.106 83.9247C121.191 83.8963 121.201 83.9278 121.287 83.9057C121.408 83.8318 121.328 83.6274 121.212 83.5452C121.096 83.4628 120.941 83.3997 120.911 83.2553C120.89 83.1492 120.949 83.045 120.964 82.9377C120.968 82.8729 120.957 82.8081 120.932 82.7489C120.907 82.6899 120.868 82.6381 120.819 82.5984C120.771 82.5588 120.713 82.5324 120.653 82.5215C120.592 82.5105 120.53 82.5156 120.472 82.536C120.341 82.3528 120.6 82.1399 120.809 82.0788C121.439 81.8959 122.084 81.7844 122.736 81.7463C122.811 81.7337 122.888 81.7475 122.955 81.7856C123.003 81.8346 123.031 81.9008 123.035 81.971C123.038 82.0412 123.016 82.1102 122.973 82.1639C122.883 82.2678 122.785 82.3624 122.678 82.4467C122.573 82.5553 122.497 82.6927 122.46 82.8435C122.424 82.9943 122.427 83.1529 122.469 83.302C122.81 83.4848 123.179 83.673 123.556 83.6086C123.933 83.5442 124.267 83.0969 124.09 82.7397C123.925 82.4071 123.43 82.3322 123.345 81.9675C123.245 81.5407 123.817 81.1611 123.688 80.743C123.631 80.56 123.459 80.4521 123.326 80.32C123.17 80.1579 123.063 79.9495 123.021 79.7223C122.978 79.4951 123.002 79.2598 123.089 79.047C122.873 79.0871 122.651 79.0719 122.442 79.0027C122.233 78.9335 122.042 78.8125 121.886 78.6494C121.599 78.3428 121.369 77.8591 120.961 77.8728C120.587 77.8855 120.264 78.3473 119.913 78.2064C119.827 78.1717 119.736 78.1012 119.653 78.1425C119.626 78.1613 119.602 78.1864 119.586 78.216C119.569 78.2454 119.559 78.2786 119.556 78.313C119.467 78.7629 119.62 79.2754 119.388 79.664C119.135 80.0869 118.551 80.1456 118.245 80.5271C118.079 80.7341 118.015 81.013 117.862 81.2314C117.709 81.4497 117.385 81.5885 117.202 81.3982C117.292 81.2025 117.317 80.9804 117.272 80.768C117.227 80.5557 117.115 80.3657 116.955 80.2292C116.785 80.1119 116.601 80.0176 116.409 79.9485C116.194 79.8524 115.989 79.732 115.799 79.5894C115.704 79.5286 115.626 79.4408 115.575 79.3362C115.535 79.2051 115.54 79.0631 115.59 78.9358C115.683 78.6543 115.847 78.4049 116.065 78.2146C116.282 78.0244 116.544 77.9004 116.823 77.8561C117.067 77.8211 117.351 77.8335 117.513 77.6369C117.598 77.5331 117.643 77.3759 117.767 77.3336C117.846 77.3168 117.929 77.3275 118.002 77.3641L118.913 77.7029C119.014 77.7515 119.126 77.7709 119.237 77.7597C119.292 77.7519 119.342 77.7223 119.377 77.6769C119.413 77.6317 119.43 77.574 119.427 77.5153C119.398 77.3556 119.165 77.2788 119.186 77.1176C119.198 77.0654 119.225 77.0182 119.263 76.9823C119.591 76.6126 119.993 76.3243 120.44 76.1379C120.886 75.9517 121.366 75.872 121.845 75.9046C121.96 76.1041 121.778 76.3403 121.627 76.5106C121.476 76.681 121.354 76.9852 121.537 77.1164C121.612 77.1568 121.696 77.1767 121.78 77.174C122.004 77.2062 122.222 77.276 122.425 77.3809C122.74 77.5256 123.049 77.684 123.351 77.856C123.308 77.6473 123.316 77.4303 123.375 77.2259C123.407 77.1252 123.475 77.0412 123.563 76.9903C123.652 76.9394 123.755 76.9254 123.853 76.9508C124.034 77.0248 124.127 77.278 124.32 77.3012C124.577 77.3321 124.678 76.9307 124.571 76.6818C124.463 76.433 124.251 76.2246 124.233 75.9518C124.221 75.7677 124.287 75.5394 124.148 75.428C124.098 75.3945 124.042 75.3737 123.984 75.3672L120.509 74.6915C120.303 74.6514 120.005 74.6822 119.996 74.9036C119.991 75.0272 120.095 75.1496 120.049 75.2632C120 75.3845 119.837 75.3735 119.719 75.4164C119.631 75.4593 119.558 75.5312 119.512 75.6214C119.465 75.7117 119.448 75.8154 119.461 75.9172C119.494 76.1198 119.568 76.3126 119.679 76.4814C119.453 76.3815 119.111 76.3631 118.885 76.2633Z" fill="#F2F2F2"/>
<path d="M116.112 73.1469C115.893 73.0703 115.657 73.0667 115.436 73.1367C115.215 73.2067 115.02 73.3468 114.876 73.538C114.843 73.5733 114.82 73.6181 114.809 73.6669C114.799 73.7157 114.803 73.7666 114.819 73.8136C114.888 73.937 115.063 73.8882 115.192 73.8441C115.381 73.7725 115.588 73.7673 115.78 73.8292C115.901 73.8732 116.01 73.9509 116.131 73.9931C116.19 74.0193 116.255 74.0279 116.319 74.0181C116.382 74.0083 116.442 73.9805 116.492 73.9374C116.563 73.8353 116.595 73.7078 116.581 73.5816C116.587 73.5394 116.583 73.4964 116.571 73.4557C116.559 73.415 116.539 73.3776 116.512 73.3464C116.463 73.3165 116.408 73.2994 116.352 73.2964C116.226 73.2718 116.112 73.2016 116.03 73.0977" fill="#F2F2F2"/>
<path d="M117.366 72.7783C117.317 72.7754 117.268 72.786 117.224 72.809C117.18 72.8318 117.143 72.8663 117.115 72.9091C117.087 72.9519 117.07 73.0015 117.066 73.0532C117.061 73.1048 117.069 73.1568 117.09 73.2042C117.24 73.2476 117.397 73.2584 117.552 73.236C117.629 73.2235 117.701 73.187 117.759 73.1312C117.816 73.0755 117.857 73.003 117.875 72.9228C117.693 72.9579 117.505 72.9199 117.348 72.8166" fill="#F2F2F2"/>
<path d="M121.568 72.1626C121.158 72.2547 120.76 72.3977 120.382 72.5883C120.56 72.6607 120.712 72.7918 120.814 72.962C120.917 73.1323 120.965 73.3329 120.951 73.5341C120.935 73.6115 120.937 73.6916 120.956 73.768C121 73.8796 121.126 73.9214 121.237 73.9501C121.437 74.0142 121.645 74.0422 121.853 74.0332C121.957 74.0274 122.058 73.9942 122.147 73.9368C122.236 73.8793 122.31 73.7993 122.363 73.704C122.393 73.6136 122.428 73.5252 122.469 73.4392C122.735 73.0112 123.525 73.5288 123.81 73.1151C123.911 72.9694 123.902 72.7499 124.033 72.6344C124.101 72.584 124.18 72.5524 124.262 72.5422C124.836 72.4215 125.416 72.3343 126 72.2806C126.276 72.2553 126.636 72.1503 126.639 71.8572C125.597 71.6412 124.518 71.7946 123.568 72.2937C123.226 72.4748 122.773 72.8559 122.443 72.6158C122.32 72.5258 122.326 72.2837 122.156 72.1826C121.968 72.1035 121.76 72.0966 121.568 72.1626Z" fill="#F2F2F2"/>
<path d="M124.973 72.8353L125.462 72.9346C125.372 72.9304 125.282 72.9465 125.199 72.9818C125.115 73.0171 125.04 73.071 124.977 73.1397C124.915 73.2082 124.867 73.2901 124.837 73.3798C124.807 73.4695 124.795 73.565 124.803 73.6598C125.261 73.8214 125.76 73.6642 126.242 73.6856C126.724 73.7071 127.285 74.071 127.202 74.5733C127.177 74.7253 127.094 74.8771 127.138 75.0244C127.184 75.1202 127.24 75.2112 127.303 75.2958C127.342 75.4009 127.352 75.5153 127.333 75.6263C127.314 75.7374 127.267 75.8406 127.195 75.9246C127.067 76.1046 126.895 76.2483 126.783 76.4396C126.504 76.9156 126.662 77.5309 126.829 78.0626C126.877 78.2634 126.966 78.451 127.089 78.6121C127.335 78.889 127.737 78.913 128.097 78.9186C128.359 78.9226 128.659 78.909 128.824 78.6946C129.041 78.4147 128.889 77.978 129.032 77.6496C129.161 77.3512 129.49 77.2232 129.789 77.1325C130.341 76.9895 130.883 76.8027 131.409 76.5736C132.051 76.2618 132.65 75.7757 133.356 75.7355C133.554 75.7441 133.752 75.7294 133.947 75.6917C134.044 75.6702 134.132 75.6154 134.197 75.5358C134.261 75.4561 134.299 75.3561 134.304 75.2513C134.292 75.0729 134.149 74.9419 134.037 74.8073C133.926 74.6728 133.838 74.466 133.941 74.3237L135.79 73.9588C135.658 73.5814 135.556 73.0843 135.858 72.8388C135.966 72.7501 136.112 72.7146 136.204 72.6076C136.271 72.506 136.297 72.3809 136.278 72.2591C136.259 72.1371 136.195 72.028 136.101 71.9549C135.905 71.8167 135.675 71.7429 135.439 71.7432C134.627 71.6918 133.812 71.6994 133.001 71.7661L128.238 72.042C127.908 72.0277 127.577 72.0632 127.257 72.1475C127.03 72.2819 126.793 72.3954 126.548 72.4869C126.024 72.603 125.447 72.5245 124.973 72.8353Z" fill="#F2F2F2"/>
<path d="M133.729 76.9172C133.679 76.909 133.628 76.9211 133.587 76.9514C133.56 76.9832 133.543 77.0242 133.541 77.0672C133.509 77.2574 133.547 77.4531 133.646 77.6151C133.696 77.6947 133.766 77.7584 133.848 77.7999C133.93 77.8412 134.02 77.8588 134.111 77.8505C134.331 77.8209 134.493 77.6225 134.695 77.5257C135.007 77.3767 136.331 77.1443 135.415 76.6214C135.099 76.4411 134.895 76.6003 134.647 76.719C134.364 76.8719 134.046 76.9406 133.729 76.9172Z" fill="#F2F2F2"/>
<path d="M141.752 72.5403C141.645 72.5864 141.556 72.6688 141.498 72.7744C141.47 72.828 141.465 72.8904 141.481 72.9486C141.496 73.0069 141.532 73.0568 141.581 73.0876C141.621 73.1029 141.664 73.11 141.706 73.1085L142.141 73.1222C142.326 73.1281 142.557 73.1697 142.606 73.3578C142.644 73.4975 142.561 73.677 142.66 73.7769C142.704 73.8118 142.754 73.833 142.808 73.8378C142.952 73.8767 143.101 73.8818 143.246 73.8527C143.562 73.763 143.397 73.559 143.496 73.3773C143.649 73.0992 143.622 73.2675 143.892 73.1082C144.089 72.9905 144.346 72.777 144.181 72.4771C143.892 71.9555 142.177 72.3161 141.752 72.5403Z" fill="#F2F2F2"/>
<path d="M150.334 72.2781L150.082 72.3137C149.51 72.377 148.945 72.4914 148.392 72.6556C148.629 72.7548 148.878 72.8195 149.132 72.8476C149.272 72.855 149.41 72.8758 149.546 72.91C149.789 72.9862 150.033 73.1829 150.266 73.0821C150.411 73.0196 150.459 72.86 150.579 72.7754C150.662 72.717 150.977 72.6224 151.013 72.5634C151.297 72.0866 150.553 72.2473 150.334 72.2781Z" fill="#F2F2F2"/>
<path d="M151.442 73.4908C151.104 73.6901 150.792 73.9323 150.51 74.212C150.444 74.2629 150.39 74.3282 150.351 74.4036C150.311 74.4788 150.287 74.5622 150.282 74.6481C150.295 74.8763 150.526 75.0087 150.724 75.0978L151.532 75.459C151.63 75.3131 151.54 75.1118 151.439 74.9685C151.338 74.8251 151.218 74.6593 151.263 74.4868C151.314 74.29 151.54 74.2229 151.731 74.189C152.042 74.1337 152.879 74.1382 152.778 73.6097C152.659 72.987 151.754 73.3068 151.442 73.4908Z" fill="#F2F2F2"/>
<path d="M151.281 108.729C151.237 108.845 151.218 108.969 151.226 109.094C151.234 109.218 151.27 109.339 151.33 109.447C151.411 109.557 151.522 109.64 151.646 109.686C151.771 109.731 151.907 109.738 152.035 109.704C152.293 109.632 152.522 109.476 152.691 109.259C152.846 109.077 152.973 108.871 153.069 108.648C153.2 108.301 153.295 107.938 153.347 107.568L153.598 106.177C153.654 105.866 153.652 104.913 153.111 105.224C152.963 105.308 152.622 105.978 152.467 106.168C152.189 106.51 152.151 106.842 152.005 107.257C151.821 107.776 151.451 108.209 151.281 108.729Z" fill="#F2F2F2"/>
<path d="M179.832 115.846C179.656 115.773 179.484 115.686 179.319 115.587C179.154 116.068 179.066 116.575 179.059 117.087L180.268 116.363C180.451 116.254 180.658 116.103 180.654 115.882C180.655 115.855 180.65 115.828 180.638 115.803C180.626 115.779 180.608 115.758 180.587 115.744C180.559 115.732 180.531 115.729 180.502 115.733C180.324 115.767 180.152 115.826 179.99 115.907C179.907 115.947 179.819 115.969 179.728 115.969C179.638 115.97 179.548 115.949 179.467 115.91" fill="#F2F2F2"/>
<path d="M186.217 116.275C186.084 116.313 185.955 116.363 185.829 116.422C185.551 116.572 185.363 116.855 185.112 117.052C184.864 117.227 184.591 117.359 184.303 117.444C184.286 117.466 184.272 117.492 184.266 117.52C184.259 117.548 184.258 117.578 184.262 117.606C184.266 117.635 184.275 117.662 184.291 117.686C184.306 117.71 184.326 117.731 184.348 117.746C184.446 117.805 184.556 117.831 184.668 117.822C184.961 117.856 185.257 117.808 185.528 117.682C185.673 117.583 185.808 117.469 185.933 117.343C186.245 117.091 186.588 116.886 186.952 116.733C187.083 116.682 187.203 116.606 187.308 116.509C187.532 116.275 187.548 115.914 187.224 115.835C186.963 115.77 186.467 116.19 186.217 116.275Z" fill="#F2F2F2"/>
<path d="M189.04 114.328C189.055 114.167 189.035 114.005 188.98 113.853C188.927 113.702 188.841 113.565 188.731 113.454C188.756 113.776 188.693 114.1 188.547 114.385C188.426 114.575 188.234 114.703 188.1 114.883C188.024 114.966 187.98 115.075 187.974 115.189C187.967 115.304 187.999 115.417 188.063 115.509C188.164 115.59 188.286 115.634 188.412 115.636C188.724 115.675 189.085 115.696 189.305 115.458C189.424 115.328 189.483 115.135 189.628 115.039C189.683 115.015 189.731 114.979 189.771 114.932C189.831 114.831 189.735 114.698 189.627 114.661C189.52 114.625 189.401 114.642 189.292 114.607C189.184 114.573 189.085 114.444 189.14 114.34" fill="#F2F2F2"/>
<path d="M184.024 102.523C183.86 102.565 183.691 102.575 183.523 102.554C183.254 102.463 183.007 102.306 182.804 102.097C182.271 101.667 181.622 101.428 180.951 101.413C180.342 101.4 179.726 101.575 179.126 101.453C179.155 101.566 179.209 101.671 179.282 101.758C179.357 101.846 179.449 101.915 179.551 101.959C179.75 102.061 179.969 102.113 180.169 102.213C180.489 102.376 180.742 102.655 180.883 102.999C180.933 103.163 181.001 103.321 181.086 103.469C181.201 103.597 181.345 103.693 181.503 103.749C181.662 103.805 181.83 103.82 181.995 103.791C182.43 103.761 182.883 103.629 183.288 103.8C183.579 103.97 183.846 104.185 184.076 104.439C184.335 104.661 184.698 104.826 184.995 104.666C184.687 104.561 184.419 104.354 184.23 104.076C184.04 103.799 183.94 103.464 183.944 103.123C184.235 103.151 185.072 103.14 185.027 102.618C184.99 102.175 184.274 102.475 184.024 102.523Z" fill="#F2F2F2"/>
<path d="M180.22 106.122C180.272 105.823 180.555 105.559 180.467 105.269C180.424 105.173 180.356 105.093 180.271 105.039C180.186 104.985 180.087 104.959 179.987 104.965C179.788 104.96 179.592 105.023 179.394 105.029C179.264 105.021 179.135 105.023 179.006 105.035C178.611 105.103 178.367 105.541 177.995 105.696C177.759 105.758 177.52 105.806 177.279 105.838C176.744 105.986 176.407 106.52 176.033 106.95C175.43 107.642 174.643 108.126 173.777 108.341C173.466 108.379 173.167 108.492 172.905 108.671C172.585 108.947 172.506 109.42 172.435 109.85C172.239 111.037 171.938 112.202 171.538 113.331L172.806 113.502C173.046 113.552 173.293 113.548 173.53 113.491C173.699 113.423 173.859 113.333 174.006 113.223C174.571 112.852 175.203 112.611 175.862 112.515C176.194 112.449 176.535 112.474 176.854 112.588C177.012 112.647 177.154 112.751 177.26 112.889C177.367 113.026 177.435 113.192 177.459 113.368C177.595 113.323 177.738 113.319 177.875 113.354C178.012 113.389 178.138 113.463 178.239 113.568C178.438 113.782 178.567 114.056 178.611 114.352C178.644 114.536 178.678 114.756 178.839 114.832C178.97 114.895 179.12 114.828 179.264 114.816C179.752 114.774 180.156 115.375 180.636 115.272C181.15 115.161 181.276 114.347 181.778 114.184C182.066 114.09 182.47 114.204 182.608 113.921C182.729 113.672 182.487 113.384 182.512 113.104C182.543 112.76 182.927 112.614 183.223 112.467C183.725 112.193 184.109 111.727 184.297 111.164C184.484 110.601 184.463 109.984 184.233 109.438C183.94 108.804 183.364 108.304 183.257 107.607C183.176 107.071 183.376 106.446 183.052 106.024C182.887 105.809 182.608 105.69 182.511 105.434C182.474 105.265 182.45 105.093 182.44 104.919C182.408 104.749 182.267 104.571 182.108 104.615C181.646 104.743 181.498 106.252 181.251 106.618C181.175 106.737 181.062 106.824 180.931 106.863C180.8 106.901 180.66 106.89 180.538 106.831C180.414 106.771 180.314 106.667 180.256 106.538C180.198 106.408 180.186 106.261 180.22 106.122Z" fill="#F2F2F2"/>
<path d="M171.679 103.093C171.526 103.028 171.357 103.019 171.198 103.067C171.046 103.134 170.958 103.369 171.079 103.485C172.029 103.417 172.982 103.436 173.927 103.543C175.013 103.701 176.087 104.09 177.178 103.975C176.555 103.781 175.922 103.626 175.282 103.51L174.214 103.295C173.929 103.231 173.639 103.184 173.347 103.153C172.739 103.1 172.278 103.27 171.679 103.093Z" fill="#F2F2F2"/>
<path d="M172.63 99.5957C172.552 99.5888 172.454 99.5828 172.413 99.6544C172.374 99.7229 172.418 99.8133 172.398 99.8901C172.369 99.9951 172.24 100.022 172.137 100.008C172.037 99.9755 171.932 99.9768 171.833 100.011C171.786 100.045 171.752 100.093 171.734 100.148C171.717 100.204 171.716 100.265 171.733 100.321C171.77 100.432 171.83 100.533 171.909 100.616C172.044 100.795 172.196 100.957 172.365 101.1C172.692 101.354 173.134 101.477 173.34 101.847C173.369 101.919 173.413 101.982 173.47 102.032C173.524 102.055 173.582 102.064 173.641 102.058C173.698 102.051 173.754 102.03 173.804 101.996L174.176 101.817C174.244 101.791 174.304 101.748 174.35 101.691C174.382 101.624 174.396 101.547 174.389 101.472C174.382 101.396 174.356 101.324 174.312 101.264C174.222 101.144 174.172 100.998 174.164 100.846C174.192 100.577 174.518 100.474 174.653 100.244C174.789 100.012 174.701 99.7136 174.716 99.4416C174.734 99.1234 174.924 98.7095 174.62 98.4719C174.361 98.2698 174.113 98.4566 173.928 98.6795C173.536 99.1499 173.35 99.6592 172.63 99.5957Z" fill="#F2F2F2"/>
<path d="M174.891 94.8425C175.019 95.0999 175.285 95.2535 175.423 95.5043C175.573 95.776 175.557 96.1271 175.719 96.3904C175.886 96.6607 176.223 96.8041 176.317 97.1114C176.419 97.447 176.187 97.8547 176.373 98.1479C176.407 98.1959 176.451 98.2356 176.501 98.2648C176.55 98.294 176.606 98.312 176.662 98.3175C176.719 98.323 176.777 98.316 176.83 98.297C176.885 98.2778 176.934 98.2471 176.977 98.2066C177.055 98.1167 177.097 97.998 177.093 97.8761C177.09 97.7541 177.042 97.6382 176.958 97.5534C176.849 97.4477 176.691 97.402 176.599 97.2785C176.551 97.2073 176.519 97.1254 176.506 97.0393C176.457 96.7909 176.465 96.5333 176.53 96.2888C176.554 96.2268 176.561 96.1584 176.547 96.0925C176.506 95.9658 176.343 95.9568 176.23 95.898C175.971 95.7646 175.978 95.3786 176.023 95.0781C175.993 95.2782 175.318 94.9378 175.247 94.8245C175.107 94.5994 175.183 94.165 175.155 93.9163C175.009 94.0063 174.899 94.1521 174.85 94.3242C174.801 94.4962 174.815 94.6816 174.891 94.8425Z" fill="#F2F2F2"/>
<path d="M168.097 98.8029C167.973 98.6557 167.785 98.5015 167.618 98.5903C167.558 98.6317 167.514 98.6939 167.494 98.7662C167.473 98.8385 167.477 98.9161 167.506 98.9854C167.566 99.1225 167.66 99.2404 167.777 99.3275C168.14 99.6111 168.482 99.9215 168.804 100.257C169.346 100.887 169.634 101.738 170.225 102.319C170.344 102.454 170.501 102.543 170.672 102.575C170.758 102.587 170.845 102.565 170.916 102.513C170.988 102.461 171.037 102.383 171.057 102.294C171.056 102.219 171.038 102.145 171.008 102.077C170.977 102.009 170.933 101.949 170.878 101.9C170.649 101.636 170.398 101.394 170.181 101.118C170.081 101.012 170.018 100.874 170.004 100.725C170.002 100.577 170.13 100.421 170.266 100.458C170.101 100.413 169.978 100.122 169.736 100.067C169.532 100.022 169.484 100.154 169.241 100.045C168.781 99.8363 168.42 99.1844 168.097 98.8029Z" fill="#F2F2F2"/>
<path d="M178.92 84.4638C178.788 84.4224 178.658 84.3733 178.531 84.3169C178.188 84.2085 177.737 84.4741 177.782 84.8484C177.813 85.0969 178.031 85.2645 178.152 85.4802C178.226 85.6491 178.267 85.8319 178.274 86.018C178.28 86.204 178.251 86.3895 178.19 86.5637C178.166 86.6747 178.122 86.7795 178.06 86.872C177.972 86.9697 177.869 87.0488 177.754 87.1049C177.293 87.3786 176.885 87.7442 176.554 88.1815C176.519 88.2219 176.494 88.2716 176.482 88.3258C176.466 88.452 176.586 88.5442 176.654 88.6495C176.805 88.8835 176.695 89.1985 176.711 89.4813C176.709 89.5213 176.715 89.5612 176.733 89.5973C176.749 89.6334 176.774 89.6645 176.805 89.6877C176.895 89.7365 177.003 89.6536 177.053 89.5592C177.217 89.2459 177.093 88.7431 177.399 88.592C177.458 88.5635 177.529 88.5514 177.567 88.4975C177.629 88.412 177.569 88.2854 177.601 88.1833C177.647 88.0298 177.846 88.0229 177.998 88.0297C178.26 88.0413 178.523 88.0043 178.774 87.9206C178.872 87.8959 178.962 87.8413 179.03 87.7635C179.068 87.6971 179.094 87.6235 179.104 87.5469C179.116 87.4702 179.112 87.392 179.095 87.3166C179.004 86.5496 178.774 85.8083 178.418 85.1326C178.684 85.1999 178.964 85.1717 179.214 85.0519C179.344 84.9689 179.5 84.7202 179.436 84.5509C179.334 84.2833 179.148 84.5086 178.92 84.4638Z" fill="#F2F2F2"/>
<path d="M144.351 88.6822C144.398 88.8625 144.401 89.0523 144.358 89.2338C144.334 89.3234 144.279 89.4004 144.206 89.4502C144.131 89.4999 144.042 89.5187 143.956 89.5031C143.825 89.4612 143.749 89.3223 143.656 89.2163C143.14 88.6273 141.974 88.9683 141.656 88.2397C141.525 87.9423 141.614 87.586 141.525 87.272C141.469 87.0906 141.358 86.9339 141.208 86.8267C141.058 86.7194 140.88 86.6677 140.7 86.6795C140.536 86.7046 140.376 86.7551 140.225 86.8292C139.216 87.256 138.157 87.5359 137.078 87.6611C136.873 87.6743 136.669 87.7133 136.473 87.7773C136.04 87.9878 135.697 88.3613 135.511 88.8249C135.329 89.2845 135.106 89.7252 134.847 90.1417C134.517 90.5326 134.138 90.8748 133.721 91.1589C133.568 91.2631 133.44 91.4042 133.349 91.5706C133.278 91.765 133.252 91.9748 133.274 92.1822L133.356 94.7038C133.344 95.0291 133.399 95.3532 133.517 95.6543C133.688 96.0168 134.027 96.2541 134.262 96.5743C134.502 96.9034 134.627 97.3099 134.616 97.7251C134.611 97.892 134.595 98.0895 134.718 98.1944C134.793 98.2456 134.881 98.2722 134.97 98.2708L138.197 98.55C138.765 98.599 139.394 98.6798 139.765 99.137C139.941 99.3527 140.081 99.663 140.349 99.6862C140.464 99.6792 140.578 99.6626 140.69 99.6366C140.837 99.6426 140.978 99.6886 141.102 99.77C141.226 99.8515 141.328 99.9656 141.397 100.101C141.64 100.492 141.75 100.958 141.71 101.424C141.684 101.716 141.598 102 141.58 102.293C141.509 103.408 142.404 104.377 142.421 105.494C142.43 106.151 142.136 106.765 141.848 107.348C142.313 108.091 141.932 109.081 142.117 109.951C142.293 110.775 142.944 111.421 143.105 112.249C143.18 112.628 143.184 113.094 143.5 113.289C143.638 113.361 143.793 113.393 143.946 113.384C144.877 113.395 145.795 113.174 146.629 112.739C147.019 112.534 147.425 112.228 147.493 111.772C147.547 111.404 147.371 110.994 147.551 110.673C147.762 110.296 148.305 110.326 148.615 110.036C149.121 109.566 148.726 108.669 148.931 107.991C149.115 107.382 149.747 107.058 150.062 106.512C150.185 106.276 150.274 106.023 150.325 105.759C150.469 105.129 150.558 104.487 150.591 103.84C150.599 103.447 150.627 103.055 150.674 102.665C151.012 100.445 153.09 98.9578 153.763 96.8247C153.828 96.621 153.858 96.3497 153.687 96.2344C153.586 96.1832 153.47 96.1704 153.36 96.1982L151.872 96.3965C151.69 96.4387 151.499 96.4271 151.322 96.363C151.235 96.3272 151.166 96.2566 151.127 96.1666C151.09 96.0766 151.087 95.9746 151.12 95.8826C151.372 95.3989 150.854 94.7876 150.622 94.2918C150.001 92.9569 149.259 91.6875 148.41 90.5009C148.355 90.4399 148.322 90.3617 148.313 90.2784L148.735 90.2932C148.593 89.7527 148.358 89.1611 147.861 88.9634C147.571 88.8803 147.269 88.8614 146.971 88.9078C146.093 88.9265 145.215 88.8509 144.351 88.6822Z" fill="#F2F2F2"/>
<path d="M146.974 76.5007C147.171 76.7787 147.453 76.9768 147.773 77.0623C148.344 77.1396 148.756 76.5142 149.018 75.971C149.027 76.1095 149.088 76.2385 149.187 76.3306C149.284 76.4227 149.414 76.4707 149.544 76.4643C149.686 76.4391 149.82 76.3834 149.94 76.3006C151.075 75.6458 152.344 75.2989 153.636 75.2909C153.624 75.1876 153.648 75.0829 153.706 74.9973C153.762 74.9116 153.846 74.8511 153.942 74.8272C154.204 74.7723 154.441 75.0122 154.568 75.2616C154.661 75.5268 154.8 75.7722 154.975 75.9866C155.176 76.1731 155.565 76.165 155.645 75.8947C155.721 75.6353 155.467 75.4141 155.253 75.261C155.041 75.1081 154.817 74.8249 154.96 74.5992C156.039 74.3119 157.14 74.1247 158.249 74.0399C158.439 74.0468 158.627 74.0126 158.803 73.9391C158.891 73.9002 158.963 73.8319 159.009 73.745C159.056 73.6581 159.075 73.5573 159.061 73.4583C158.819 73.5185 158.565 73.501 158.332 73.4082C158.099 73.3153 157.897 73.1511 157.753 72.9368C159.295 72.8024 160.934 72.6878 162.301 73.4543C162.465 73.8262 161.629 74.1356 161.853 74.4711C161.896 74.5173 161.949 74.5524 162.008 74.5735C162.066 74.5947 162.129 74.6013 162.19 74.5929C163.14 74.64 164.09 74.6016 165.033 74.4784C165.373 74.3992 165.721 74.3693 166.068 74.3897C166.641 74.4645 167.132 74.8691 167.695 75.0009C167.809 75.036 167.927 75.0465 168.045 75.0317C168.162 75.0171 168.274 74.9773 168.377 74.9152C168.425 74.8819 168.467 74.8384 168.499 74.7873C168.533 74.7364 168.555 74.6791 168.566 74.6187C168.577 74.5584 168.577 74.4963 168.565 74.4363C168.551 74.3761 168.529 74.3192 168.495 74.2691C169.026 73.7187 169.907 73.8551 170.609 74.1186C171.31 74.382 171.974 74.8069 172.717 74.8656C173.249 74.9077 173.787 74.7565 174.312 74.8527C174.638 74.9392 174.959 75.043 175.274 75.1637C175.884 75.3442 176.53 75.3061 177.164 75.3148C178.782 75.3378 180.381 75.6738 181.885 76.306C182.081 76.3734 182.26 76.4852 182.411 76.6338C182.484 76.7095 182.535 76.8067 182.555 76.9131C182.576 77.0195 182.567 77.1299 182.527 77.2304L180.973 76.9905C181.12 77.2949 181.499 77.3468 181.807 77.4519C182.113 77.5569 182.433 77.9157 182.248 78.1958C181.915 78.0837 181.613 78.4357 181.444 78.7595C181.276 79.0834 181.071 79.4712 180.721 79.4909C180.409 79.5085 180.031 79.2272 179.828 79.4784C180.109 79.8537 180.351 80.261 180.547 80.6928C180.748 81.1359 180.891 81.6944 180.619 82.0932C180.576 82.1644 180.511 82.2176 180.435 82.2436C180.213 82.3031 180.068 82.0158 179.91 81.8416C179.682 81.653 179.416 81.5215 179.132 81.4572C178.86 81.3543 178.575 81.1519 178.554 80.8474C178.563 80.6573 178.615 80.4721 178.704 80.3069C178.822 80.0119 178.872 79.6923 178.854 79.3728C178.852 79.1127 178.76 78.8623 178.596 78.6691C178.511 78.5762 178.398 78.5181 178.276 78.5049C178.155 78.4917 178.034 78.5243 177.932 78.597C177.844 78.6738 177.775 78.7965 177.662 78.8011C177.46 78.8093 177.307 78.4394 177.144 78.5657C177.164 78.7002 177.138 78.8374 177.07 78.9534C176.588 79.3963 175.848 79.209 175.227 79.3654C174.931 79.4547 174.648 79.5852 174.386 79.7535C174.287 79.7979 174.204 79.8721 174.146 79.9667C174.115 80.0505 174.114 80.1428 174.139 80.2281C174.166 80.3134 174.219 80.3868 174.29 80.4357C174.435 80.5297 174.598 80.5885 174.767 80.6077C175.524 80.7593 176.292 80.9939 176.891 81.508C177.488 82.022 177.88 82.8717 177.691 83.6614L176.198 82.1533C176.255 82.7865 176.287 83.4214 176.295 84.0582C176.304 84.1824 176.288 84.3075 176.247 84.4246C176.14 84.6731 175.852 84.7567 175.599 84.8115C175.528 84.8256 175.462 84.8553 175.403 84.8987C175.344 84.9419 175.295 84.9979 175.259 85.0628C175.222 85.1276 175.199 85.2 175.19 85.2752C175.182 85.3502 175.188 85.4264 175.21 85.4986C175.327 85.799 175.503 86.0689 175.728 86.2898C175.955 86.512 176.107 86.8052 176.163 87.1259C176.19 87.4483 175.959 87.8117 175.654 87.7893C175.539 87.7654 175.434 87.7106 175.346 87.6304C175.256 87.5501 175.19 87.4469 175.151 87.3311C175.076 87.099 174.972 86.8779 174.846 86.673C174.396 86.1019 173.386 86.3466 172.985 85.7378C172.882 85.8607 172.81 86.0094 172.777 86.1697C172.745 86.3299 172.751 86.4963 172.795 86.6532C172.897 86.6058 173.01 86.597 173.117 86.6282C173.223 86.6594 173.317 86.7288 173.381 86.8246C173.502 87.0192 173.608 87.2243 173.698 87.4375C173.847 87.7102 174.084 87.9521 174.104 88.2665C174.099 88.3853 174.102 88.5043 174.111 88.623C174.176 88.8045 174.276 88.9699 174.406 89.1092C174.516 89.3031 174.582 89.5228 174.595 89.7492C174.608 89.9756 174.568 90.202 174.48 90.4086C174.3 90.82 174.055 91.1959 173.756 91.5205C173.278 92.1284 172.75 92.6905 172.178 93.2001C172.001 93.3269 171.849 93.4886 171.73 93.6765C171.673 93.7719 171.646 93.8846 171.655 93.9971C171.665 94.1098 171.709 94.216 171.781 94.2999C171.666 94.3059 171.462 94.3652 171.347 94.3712C171.307 93.8878 171.298 93.4021 171.321 92.9173C170.871 92.6889 170.386 93.3005 170.445 93.8245C170.503 94.3484 170.862 94.7689 171.117 95.2223C171.325 95.5441 171.418 95.933 171.379 96.3205C171.355 96.5119 171.266 96.6875 171.129 96.8155C170.991 96.9435 170.815 97.0152 170.633 97.0176C170.054 96.9643 169.813 96.0867 169.239 95.9864C169.189 95.9738 169.135 95.9793 169.089 96.0021C169.003 96.0514 168.989 96.1717 168.985 96.2741C168.926 96.7751 168.974 97.2836 169.126 97.7623C169.398 98.4401 170.099 99.0093 169.951 99.7287C169.159 99.3392 168.747 98.3998 168.559 97.4975C168.373 96.595 168.342 95.6477 168.006 94.7945C167.751 95.1396 167.215 94.8544 166.984 94.4924C166.762 94.1494 166.626 93.7523 166.413 93.4046C166.317 93.2226 166.184 93.0665 166.021 92.9488C165.86 92.831 165.673 92.7549 165.478 92.7264C165.068 92.7063 164.71 93.0045 164.397 93.2862C164.124 93.4998 163.896 93.7694 163.724 94.0788C163.504 94.545 163.561 95.0943 163.552 95.6146C163.574 96.1823 163.401 96.7395 163.064 97.1826C162.701 97.5944 162.032 97.7379 161.632 97.3667C161.437 97.1538 161.3 96.8915 161.23 96.6055C160.797 95.266 160.435 93.9013 160.148 92.5183C160.08 92.8338 159.819 93.2408 159.568 93.0548C159.511 93.0048 159.465 92.9428 159.433 92.8729C158.967 92.0356 158.1 91.5335 157.225 91.2325C156.351 90.9313 155.431 90.7909 154.565 90.46C154.082 90.2745 153.619 90.0308 153.187 89.7337C153.076 89.9047 153.012 90.104 153 90.3105C152.988 90.517 153.03 90.723 153.12 90.9068C153.216 91.0866 153.367 91.2274 153.548 91.3073C153.728 91.3871 153.928 91.4014 154.118 91.3479C154.309 91.283 154.472 91.1422 154.663 91.0726C154.755 91.0283 154.857 91.0199 154.955 91.049C155.052 91.0781 155.136 91.1426 155.192 91.2311C155.272 91.4169 155.151 91.6415 155.211 91.8354C155.303 92.1307 155.724 92.1535 155.871 92.4221C155.915 92.5284 155.925 92.6467 155.9 92.7595C155.876 92.8724 155.817 92.9738 155.733 93.049C155.564 93.1952 155.377 93.3169 155.177 93.4111C154.557 93.7755 154.116 94.3976 153.575 94.8816C153.032 95.3656 152.267 95.7189 151.622 95.4085C151.776 94.5847 150.847 93.9798 150.676 93.1597C150.62 92.8897 150.648 92.6031 150.568 92.34C150.452 91.9591 150.132 91.6972 149.871 91.4086C149.552 91.0547 149.304 90.637 149.142 90.1804C148.979 89.7236 148.903 89.237 148.922 88.7493C148.966 88.4129 148.966 88.0718 148.922 87.7355C148.896 87.5677 148.818 87.4139 148.699 87.2988C148.58 87.1836 148.43 87.1137 148.268 87.1003C147.537 87.1344 146.614 87.192 146.229 86.5322C146.091 86.2966 146.033 85.9517 146.23 85.7712C146.309 85.7189 146.395 85.6833 146.486 85.6669C146.578 85.6504 146.671 85.653 146.761 85.675L148.411 85.8466C148.798 85.8867 149.215 85.9198 149.546 85.7065C149.878 85.4933 150.02 84.9272 149.714 84.6763C149.49 84.493 149.088 84.5028 149.023 84.2114C148.968 83.9686 149.223 83.6931 149.086 83.4902C148.987 83.3447 148.766 83.3851 148.632 83.4942C148.515 83.6227 148.387 83.7402 148.25 83.8453C147.987 83.9902 147.673 83.8523 147.389 83.7586C147.106 83.6649 146.726 83.6569 146.589 83.935C146.434 84.246 146.725 84.6536 146.571 84.9653C146.37 85.3774 145.687 85.1428 145.403 85.4973C145.079 85.9041 145.625 86.5105 145.515 87.0302C145.375 87.1034 145.219 87.1369 145.065 87.1277C144.909 87.1185 144.757 87.0667 144.626 86.9774C144.497 86.8846 144.394 86.7564 144.327 86.6067C144.262 86.457 144.237 86.2913 144.253 86.1271C144.279 85.8934 144.395 85.6548 144.318 85.434C144.234 85.2636 144.095 85.13 143.927 85.0569L142.323 84.1203C142.174 84.4122 142.363 84.7741 142.598 84.9933C142.834 85.2126 143.129 85.3778 143.283 85.6664C143.382 85.8663 143.403 86.0982 143.345 86.3146C143.286 86.531 143.151 86.7158 142.969 86.831C142.946 86.8476 142.919 86.859 142.893 86.864C142.865 86.8691 142.837 86.8678 142.81 86.8603C142.785 86.8444 142.762 86.8232 142.745 86.798C142.726 86.7728 142.714 86.7442 142.707 86.7138C142.423 85.9483 141.999 85.1938 141.32 84.794C140.64 84.3942 139.664 84.4764 139.218 85.1498C139.113 85.3098 139.042 85.4922 138.949 85.6613C138.46 86.5599 137.41 86.9854 136.429 86.9576C136.333 86.9632 136.238 86.9395 136.154 86.8892C135.996 86.7736 136.003 86.528 136.027 86.3261L136.13 85.469C136.13 85.2938 136.195 85.1256 136.309 84.9992C136.491 84.8477 136.753 84.9433 136.985 84.9399C137.16 84.9312 137.329 84.8657 137.468 84.7524C137.607 84.6391 137.709 84.4834 137.761 84.3063C137.808 84.1275 137.808 83.9387 137.761 83.7601C137.713 83.5815 137.621 83.4199 137.493 83.2929C137.387 83.1876 137.245 83.0553 137.301 82.9134C137.323 82.8741 137.353 82.8405 137.389 82.8149C137.425 82.7893 137.466 82.7724 137.509 82.7653C137.924 82.6377 138.364 82.6043 138.773 82.4537C138.982 82.3936 139.174 82.2795 139.332 82.1216C139.489 81.9639 139.606 81.7672 139.674 81.5495C139.704 81.4128 139.717 81.2474 139.834 81.1797C139.892 81.1537 139.954 81.1402 140.018 81.1399C140.24 81.1066 140.441 80.9867 140.584 80.8042C140.726 80.6216 140.798 80.3892 140.786 80.153C140.894 80.0986 141.016 80.0807 141.133 80.1013C141.252 80.122 141.361 80.1804 141.446 80.2686C141.614 80.4484 141.814 80.5922 142.034 80.6921C142.463 80.8157 142.878 80.4136 143.323 80.4117C143.509 80.4456 143.697 80.4462 143.881 80.4138C144.059 80.3458 144.166 80.1578 144.303 80.0191C144.441 79.8803 144.681 79.7956 144.807 79.9451L144.701 79.1014C144.917 79.1594 145.143 79.1675 145.363 79.1255C145.585 79.0834 145.794 78.9919 145.978 78.8574L144.585 78.3599C144.535 78.3471 144.491 78.3218 144.454 78.2863C144.353 78.171 144.454 77.9914 144.535 77.8605C144.733 77.5471 144.766 77.0308 144.442 76.8747C144.221 76.7682 143.967 76.896 143.754 77.0211L142.738 77.6202C142.705 77.8245 142.942 77.9402 143.089 78.0778C143.177 78.161 143.239 78.2706 143.269 78.3922C143.297 78.5138 143.29 78.6418 143.249 78.7591C143.207 78.8764 143.133 78.9779 143.035 79.0499C142.939 79.122 142.823 79.1614 142.705 79.163C142.771 79.255 142.818 79.3616 142.841 79.4752C142.863 79.5888 142.862 79.7063 142.835 79.8191L142.151 79.8711C142.075 79.8873 141.995 79.8709 141.93 79.8252C141.857 79.7565 141.866 79.6363 141.85 79.5344C141.818 79.4135 141.754 79.305 141.665 79.2227C141.577 79.1404 141.466 79.0879 141.349 79.072C141.113 79.045 140.874 79.0682 140.648 79.1404C140.55 79.1776 140.442 79.175 140.346 79.1331C140.292 79.0954 140.25 79.0395 140.228 78.9742C140.188 78.8404 140.181 78.6981 140.208 78.5609C140.236 78.4235 140.296 78.2961 140.384 78.1906C140.56 77.9822 140.756 77.7924 140.966 77.6237C141.444 77.1819 141.793 76.6079 141.977 75.9669C142.354 75.8001 142.743 75.5736 143.121 75.4068C143.701 75.0961 144.353 74.9628 145.001 75.0219L146.277 75.0476C146.654 75.0306 147.033 75.0881 147.391 75.217C147.57 75.2842 147.727 75.4017 147.847 75.5568C147.967 75.7117 148.045 75.8983 148.071 76.0966C148.078 76.1417 148.075 76.1879 148.06 76.2311C148.046 76.2743 148.022 76.3128 147.988 76.3434C147.939 76.3718 147.885 76.3851 147.829 76.3818C147.475 76.3948 147.326 76.4876 146.974 76.5007Z" fill="#F2F2F2"/>
<path d="M136.806 80.7249C136.856 80.6752 136.892 80.6117 136.91 80.5417C136.928 80.4717 136.927 80.3979 136.908 80.3283C136.787 80.2788 136.655 80.2661 136.527 80.2916C136.399 80.3171 136.281 80.3797 136.185 80.4725C136.109 80.5533 136.044 80.6443 135.991 80.7431C135.893 80.8774 135.823 81.0321 135.785 81.197C135.748 81.362 135.743 81.5334 135.773 81.7002C135.78 81.7354 135.795 81.7686 135.815 81.7978C135.835 81.8271 135.861 81.8518 135.89 81.8703C135.934 81.8889 135.981 81.8966 136.028 81.8931C136.212 81.8929 136.397 81.8809 136.58 81.8571C136.693 81.8426 136.823 81.809 136.867 81.6985C136.924 81.553 136.785 81.3884 136.826 81.2368C136.852 81.1689 136.893 81.1081 136.944 81.0584C136.969 81.0333 136.989 81.0024 137.001 80.9681C137.013 80.9337 137.017 80.8968 137.013 80.8604C136.997 80.7893 136.894 80.7489 136.857 80.8107" fill="#F2F2F2"/>
<path d="M137.763 79.4131C137.599 79.3733 137.43 79.3621 137.262 79.3799C137.225 79.3787 137.188 79.3875 137.155 79.4055C137.124 79.4304 137.1 79.4657 137.09 79.5061C137.054 79.626 137.063 79.7557 137.114 79.8692C137.165 79.9826 137.255 80.0716 137.365 80.1184C137.425 80.133 137.483 80.1574 137.536 80.1909C137.677 80.307 137.587 80.5442 137.614 80.7314C137.644 80.9417 137.837 81.1182 137.801 81.3275C137.773 81.4923 137.607 81.6229 137.634 81.788C137.662 81.9609 137.869 82.0129 138.034 82.0267C138.13 82.0445 138.229 82.0325 138.32 81.9923C138.409 81.9273 138.473 81.8296 138.498 81.7179C138.566 81.5047 138.594 81.2798 138.582 81.0554C138.581 80.9532 138.557 80.8529 138.512 80.763C138.462 80.6917 138.406 80.6249 138.346 80.5631C138.029 80.1733 138.364 79.592 137.763 79.4131Z" fill="#F2F2F2"/>
<path d="M110.381 83.1581C110.969 83.1581 111.445 82.6547 111.445 82.0337C111.445 81.4128 110.969 80.9095 110.381 80.9095C109.794 80.9095 109.317 81.4128 109.317 82.0337C109.317 82.6547 109.794 83.1581 110.381 83.1581Z" fill="#199886"/>
<path d="M119.993 107.194C120.581 107.194 121.057 106.69 121.057 106.069C121.057 105.448 120.581 104.945 119.993 104.945C119.406 104.945 118.929 105.448 118.929 106.069C118.929 106.69 119.406 107.194 119.993 107.194Z" fill="#199886"/>
<path d="M160.751 83.0029C161.339 83.0029 161.815 82.4996 161.815 81.8787C161.815 81.2578 161.339 80.7545 160.751 80.7545C160.164 80.7545 159.687 81.2578 159.687 81.8787C159.687 82.4996 160.164 83.0029 160.751 83.0029Z" fill="#199886"/>
<path d="M179.46 111.07C180.048 111.07 180.524 110.567 180.524 109.946C180.524 109.325 180.048 108.822 179.46 108.822C178.874 108.822 178.396 109.325 178.396 109.946C178.396 110.567 178.874 111.07 179.46 111.07Z" fill="#199886"/>
<path d="M144.721 99.1301C145.309 99.1301 145.785 98.6267 145.785 98.0058C145.785 97.3849 145.309 96.8816 144.721 96.8816C144.133 96.8816 143.657 97.3849 143.657 98.0058C143.657 98.6267 144.133 99.1301 144.721 99.1301Z" fill="#199886"/>
<path d="M47.8645 41.6475C47.8668 46.6221 45.0689 48.3602 41.617 48.362C41.5367 48.3621 41.457 48.3612 41.3775 48.3593C41.2175 48.3557 41.0593 48.3481 40.9026 48.3364C37.7869 48.1049 35.3653 46.2804 35.3633 41.6539C35.361 36.8663 41.1488 30.8213 41.583 30.3744C41.5994 30.3573 41.6087 30.3484 41.6087 30.3484C41.6087 30.3484 47.8621 36.6734 47.8645 41.6475Z" fill="#199886"/>
<path d="M41.3899 47.6012L43.6745 44.2247L41.3843 47.9717L41.3783 48.3593C41.2183 48.3557 41.0601 48.3481 40.9034 48.3364L41.1474 43.3597L41.1454 43.3212L41.1497 43.3138L41.1729 42.8436L38.8735 39.0897L41.1795 42.4914L41.1854 42.5911L41.3697 38.8309L39.401 34.9515L41.3935 38.1701L41.5838 30.3744L41.5551 36.5217L43.5117 34.0835L41.5469 37.0511L41.4967 40.418L43.324 37.186L41.4897 40.9129L41.4617 42.7851L44.1137 38.2862L41.4517 43.4382L41.3899 47.6012Z" fill="#3F3D56"/>
</g>
</g>
<defs>
<filter id="filter0_d_3_11600" x="0.65625" y="0.796875" width="206.656" height="136" filterUnits="userSpaceOnUse" color-interpolation-filters="sRGB">
<feFlood flood-opacity="0" result="BackgroundImageFix"/>
<feColorMatrix in="SourceAlpha" type="matrix" values="0 0 0 0 0 0 0 0 0 0 0 0 0 0 0 0 0 0 127 0" result="hardAlpha"/>
<feOffset dy="4"/>
<feGaussianBlur stdDeviation="2"/>
<feComposite in2="hardAlpha" operator="out"/>
<feColorMatrix type="matrix" values="0 0 0 0 0 0 0 0 0 0 0 0 0 0 0 0 0 0 0.25 0"/>
<feBlend mode="normal" in2="BackgroundImageFix" result="effect1_dropShadow_3_11600"/>
<feBlend mode="normal" in="SourceGraphic" in2="effect1_dropShadow_3_11600" result="shape"/>
</filter>
<clipPath id="clip0_3_11600">
<rect width="198.656" height="127.993" fill="white" transform="translate(4.65625 0.800171)"/>
</clipPath>
</defs>
</svg>
