<svg width="1763" height="668" viewBox="0 0 1763 668" fill="none" xmlns="http://www.w3.org/2000/svg">
<path d="M202.408 596.723C208.962 596.723 214.275 592.344 214.275 586.942C214.275 581.54 208.962 577.162 202.408 577.162C195.853 577.162 190.54 581.54 190.54 586.942C190.54 592.344 195.853 596.723 202.408 596.723Z" fill="#FF6585"/>
<path d="M16.7613 499.839C18.1522 504.099 15.6957 508.756 11.2744 510.241C6.85319 511.727 2.14146 509.478 0.750495 505.218C-0.640468 500.958 1.81607 496.301 6.23732 494.816C10.6586 493.331 15.3703 495.58 16.7613 499.839Z" fill="#FFCE1F"/>
<path d="M699.047 103.076C696.287 103.076 694.05 100.4 694.05 97.0989C694.05 93.7977 696.287 91.1216 699.047 91.1216C701.807 91.1216 704.044 93.7977 704.044 97.0989C704.044 100.4 701.807 103.076 699.047 103.076Z" fill="#199886"/>
<path d="M146.265 429.096C150.06 429.096 153.136 426.42 153.136 423.119C153.136 419.818 150.06 417.142 146.265 417.142C142.471 417.142 139.395 419.818 139.395 423.119C139.395 426.42 142.471 429.096 146.265 429.096Z" fill="#199886"/>
<path d="M1508.54 384.541C1500.95 384.541 1494.8 380.162 1494.8 374.76C1494.8 369.358 1500.95 364.979 1508.54 364.979C1516.13 364.979 1522.28 369.358 1522.28 374.76C1522.28 380.162 1516.13 384.541 1508.54 384.541Z" fill="#41847F"/>
<path d="M73.8084 264.999C79.6726 264.999 84.4264 260.62 84.4264 255.219C84.4264 249.817 79.6726 245.438 73.8084 245.438C67.9443 245.438 63.1904 249.817 63.1904 255.219C63.1904 260.62 67.9443 264.999 73.8084 264.999Z" fill="#FF6585"/>
<path d="M87.5517 84.6017C91.3463 84.6017 94.4223 81.4391 94.4223 77.5379C94.4223 73.6367 91.3463 70.4741 87.5517 70.4741C83.7572 70.4741 80.6812 73.6367 80.6812 77.5379C80.6812 81.4391 83.7572 84.6017 87.5517 84.6017Z" fill="#FF6585"/>
<path d="M1156.88 151.979C1152.4 151.979 1148.76 148.816 1148.76 144.915C1148.76 141.014 1152.4 137.851 1156.88 137.851C1161.37 137.851 1165 141.014 1165 144.915C1165 148.816 1161.37 151.979 1156.88 151.979Z" fill="#FF6585"/>
<path d="M547.107 39.962C545.934 44.2219 548.006 48.8792 551.737 50.3644C555.467 51.8495 559.443 49.6002 560.617 45.3404C561.791 41.0805 559.718 36.4232 555.987 34.938C552.257 33.4529 548.281 35.7022 547.107 39.962Z" fill="#FFCE1F"/>
<path d="M1016.52 6.46319C1014.9 10.7229 1017.77 15.3801 1022.93 16.8652C1028.1 18.3503 1033.6 16.1011 1035.23 11.8413C1036.85 7.58161 1033.98 2.92448 1028.82 1.43934C1023.65 -0.0457918 1018.15 2.20346 1016.52 6.46319Z" fill="#FFCE1F"/>
<path d="M1228.72 109.596C1223.89 109.596 1219.97 105.947 1219.97 101.446C1219.97 96.9449 1223.89 93.2959 1228.72 93.2959C1233.55 93.2959 1237.46 96.9449 1237.46 101.446C1237.46 105.947 1233.55 109.596 1228.72 109.596Z" fill="#FF6585"/>
<path d="M933.276 137.851C937.07 137.851 940.146 135.175 940.146 131.874C940.146 128.573 937.07 125.896 933.276 125.896C929.481 125.896 926.405 128.573 926.405 131.874C926.405 135.175 929.481 137.851 933.276 137.851Z" fill="#199886"/>
<path d="M1684.06 423.663C1687.86 423.663 1690.94 420.986 1690.94 417.685C1690.94 414.384 1687.86 411.708 1684.06 411.708C1680.27 411.708 1677.19 414.384 1677.19 417.685C1677.19 420.986 1680.27 423.663 1684.06 423.663Z" fill="#199886"/>
<path d="M1732.78 654.049C1739.34 654.049 1744.65 649.67 1744.65 644.269C1744.65 638.867 1739.34 634.488 1732.78 634.488C1726.23 634.488 1720.92 638.867 1720.92 644.269C1720.92 649.67 1726.23 654.049 1732.78 654.049Z" fill="#FF6585"/>
<path d="M1753.4 138.939C1748.57 138.939 1744.65 135.777 1744.65 131.875C1744.65 127.974 1748.57 124.812 1753.4 124.812C1758.23 124.812 1762.14 127.974 1762.14 131.875C1762.14 135.777 1758.23 138.939 1753.4 138.939Z" fill="#FF6585"/>
<path d="M1053.43 656.339C1051.65 660.599 1054.8 665.256 1060.46 666.742C1066.13 668.227 1072.16 665.977 1073.94 661.717C1075.73 657.457 1072.58 652.8 1066.92 651.315C1061.25 649.83 1055.22 652.079 1053.43 656.339Z" fill="#FFCE1F"/>
<path d="M1637.49 215.823C1638.99 220.082 1636.34 224.739 1631.56 226.224C1626.78 227.71 1621.69 225.46 1620.18 221.201C1618.68 216.941 1621.33 212.284 1626.11 210.799C1630.89 209.314 1635.99 211.563 1637.49 215.823Z" fill="#FFCE1F"/>
<path d="M1403.37 520.111C1401.59 524.371 1404.74 529.028 1410.4 530.514C1416.07 531.999 1422.1 529.749 1423.88 525.489C1425.67 521.229 1422.52 516.572 1416.86 515.087C1411.19 513.602 1405.16 515.851 1403.37 520.111Z" fill="#FFCE1F"/>
</svg>
