<svg width="88" height="141" viewBox="0 0 88 141" fill="none" xmlns="http://www.w3.org/2000/svg">
<g opacity="0.3">
<mask id="mask0_3_10134" style="mask-type:alpha" maskUnits="userSpaceOnUse" x="0" y="0" width="14" height="14">
<path d="M7.25945 13.1191C10.7806 13.1191 13.6351 10.2732 13.6351 6.76276C13.6351 3.25232 10.7806 0.406555 7.25945 0.406555C3.73823 0.406555 0.883789 3.25232 0.883789 6.76276C0.883789 10.2732 3.73823 13.1191 7.25945 13.1191Z" fill="url(#paint0_linear_3_10134)"/>
</mask>
<g mask="url(#mask0_3_10134)">
<path d="M7.25945 13.1191C10.7806 13.1191 13.6351 10.2732 13.6351 6.76276C13.6351 3.25232 10.7806 0.406555 7.25945 0.406555C3.73823 0.406555 0.883789 3.25232 0.883789 6.76276C0.883789 10.2732 3.73823 13.1191 7.25945 13.1191Z" fill="url(#paint1_linear_3_10134)"/>
</g>
<mask id="mask1_3_10134" style="mask-type:alpha" maskUnits="userSpaceOnUse" x="37" y="0" width="14" height="14">
<path d="M44.1851 13.1191C47.7063 13.1191 50.5608 10.2732 50.5608 6.76276C50.5608 3.25232 47.7063 0.406555 44.1851 0.406555C40.664 0.406555 37.8096 3.25232 37.8096 6.76276C37.8096 10.2732 40.664 13.1191 44.1851 13.1191Z" fill="url(#paint2_linear_3_10134)"/>
</mask>
<g mask="url(#mask1_3_10134)">
<path d="M44.1851 13.1191C47.7063 13.1191 50.5608 10.2732 50.5608 6.76276C50.5608 3.25232 47.7063 0.406555 44.1851 0.406555C40.664 0.406555 37.8096 3.25232 37.8096 6.76276C37.8096 10.2732 40.664 13.1191 44.1851 13.1191Z" fill="url(#paint3_linear_3_10134)"/>
</g>
<mask id="mask2_3_10134" style="mask-type:alpha" maskUnits="userSpaceOnUse" x="74" y="0" width="14" height="14">
<path d="M81.111 13.1191C84.6321 13.1191 87.4867 10.2732 87.4867 6.76276C87.4867 3.25232 84.6321 0.406555 81.111 0.406555C77.5898 0.406555 74.7354 3.25232 74.7354 6.76276C74.7354 10.2732 77.5898 13.1191 81.111 13.1191Z" fill="url(#paint4_linear_3_10134)"/>
</mask>
<g mask="url(#mask2_3_10134)">
<path d="M81.111 13.1191C84.6321 13.1191 87.4867 10.2732 87.4867 6.76276C87.4867 3.25232 84.6321 0.406555 81.111 0.406555C77.5898 0.406555 74.7354 3.25232 74.7354 6.76276C74.7354 10.2732 77.5898 13.1191 81.111 13.1191Z" fill="url(#paint5_linear_3_10134)"/>
</g>
<mask id="mask3_3_10134" style="mask-type:alpha" maskUnits="userSpaceOnUse" x="0" y="32" width="14" height="14">
<path d="M7.25945 45.0325C10.7806 45.0325 13.6351 42.1867 13.6351 38.6763C13.6351 35.1659 10.7806 32.3201 7.25945 32.3201C3.73823 32.3201 0.883789 35.1659 0.883789 38.6763C0.883789 42.1867 3.73823 45.0325 7.25945 45.0325Z" fill="url(#paint6_linear_3_10134)"/>
</mask>
<g mask="url(#mask3_3_10134)">
<path d="M7.25945 45.0325C10.7806 45.0325 13.6351 42.1867 13.6351 38.6763C13.6351 35.1659 10.7806 32.3201 7.25945 32.3201C3.73823 32.3201 0.883789 35.1659 0.883789 38.6763C0.883789 42.1867 3.73823 45.0325 7.25945 45.0325Z" fill="url(#paint7_linear_3_10134)"/>
</g>
<mask id="mask4_3_10134" style="mask-type:alpha" maskUnits="userSpaceOnUse" x="37" y="32" width="14" height="14">
<path d="M44.1851 45.0325C47.7063 45.0325 50.5608 42.1867 50.5608 38.6763C50.5608 35.1659 47.7063 32.3201 44.1851 32.3201C40.664 32.3201 37.8096 35.1659 37.8096 38.6763C37.8096 42.1867 40.664 45.0325 44.1851 45.0325Z" fill="url(#paint8_linear_3_10134)"/>
</mask>
<g mask="url(#mask4_3_10134)">
<path d="M44.1851 45.0325C47.7063 45.0325 50.5608 42.1867 50.5608 38.6763C50.5608 35.1659 47.7063 32.3201 44.1851 32.3201C40.664 32.3201 37.8096 35.1659 37.8096 38.6763C37.8096 42.1867 40.664 45.0325 44.1851 45.0325Z" fill="url(#paint9_linear_3_10134)"/>
</g>
<mask id="mask5_3_10134" style="mask-type:alpha" maskUnits="userSpaceOnUse" x="74" y="32" width="14" height="14">
<path d="M81.111 45.0325C84.6321 45.0325 87.4867 42.1867 87.4867 38.6763C87.4867 35.1659 84.6321 32.3201 81.111 32.3201C77.5898 32.3201 74.7354 35.1659 74.7354 38.6763C74.7354 42.1867 77.5898 45.0325 81.111 45.0325Z" fill="url(#paint10_linear_3_10134)"/>
</mask>
<g mask="url(#mask5_3_10134)">
<path d="M81.111 45.0325C84.6321 45.0325 87.4867 42.1867 87.4867 38.6763C87.4867 35.1659 84.6321 32.3201 81.111 32.3201C77.5898 32.3201 74.7354 35.1659 74.7354 38.6763C74.7354 42.1867 77.5898 45.0325 81.111 45.0325Z" fill="url(#paint11_linear_3_10134)"/>
</g>
<mask id="mask6_3_10134" style="mask-type:alpha" maskUnits="userSpaceOnUse" x="0" y="64" width="14" height="13">
<path d="M7.25945 76.8798C10.7806 76.8798 13.6351 74.0341 13.6351 70.5236C13.6351 67.0131 10.7806 64.1673 7.25945 64.1673C3.73823 64.1673 0.883789 67.0131 0.883789 70.5236C0.883789 74.0341 3.73823 76.8798 7.25945 76.8798Z" fill="url(#paint12_linear_3_10134)"/>
</mask>
<g mask="url(#mask6_3_10134)">
<path d="M7.25945 76.8798C10.7806 76.8798 13.6351 74.0341 13.6351 70.5236C13.6351 67.0131 10.7806 64.1673 7.25945 64.1673C3.73823 64.1673 0.883789 67.0131 0.883789 70.5236C0.883789 74.0341 3.73823 76.8798 7.25945 76.8798Z" fill="url(#paint13_linear_3_10134)"/>
</g>
<mask id="mask7_3_10134" style="mask-type:alpha" maskUnits="userSpaceOnUse" x="37" y="64" width="14" height="13">
<path d="M44.1851 76.8798C47.7063 76.8798 50.5608 74.0341 50.5608 70.5236C50.5608 67.0131 47.7063 64.1673 44.1851 64.1673C40.664 64.1673 37.8096 67.0131 37.8096 70.5236C37.8096 74.0341 40.664 76.8798 44.1851 76.8798Z" fill="url(#paint14_linear_3_10134)"/>
</mask>
<g mask="url(#mask7_3_10134)">
<path d="M44.1851 76.8798C47.7063 76.8798 50.5608 74.0341 50.5608 70.5236C50.5608 67.0131 47.7063 64.1673 44.1851 64.1673C40.664 64.1673 37.8096 67.0131 37.8096 70.5236C37.8096 74.0341 40.664 76.8798 44.1851 76.8798Z" fill="url(#paint15_linear_3_10134)"/>
</g>
<mask id="mask8_3_10134" style="mask-type:alpha" maskUnits="userSpaceOnUse" x="74" y="64" width="14" height="13">
<path d="M81.111 76.8798C84.6321 76.8798 87.4867 74.0341 87.4867 70.5236C87.4867 67.0131 84.6321 64.1673 81.111 64.1673C77.5898 64.1673 74.7354 67.0131 74.7354 70.5236C74.7354 74.0341 77.5898 76.8798 81.111 76.8798Z" fill="url(#paint16_linear_3_10134)"/>
</mask>
<g mask="url(#mask8_3_10134)">
<path d="M81.111 76.8798C84.6321 76.8798 87.4867 74.0341 87.4867 70.5236C87.4867 67.0131 84.6321 64.1673 81.111 64.1673C77.5898 64.1673 74.7354 67.0131 74.7354 70.5236C74.7354 74.0341 77.5898 76.8798 81.111 76.8798Z" fill="url(#paint17_linear_3_10134)"/>
</g>
<mask id="mask9_3_10134" style="mask-type:alpha" maskUnits="userSpaceOnUse" x="0" y="96" width="14" height="13">
<path d="M7.25945 108.793C10.7806 108.793 13.6351 105.948 13.6351 102.437C13.6351 98.9266 10.7806 96.0809 7.25945 96.0809C3.73823 96.0809 0.883789 98.9266 0.883789 102.437C0.883789 105.948 3.73823 108.793 7.25945 108.793Z" fill="url(#paint18_linear_3_10134)"/>
</mask>
<g mask="url(#mask9_3_10134)">
<path d="M7.25945 108.793C10.7806 108.793 13.6351 105.948 13.6351 102.437C13.6351 98.9266 10.7806 96.0809 7.25945 96.0809C3.73823 96.0809 0.883789 98.9266 0.883789 102.437C0.883789 105.948 3.73823 108.793 7.25945 108.793Z" fill="url(#paint19_linear_3_10134)"/>
</g>
<mask id="mask10_3_10134" style="mask-type:alpha" maskUnits="userSpaceOnUse" x="37" y="96" width="14" height="13">
<path d="M44.1851 108.793C47.7063 108.793 50.5608 105.948 50.5608 102.437C50.5608 98.9266 47.7063 96.0809 44.1851 96.0809C40.664 96.0809 37.8096 98.9266 37.8096 102.437C37.8096 105.948 40.664 108.793 44.1851 108.793Z" fill="url(#paint20_linear_3_10134)"/>
</mask>
<g mask="url(#mask10_3_10134)">
<path d="M44.1851 108.793C47.7063 108.793 50.5608 105.948 50.5608 102.437C50.5608 98.9266 47.7063 96.0809 44.1851 96.0809C40.664 96.0809 37.8096 98.9266 37.8096 102.437C37.8096 105.948 40.664 108.793 44.1851 108.793Z" fill="url(#paint21_linear_3_10134)"/>
</g>
<mask id="mask11_3_10134" style="mask-type:alpha" maskUnits="userSpaceOnUse" x="74" y="96" width="14" height="13">
<path d="M81.111 108.793C84.6321 108.793 87.4867 105.948 87.4867 102.437C87.4867 98.9266 84.6321 96.0809 81.111 96.0809C77.5898 96.0809 74.7354 98.9266 74.7354 102.437C74.7354 105.948 77.5898 108.793 81.111 108.793Z" fill="url(#paint22_linear_3_10134)"/>
</mask>
<g mask="url(#mask11_3_10134)">
<path d="M81.111 108.793C84.6321 108.793 87.4867 105.948 87.4867 102.437C87.4867 98.9266 84.6321 96.0809 81.111 96.0809C77.5898 96.0809 74.7354 98.9266 74.7354 102.437C74.7354 105.948 77.5898 108.793 81.111 108.793Z" fill="url(#paint23_linear_3_10134)"/>
</g>
<mask id="mask12_3_10134" style="mask-type:alpha" maskUnits="userSpaceOnUse" x="0" y="127" width="14" height="14">
<path d="M7.25945 140.641C10.7806 140.641 13.6351 137.794 13.6351 134.285C13.6351 130.774 10.7806 127.928 7.25945 127.928C3.73823 127.928 0.883789 130.774 0.883789 134.285C0.883789 137.794 3.73823 140.641 7.25945 140.641Z" fill="url(#paint24_linear_3_10134)"/>
</mask>
<g mask="url(#mask12_3_10134)">
<path d="M7.25945 140.641C10.7806 140.641 13.6351 137.794 13.6351 134.285C13.6351 130.774 10.7806 127.928 7.25945 127.928C3.73823 127.928 0.883789 130.774 0.883789 134.285C0.883789 137.794 3.73823 140.641 7.25945 140.641Z" fill="url(#paint25_linear_3_10134)"/>
</g>
<mask id="mask13_3_10134" style="mask-type:alpha" maskUnits="userSpaceOnUse" x="37" y="127" width="14" height="14">
<path d="M44.1851 140.641C47.7063 140.641 50.5608 137.794 50.5608 134.285C50.5608 130.774 47.7063 127.928 44.1851 127.928C40.664 127.928 37.8096 130.774 37.8096 134.285C37.8096 137.794 40.664 140.641 44.1851 140.641Z" fill="url(#paint26_linear_3_10134)"/>
</mask>
<g mask="url(#mask13_3_10134)">
<path d="M44.1851 140.641C47.7063 140.641 50.5608 137.794 50.5608 134.285C50.5608 130.774 47.7063 127.928 44.1851 127.928C40.664 127.928 37.8096 130.774 37.8096 134.285C37.8096 137.794 40.664 140.641 44.1851 140.641Z" fill="url(#paint27_linear_3_10134)"/>
</g>
<mask id="mask14_3_10134" style="mask-type:alpha" maskUnits="userSpaceOnUse" x="74" y="127" width="14" height="14">
<path d="M81.111 140.641C84.6321 140.641 87.4867 137.794 87.4867 134.285C87.4867 130.774 84.6321 127.928 81.111 127.928C77.5898 127.928 74.7354 130.774 74.7354 134.285C74.7354 137.794 77.5898 140.641 81.111 140.641Z" fill="url(#paint28_linear_3_10134)"/>
</mask>
<g mask="url(#mask14_3_10134)">
<path d="M81.111 140.641C84.6321 140.641 87.4867 137.794 87.4867 134.285C87.4867 130.774 84.6321 127.928 81.111 127.928C77.5898 127.928 74.7354 130.774 74.7354 134.285C74.7354 137.794 77.5898 140.641 81.111 140.641Z" fill="url(#paint29_linear_3_10134)"/>
</g>
</g>
<defs>
<linearGradient id="paint0_linear_3_10134" x1="58.0053" y1="135.215" x2="-29.0639" y2="-86.4809" gradientUnits="userSpaceOnUse">
<stop/>
<stop offset="1" stop-color="white"/>
</linearGradient>
<linearGradient id="paint1_linear_3_10134" x1="58.0053" y1="135.215" x2="-29.0639" y2="-86.4809" gradientUnits="userSpaceOnUse">
<stop stop-color="#97C3F9"/>
<stop offset="1" stop-color="#93C1F9"/>
</linearGradient>
<linearGradient id="paint2_linear_3_10134" x1="89.9596" y1="122.666" x2="2.89035" y2="-99.0311" gradientUnits="userSpaceOnUse">
<stop/>
<stop offset="1" stop-color="white"/>
</linearGradient>
<linearGradient id="paint3_linear_3_10134" x1="89.9596" y1="122.666" x2="2.89035" y2="-99.0311" gradientUnits="userSpaceOnUse">
<stop stop-color="#97C3F9"/>
<stop offset="1" stop-color="#93C1F9"/>
</linearGradient>
<linearGradient id="paint4_linear_3_10134" x1="121.914" y1="110.116" x2="34.8449" y2="-111.581" gradientUnits="userSpaceOnUse">
<stop/>
<stop offset="1" stop-color="white"/>
</linearGradient>
<linearGradient id="paint5_linear_3_10134" x1="121.914" y1="110.116" x2="34.8449" y2="-111.581" gradientUnits="userSpaceOnUse">
<stop stop-color="#97C3F9"/>
<stop offset="1" stop-color="#93C1F9"/>
</linearGradient>
<linearGradient id="paint6_linear_3_10134" x1="47.1005" y1="139.497" x2="-39.9672" y2="-82.198" gradientUnits="userSpaceOnUse">
<stop/>
<stop offset="1" stop-color="white"/>
</linearGradient>
<linearGradient id="paint7_linear_3_10134" x1="47.1005" y1="139.497" x2="-39.9672" y2="-82.198" gradientUnits="userSpaceOnUse">
<stop stop-color="#97C3F9"/>
<stop offset="1" stop-color="#93C1F9"/>
</linearGradient>
<linearGradient id="paint8_linear_3_10134" x1="79.0549" y1="126.948" x2="-8.01282" y2="-94.7478" gradientUnits="userSpaceOnUse">
<stop/>
<stop offset="1" stop-color="white"/>
</linearGradient>
<linearGradient id="paint9_linear_3_10134" x1="79.0549" y1="126.948" x2="-8.01282" y2="-94.7478" gradientUnits="userSpaceOnUse">
<stop stop-color="#97C3F9"/>
<stop offset="1" stop-color="#93C1F9"/>
</linearGradient>
<linearGradient id="paint10_linear_3_10134" x1="111.01" y1="114.398" x2="23.9419" y2="-107.297" gradientUnits="userSpaceOnUse">
<stop/>
<stop offset="1" stop-color="white"/>
</linearGradient>
<linearGradient id="paint11_linear_3_10134" x1="111.01" y1="114.398" x2="23.9419" y2="-107.297" gradientUnits="userSpaceOnUse">
<stop stop-color="#97C3F9"/>
<stop offset="1" stop-color="#93C1F9"/>
</linearGradient>
<linearGradient id="paint12_linear_3_10134" x1="36.1959" y1="143.781" x2="-50.8732" y2="-77.9161" gradientUnits="userSpaceOnUse">
<stop/>
<stop offset="1" stop-color="white"/>
</linearGradient>
<linearGradient id="paint13_linear_3_10134" x1="36.1959" y1="143.781" x2="-50.8732" y2="-77.9161" gradientUnits="userSpaceOnUse">
<stop stop-color="#97C3F9"/>
<stop offset="1" stop-color="#93C1F9"/>
</linearGradient>
<linearGradient id="paint14_linear_3_10134" x1="68.1503" y1="131.23" x2="-18.9189" y2="-90.4661" gradientUnits="userSpaceOnUse">
<stop/>
<stop offset="1" stop-color="white"/>
</linearGradient>
<linearGradient id="paint15_linear_3_10134" x1="68.1503" y1="131.23" x2="-18.9189" y2="-90.4661" gradientUnits="userSpaceOnUse">
<stop stop-color="#97C3F9"/>
<stop offset="1" stop-color="#93C1F9"/>
</linearGradient>
<linearGradient id="paint16_linear_3_10134" x1="100.105" y1="118.681" x2="13.0357" y2="-103.016" gradientUnits="userSpaceOnUse">
<stop/>
<stop offset="1" stop-color="white"/>
</linearGradient>
<linearGradient id="paint17_linear_3_10134" x1="100.105" y1="118.681" x2="13.0357" y2="-103.016" gradientUnits="userSpaceOnUse">
<stop stop-color="#97C3F9"/>
<stop offset="1" stop-color="#93C1F9"/>
</linearGradient>
<linearGradient id="paint18_linear_3_10134" x1="25.2913" y1="148.063" x2="-61.7777" y2="-73.6334" gradientUnits="userSpaceOnUse">
<stop/>
<stop offset="1" stop-color="white"/>
</linearGradient>
<linearGradient id="paint19_linear_3_10134" x1="25.2913" y1="148.063" x2="-61.7777" y2="-73.6334" gradientUnits="userSpaceOnUse">
<stop stop-color="#97C3F9"/>
<stop offset="1" stop-color="#93C1F9"/>
</linearGradient>
<linearGradient id="paint20_linear_3_10134" x1="57.2457" y1="135.514" x2="-29.8235" y2="-86.1833" gradientUnits="userSpaceOnUse">
<stop/>
<stop offset="1" stop-color="white"/>
</linearGradient>
<linearGradient id="paint21_linear_3_10134" x1="57.2457" y1="135.514" x2="-29.8235" y2="-86.1833" gradientUnits="userSpaceOnUse">
<stop stop-color="#97C3F9"/>
<stop offset="1" stop-color="#93C1F9"/>
</linearGradient>
<linearGradient id="paint22_linear_3_10134" x1="89.2003" y1="122.964" x2="2.1311" y2="-98.7332" gradientUnits="userSpaceOnUse">
<stop/>
<stop offset="1" stop-color="white"/>
</linearGradient>
<linearGradient id="paint23_linear_3_10134" x1="89.2003" y1="122.964" x2="2.1311" y2="-98.7332" gradientUnits="userSpaceOnUse">
<stop stop-color="#97C3F9"/>
<stop offset="1" stop-color="#93C1F9"/>
</linearGradient>
<linearGradient id="paint24_linear_3_10134" x1="14.3868" y1="152.346" x2="-72.6825" y2="-69.3506" gradientUnits="userSpaceOnUse">
<stop/>
<stop offset="1" stop-color="white"/>
</linearGradient>
<linearGradient id="paint25_linear_3_10134" x1="14.3868" y1="152.346" x2="-72.6825" y2="-69.3506" gradientUnits="userSpaceOnUse">
<stop stop-color="#97C3F9"/>
<stop offset="1" stop-color="#93C1F9"/>
</linearGradient>
<linearGradient id="paint26_linear_3_10134" x1="46.3412" y1="139.797" x2="-40.7281" y2="-81.9006" gradientUnits="userSpaceOnUse">
<stop/>
<stop offset="1" stop-color="white"/>
</linearGradient>
<linearGradient id="paint27_linear_3_10134" x1="46.3412" y1="139.797" x2="-40.7281" y2="-81.9006" gradientUnits="userSpaceOnUse">
<stop stop-color="#97C3F9"/>
<stop offset="1" stop-color="#93C1F9"/>
</linearGradient>
<linearGradient id="paint28_linear_3_10134" x1="78.2957" y1="127.246" x2="-8.77352" y2="-94.4504" gradientUnits="userSpaceOnUse">
<stop/>
<stop offset="1" stop-color="white"/>
</linearGradient>
<linearGradient id="paint29_linear_3_10134" x1="78.2957" y1="127.246" x2="-8.77352" y2="-94.4504" gradientUnits="userSpaceOnUse">
<stop stop-color="#97C3F9"/>
<stop offset="1" stop-color="#93C1F9"/>
</linearGradient>
</defs>
</svg>
