<svg width="1800" height="1811" viewBox="0 0 1800 1811" fill="none" xmlns="http://www.w3.org/2000/svg">
<g clip-path="url(#clip0_0_1)">
<path d="M464.5 11.7969C467.538 11.7969 470 9.33444 470 6.29688C470 3.25931 467.538 0.796875 464.5 0.796875C461.462 0.796875 459 3.25931 459 6.29688C459 9.33444 461.462 11.7969 464.5 11.7969Z" fill="#199886"/>
<path d="M5.5 17.7969C8.53757 17.7969 11 15.3344 11 12.2969C11 9.25931 8.53757 6.79688 5.5 6.79688C2.46243 6.79688 0 9.25931 0 12.2969C0 15.3344 2.46243 17.7969 5.5 17.7969Z" fill="#199886"/>
<path d="M597.5 90.7969C600.538 90.7969 603 88.3344 603 85.2969C603 82.2593 600.538 79.7969 597.5 79.7969C594.462 79.7969 592 82.2593 592 85.2969C592 88.3344 594.462 90.7969 597.5 90.7969Z" fill="#FF6584"/>
<path d="M807.5 63.7969C810.538 63.7969 813 61.3344 813 58.2969C813 55.2593 810.538 52.7969 807.5 52.7969C804.462 52.7969 802 55.2593 802 58.2969C802 61.3344 804.462 63.7969 807.5 63.7969Z" fill="#199886"/>
<path d="M872.5 22.7969C875.538 22.7969 878 20.3344 878 17.2969C878 14.2593 875.538 11.7969 872.5 11.7969C869.462 11.7969 867 14.2593 867 17.2969C867 20.3344 869.462 22.7969 872.5 22.7969Z" fill="#FFCE1F"/>
<path d="M1234.5 184.797C1237.54 184.797 1240 182.334 1240 179.297C1240 176.259 1237.54 173.797 1234.5 173.797C1231.46 173.797 1229 176.259 1229 179.297C1229 182.334 1231.46 184.797 1234.5 184.797Z" fill="#FFCE1F"/>
<path d="M255.5 716.797C258.538 716.797 261 714.334 261 711.297C261 708.259 258.538 705.797 255.5 705.797C252.462 705.797 250 708.259 250 711.297C250 714.334 252.462 716.797 255.5 716.797Z" fill="#FFCE1F"/>
<path d="M1095.5 627.797C1098.54 627.797 1101 625.334 1101 622.297C1101 619.259 1098.54 616.797 1095.5 616.797C1092.46 616.797 1090 619.259 1090 622.297C1090 625.334 1092.46 627.797 1095.5 627.797Z" fill="#FFCE1F"/>
<path d="M32.5 1238.8C35.5376 1238.8 38 1236.33 38 1233.3C38 1230.26 35.5376 1227.8 32.5 1227.8C29.4624 1227.8 27 1230.26 27 1233.3C27 1236.33 29.4624 1238.8 32.5 1238.8Z" fill="#FF6584"/>
<path d="M95.5 776.797C98.5376 776.797 101 774.334 101 771.297C101 768.259 98.5376 765.797 95.5 765.797C92.4624 765.797 90 768.259 90 771.297C90 774.334 92.4624 776.797 95.5 776.797Z" fill="#FFCE1F"/>
</g>
<g clip-path="url(#clip1_0_1)">
<path d="M464.5 583.047C467.538 583.047 470 580.584 470 577.547C470 574.509 467.538 572.047 464.5 572.047C461.462 572.047 459 574.509 459 577.547C459 580.584 461.462 583.047 464.5 583.047Z" fill="#199886"/>
<path d="M5.5 589.047C8.53757 589.047 11 586.584 11 583.547C11 580.509 8.53757 578.047 5.5 578.047C2.46243 578.047 0 580.509 0 583.547C0 586.584 2.46243 589.047 5.5 589.047Z" fill="#199886"/>
<path d="M597.5 662.047C600.538 662.047 603 659.584 603 656.547C603 653.509 600.538 651.047 597.5 651.047C594.462 651.047 592 653.509 592 656.547C592 659.584 594.462 662.047 597.5 662.047Z" fill="#FF6584"/>
<path d="M807.5 635.047C810.538 635.047 813 632.584 813 629.547C813 626.509 810.538 624.047 807.5 624.047C804.462 624.047 802 626.509 802 629.547C802 632.584 804.462 635.047 807.5 635.047Z" fill="#199886"/>
<path d="M872.5 594.047C875.538 594.047 878 591.584 878 588.547C878 585.509 875.538 583.047 872.5 583.047C869.462 583.047 867 585.509 867 588.547C867 591.584 869.462 594.047 872.5 594.047Z" fill="#FFCE1F"/>
<path d="M1234.5 756.047C1237.54 756.047 1240 753.584 1240 750.547C1240 747.509 1237.54 745.047 1234.5 745.047C1231.46 745.047 1229 747.509 1229 750.547C1229 753.584 1231.46 756.047 1234.5 756.047Z" fill="#FFCE1F"/>
<path d="M255.5 1288.05C258.538 1288.05 261 1285.58 261 1282.55C261 1279.51 258.538 1277.05 255.5 1277.05C252.462 1277.05 250 1279.51 250 1282.55C250 1285.58 252.462 1288.05 255.5 1288.05Z" fill="#FFCE1F"/>
<path d="M1095.5 1199.05C1098.54 1199.05 1101 1196.58 1101 1193.55C1101 1190.51 1098.54 1188.05 1095.5 1188.05C1092.46 1188.05 1090 1190.51 1090 1193.55C1090 1196.58 1092.46 1199.05 1095.5 1199.05Z" fill="#FFCE1F"/>
<path d="M32.5 1810.05C35.5376 1810.05 38 1807.58 38 1804.55C38 1801.51 35.5376 1799.05 32.5 1799.05C29.4624 1799.05 27 1801.51 27 1804.55C27 1807.58 29.4624 1810.05 32.5 1810.05Z" fill="#FF6584"/>
<path d="M95.5 1348.05C98.5376 1348.05 101 1345.58 101 1342.55C101 1339.51 98.5376 1337.05 95.5 1337.05C92.4624 1337.05 90 1339.51 90 1342.55C90 1345.58 92.4624 1348.05 95.5 1348.05Z" fill="#FFCE1F"/>
</g>
<g clip-path="url(#clip2_0_1)">
<path d="M504.025 1247.67C507.887 1247.67 511.017 1244.54 511.017 1240.68C511.017 1236.82 507.887 1233.69 504.025 1233.69C500.164 1233.69 497.034 1236.82 497.034 1240.68C497.034 1244.54 500.164 1247.67 504.025 1247.67Z" fill="#FFCE1F"/>
<path d="M163.347 1313.77C167.209 1313.77 170.339 1310.64 170.339 1306.78C170.339 1302.92 167.209 1299.79 163.347 1299.79C159.486 1299.79 156.356 1302.92 156.356 1306.78C156.356 1310.64 159.486 1313.77 163.347 1313.77Z" fill="#FFCE1F"/>
<path d="M6.99153 1621.4C10.8528 1621.4 13.9831 1618.27 13.9831 1614.41C13.9831 1610.55 10.8528 1607.42 6.99153 1607.42C3.13021 1607.42 0 1610.55 0 1614.41C0 1618.27 3.13021 1621.4 6.99153 1621.4Z" fill="#FFCE1F"/>
<path d="M65.4661 1668.43C69.3274 1668.43 72.4577 1665.3 72.4577 1661.44C72.4577 1657.58 69.3274 1654.45 65.4661 1654.45C61.6048 1654.45 58.4746 1657.58 58.4746 1661.44C58.4746 1665.3 61.6048 1668.43 65.4661 1668.43Z" fill="#FFCE1F"/>
<path d="M648.941 1204.45C652.802 1204.45 655.932 1201.32 655.932 1197.46C655.932 1193.6 652.802 1190.47 648.941 1190.47C645.079 1190.47 641.949 1193.6 641.949 1197.46C641.949 1201.32 645.079 1204.45 648.941 1204.45Z" fill="#FFCE1F"/>
<path d="M1655.72 1283.26C1659.58 1283.26 1662.71 1280.13 1662.71 1276.27C1662.71 1272.41 1659.58 1269.28 1655.72 1269.28C1651.86 1269.28 1648.73 1272.41 1648.73 1276.27C1648.73 1280.13 1651.86 1283.26 1655.72 1283.26Z" fill="#FF3535"/>
<path d="M994.703 1306.15C998.565 1306.15 1001.69 1303.02 1001.69 1299.15C1001.69 1295.29 998.565 1292.16 994.703 1292.16C990.842 1292.16 987.712 1295.29 987.712 1299.15C987.712 1303.02 990.842 1306.15 994.703 1306.15Z" fill="#FF3535"/>
<path d="M1166.31 1190.47C1170.18 1190.47 1173.31 1187.34 1173.31 1183.48C1173.31 1179.61 1170.18 1176.48 1166.31 1176.48C1162.45 1176.48 1159.32 1179.61 1159.32 1183.48C1159.32 1187.34 1162.45 1190.47 1166.31 1190.47Z" fill="#FF3535"/>
<path d="M1223.52 1240.04C1227.38 1240.04 1230.51 1236.91 1230.51 1233.05C1230.51 1229.19 1227.38 1226.06 1223.52 1226.06C1219.66 1226.06 1216.53 1229.19 1216.53 1233.05C1216.53 1236.91 1219.66 1240.04 1223.52 1240.04Z" fill="#FF3535"/>
<path d="M1793.01 1405.3C1796.87 1405.3 1800 1402.17 1800 1398.31C1800 1394.45 1796.87 1391.31 1793.01 1391.31C1789.15 1391.31 1786.02 1394.45 1786.02 1398.31C1786.02 1402.17 1789.15 1405.3 1793.01 1405.3Z" fill="#FF3535"/>
<path d="M1752.33 1452.33C1756.19 1452.33 1759.32 1449.2 1759.32 1445.34C1759.32 1441.48 1756.19 1438.35 1752.33 1438.35C1748.47 1438.35 1745.34 1441.48 1745.34 1445.34C1745.34 1449.2 1748.47 1452.33 1752.33 1452.33Z" fill="#FF6584"/>
</g>
<defs>
<clipPath id="clip0_0_1">
<rect width="1240" height="1238" fill="white" transform="translate(0 0.796875)"/>
</clipPath>
<clipPath id="clip1_0_1">
<rect width="1240" height="1238" fill="white" transform="translate(0 572.047)"/>
</clipPath>
<clipPath id="clip2_0_1">
<rect width="1800" height="491.949" fill="white" transform="translate(0 1176.48)"/>
</clipPath>
</defs>
</svg>
