<svg width="1800" height="493" viewBox="0 0 1800 493" fill="none" xmlns="http://www.w3.org/2000/svg">
<path d="M504.025 71.6708C507.887 71.6708 511.017 68.5406 511.017 64.6793C511.017 60.818 507.887 57.6877 504.025 57.6877C500.164 57.6877 497.034 60.818 497.034 64.6793C497.034 68.5406 500.164 71.6708 504.025 71.6708Z" fill="#FFCE1F"/>
<path d="M163.347 137.773C167.209 137.773 170.339 134.642 170.339 130.781C170.339 126.92 167.209 123.79 163.347 123.79C159.486 123.79 156.356 126.92 156.356 130.781C156.356 134.642 159.486 137.773 163.347 137.773Z" fill="#FFCE1F"/>
<path d="M6.99153 445.4C10.8528 445.4 13.9831 442.269 13.9831 438.408C13.9831 434.547 10.8528 431.417 6.99153 431.417C3.13021 431.417 0 434.547 0 438.408C0 442.269 3.13021 445.4 6.99153 445.4Z" fill="#FFCE1F"/>
<path d="M65.4661 492.433C69.3274 492.433 72.4577 489.303 72.4577 485.442C72.4577 481.581 69.3274 478.45 65.4661 478.45C61.6048 478.45 58.4746 481.581 58.4746 485.442C58.4746 489.303 61.6048 492.433 65.4661 492.433Z" fill="#FFCE1F"/>
<path d="M648.941 28.4506C652.802 28.4506 655.932 25.3204 655.932 21.4591C655.932 17.5977 652.802 14.4675 648.941 14.4675C645.079 14.4675 641.949 17.5977 641.949 21.4591C641.949 25.3204 645.079 28.4506 648.941 28.4506Z" fill="#FFCE1F"/>
<path d="M1655.72 107.264C1659.58 107.264 1662.71 104.134 1662.71 100.273C1662.71 96.4112 1659.58 93.281 1655.72 93.281C1651.86 93.281 1648.73 96.4112 1648.73 100.273C1648.73 104.134 1651.86 107.264 1655.72 107.264Z" fill="#FF3535"/>
<path d="M994.703 130.145C998.565 130.145 1001.69 127.015 1001.69 123.154C1001.69 119.293 998.565 116.162 994.703 116.162C990.842 116.162 987.712 119.293 987.712 123.154C987.712 127.015 990.842 130.145 994.703 130.145Z" fill="#FF3535"/>
<path d="M1166.31 14.4674C1170.18 14.4674 1173.31 11.3372 1173.31 7.4759C1173.31 3.61459 1170.18 0.484375 1166.31 0.484375C1162.45 0.484375 1159.32 3.61459 1159.32 7.4759C1159.32 11.3372 1162.45 14.4674 1166.31 14.4674Z" fill="#FF3535"/>
<path d="M1223.52 64.0436C1227.38 64.0436 1230.51 60.9134 1230.51 57.0521C1230.51 53.1908 1227.38 50.0605 1223.52 50.0605C1219.66 50.0605 1216.53 53.1908 1216.53 57.0521C1216.53 60.9134 1219.66 64.0436 1223.52 64.0436Z" fill="#FF3535"/>
<path d="M1793.01 229.298C1796.87 229.298 1800 226.168 1800 222.306C1800 218.445 1796.87 215.315 1793.01 215.315C1789.15 215.315 1786.02 218.445 1786.02 222.306C1786.02 226.168 1789.15 229.298 1793.01 229.298Z" fill="#FF3535"/>
<path d="M1752.33 276.332C1756.19 276.332 1759.32 273.202 1759.32 269.34C1759.32 265.479 1756.19 262.349 1752.33 262.349C1748.47 262.349 1745.34 265.479 1745.34 269.34C1745.34 273.202 1748.47 276.332 1752.33 276.332Z" fill="#FF6584"/>
</svg>
