<svg width="89" height="23" viewBox="0 0 89 23" fill="none" xmlns="http://www.w3.org/2000/svg">
<g opacity="0.5">
<path d="M39.692 15.74V9.552C39.692 9.36533 39.664 9.24867 39.608 9.202C39.552 9.146 39.4353 9.118 39.258 9.118H36.416V16.174H39.258C39.4353 16.174 39.552 16.1507 39.608 16.104C39.664 16.048 39.692 15.9267 39.692 15.74ZM34.148 8.292H40.854C41.5913 8.292 41.96 8.66067 41.96 9.398V15.894C41.96 16.6313 41.5913 17 40.854 17H34.148V8.292ZM46.2978 17H44.1278V10.21H46.2978V17ZM44.0858 9.076V7.62H46.3398V9.076H44.0858ZM52.8842 15.754V14.466C52.8842 14.2887 52.8562 14.172 52.8002 14.116C52.7535 14.06 52.6368 14.032 52.4502 14.032H49.3562C48.6188 14.032 48.2502 13.6633 48.2502 12.926V11.316C48.2502 10.5787 48.6188 10.21 49.3562 10.21H53.8502C54.5875 10.21 54.9562 10.5787 54.9562 11.316V12.24H52.8562V11.456C52.8562 11.2693 52.8282 11.1527 52.7722 11.106C52.7255 11.05 52.6088 11.022 52.4222 11.022H50.8402C50.6628 11.022 50.5462 11.05 50.4902 11.106C50.4342 11.1527 50.4062 11.2693 50.4062 11.456V12.772C50.4062 12.9587 50.4342 13.08 50.4902 13.136C50.5462 13.1827 50.6628 13.206 50.8402 13.206H53.9342C54.6715 13.206 55.0402 13.5747 55.0402 14.312V15.894C55.0402 16.6313 54.6715 17 53.9342 17H49.3982C48.6608 17 48.2922 16.6313 48.2922 15.894V14.97H50.4062V15.754C50.4062 15.9313 50.4342 16.048 50.4902 16.104C50.5462 16.16 50.6628 16.188 50.8402 16.188H52.4502C52.6368 16.188 52.7535 16.16 52.8002 16.104C52.8562 16.048 52.8842 15.9313 52.8842 15.754ZM63.7424 12.576H61.6284V11.47C61.6284 11.2927 61.6004 11.176 61.5444 11.12C61.4977 11.064 61.381 11.036 61.1944 11.036H59.3464C59.1597 11.036 59.0384 11.064 58.9824 11.12C58.9357 11.176 58.9124 11.2927 58.9124 11.47V15.74C58.9124 15.9267 58.9357 16.048 58.9824 16.104C59.0384 16.1507 59.1597 16.174 59.3464 16.174H61.1944C61.381 16.174 61.4977 16.1507 61.5444 16.104C61.6004 16.048 61.6284 15.9267 61.6284 15.74V14.662H63.7424V15.894C63.7424 16.6313 63.3737 17 62.6364 17H57.8624C57.125 17 56.7564 16.6313 56.7564 15.894V11.316C56.7564 10.5787 57.125 10.21 57.8624 10.21H62.6364C63.3737 10.21 63.7424 10.5787 63.7424 11.316V12.576ZM70.3956 15.74V11.47C70.3956 11.2927 70.3676 11.176 70.3116 11.12C70.2556 11.064 70.139 11.036 69.9616 11.036H67.9596C67.773 11.036 67.6516 11.064 67.5956 11.12C67.549 11.176 67.5256 11.2927 67.5256 11.47V15.74C67.5256 15.9267 67.549 16.048 67.5956 16.104C67.6516 16.1507 67.773 16.174 67.9596 16.174H69.9616C70.139 16.174 70.2556 16.1507 70.3116 16.104C70.3676 16.048 70.3956 15.9267 70.3956 15.74ZM66.4756 10.21H71.4456C72.183 10.21 72.5516 10.5787 72.5516 11.316V15.894C72.5516 16.6313 72.183 17 71.4456 17H66.4756C65.7383 17 65.3696 16.6313 65.3696 15.894V11.316C65.3696 10.5787 65.7383 10.21 66.4756 10.21ZM78.1021 10.196H79.1661V11.12H77.6961C77.0334 11.12 76.7021 11.4747 76.7021 12.184V17H74.5321V10.21H76.7021V11.036C76.8888 10.476 77.3554 10.196 78.1021 10.196ZM82.8073 16.174H84.6973C85.0333 16.174 85.2013 16.0247 85.2013 15.726V11.484C85.2013 11.1853 85.0333 11.036 84.6973 11.036H82.8073C82.6206 11.036 82.4993 11.064 82.4433 11.12C82.3966 11.176 82.3733 11.2927 82.3733 11.47V15.74C82.3733 15.9267 82.3966 16.048 82.4433 16.104C82.4993 16.1507 82.6206 16.174 82.8073 16.174ZM85.2013 7.634H87.3573V17H85.2013V16.538C85.0893 16.846 84.8233 17 84.4033 17H81.3233C80.586 17 80.2173 16.6313 80.2173 15.894V11.316C80.2173 10.5787 80.586 10.21 81.3233 10.21H84.4033C84.8233 10.21 85.0893 10.364 85.2013 10.672V7.634Z" fill="#11101C"/>
<g clip-path="url(#clip0_1_9354)">
<path d="M19.4704 4.18793C18.0042 3.51518 16.4325 3.01972 14.789 2.73606C14.7593 2.73031 14.7295 2.74468 14.7133 2.77152C14.511 3.13089 14.2868 3.60047 14.1306 3.96847C12.3625 3.70397 10.6039 3.70397 8.87221 3.96847C8.716 3.59185 8.48313 3.13089 8.28092 2.77152C8.26463 2.74468 8.23492 2.73127 8.20521 2.73606C6.56263 3.01877 4.99096 3.51422 3.52375 4.18793C3.51129 4.19272 3.49979 4.20231 3.49309 4.21381C0.511711 8.66814 -0.305747 13.0132 0.0948366 17.3046C0.0967532 17.3257 0.108253 17.3459 0.124545 17.3583C2.092 18.8035 3.99717 19.6804 5.86784 20.2611C5.89754 20.2707 5.92917 20.2592 5.94834 20.2343C6.39109 19.6305 6.78496 18.9932 7.12325 18.3234C7.14338 18.2841 7.12421 18.2371 7.083 18.2218C6.45721 17.9841 5.86209 17.6947 5.289 17.3669C5.24396 17.3401 5.24013 17.2759 5.28134 17.2443C5.40209 17.1542 5.52284 17.0603 5.63784 16.9654C5.65892 16.9481 5.68767 16.9443 5.71259 16.9558C9.47692 18.6741 13.5518 18.6741 17.271 16.9558C17.296 16.9443 17.3247 16.9472 17.3468 16.9654C17.4618 17.0603 17.5825 17.1551 17.7042 17.2452C17.7464 17.2759 17.7435 17.3411 17.6975 17.3679C17.1244 17.7023 16.5293 17.986 15.9025 18.2218C15.8613 18.2371 15.8441 18.285 15.8633 18.3243C16.2083 18.9932 16.6031 19.6305 17.0372 20.2343C17.0554 20.2601 17.088 20.2707 17.1177 20.2621C18.997 19.6804 20.9031 18.8035 22.8696 17.3593C22.8869 17.3468 22.8974 17.3276 22.8993 17.3066C23.3785 12.3453 22.0963 8.03564 19.4992 4.21572C19.4944 4.20231 19.4829 4.19272 19.4704 4.18793ZM7.68579 14.6922C6.55209 14.6922 5.61867 13.6515 5.61867 12.374C5.61867 11.0966 6.53388 10.0558 7.68579 10.0558C8.84634 10.0558 9.77113 11.1052 9.75292 12.374C9.75292 13.6524 8.83675 14.6922 7.68579 14.6922ZM15.3285 14.6922C14.1958 14.6922 13.2614 13.6515 13.2614 12.374C13.2614 11.0966 14.1766 10.0558 15.3285 10.0558C16.489 10.0558 17.4138 11.1052 17.3956 12.374C17.3956 13.6524 16.489 14.6922 15.3285 14.6922Z" fill="#11101C"/>
</g>
</g>
<defs>
<clipPath id="clip0_1_9354">
<rect width="23" height="23" fill="white"/>
</clipPath>
</defs>
</svg>
