<svg width="96" height="23" viewBox="0 0 96 23" fill="none" xmlns="http://www.w3.org/2000/svg">
<g opacity="0.5">
<path d="M32.2313 9.118H27.8913V12.464H31.6853V13.29H27.8913V17H25.5533V8.292H32.2313V9.118ZM36.1501 16.174H38.0401C38.3761 16.174 38.5441 16.0247 38.5441 15.726V11.484C38.5441 11.1853 38.3761 11.036 38.0401 11.036H36.1501C35.9634 11.036 35.8421 11.064 35.7861 11.12C35.7394 11.176 35.7161 11.2927 35.7161 11.47V15.74C35.7161 15.9267 35.7394 16.048 35.7861 16.104C35.8421 16.1507 35.9634 16.174 36.1501 16.174ZM38.5441 10.21H40.7001V17H38.5441V16.538C38.4321 16.846 38.1661 17 37.7461 17H34.6661C33.9287 17 33.5601 16.6313 33.5601 15.894V11.316C33.5601 10.5787 33.9287 10.21 34.6661 10.21H37.7461C38.1661 10.21 38.4321 10.364 38.5441 10.672V10.21ZM49.6652 12.576H47.5512V11.47C47.5512 11.2927 47.5232 11.176 47.4672 11.12C47.4205 11.064 47.3039 11.036 47.1172 11.036H45.2692C45.0825 11.036 44.9612 11.064 44.9052 11.12C44.8585 11.176 44.8352 11.2927 44.8352 11.47V15.74C44.8352 15.9267 44.8585 16.048 44.9052 16.104C44.9612 16.1507 45.0825 16.174 45.2692 16.174H47.1172C47.3039 16.174 47.4205 16.1507 47.4672 16.104C47.5232 16.048 47.5512 15.9267 47.5512 15.74V14.662H49.6652V15.894C49.6652 16.6313 49.2965 17 48.5592 17H43.7852C43.0479 17 42.6792 16.6313 42.6792 15.894V11.316C42.6792 10.5787 43.0479 10.21 43.7852 10.21H48.5592C49.2965 10.21 49.6652 10.5787 49.6652 11.316V12.576ZM53.4485 13.108H56.4725V11.47C56.4725 11.2927 56.4445 11.176 56.3885 11.12C56.3418 11.064 56.2252 11.036 56.0385 11.036H53.8825C53.6958 11.036 53.5745 11.064 53.5185 11.12C53.4718 11.176 53.4485 11.2927 53.4485 11.47V13.108ZM52.3985 10.21H57.4665C58.2038 10.21 58.5725 10.5787 58.5725 11.316V13.934H53.4485V15.74C53.4485 15.9267 53.4718 16.048 53.5185 16.104C53.5745 16.1507 53.6958 16.174 53.8825 16.174H56.0105C56.1972 16.174 56.3138 16.1507 56.3605 16.104C56.4165 16.048 56.4445 15.9267 56.4445 15.74V14.914H58.5445V15.894C58.5445 16.6313 58.1758 17 57.4385 17H52.3985C51.6612 17 51.2925 16.6313 51.2925 15.894V11.316C51.2925 10.5787 51.6612 10.21 52.3985 10.21ZM65.4253 15.74V11.47C65.4253 11.2927 65.3973 11.176 65.3413 11.12C65.2853 11.064 65.1686 11.036 64.9913 11.036H63.1153C62.7886 11.036 62.6253 11.1853 62.6253 11.484V11.918H62.6113V15.376H62.6253V15.726C62.6253 16.0247 62.7886 16.174 63.1153 16.174H64.9913C65.1686 16.174 65.2853 16.1507 65.3413 16.104C65.3973 16.048 65.4253 15.9267 65.4253 15.74ZM63.4093 10.21H66.4893C67.2266 10.21 67.5953 10.5787 67.5953 11.316V15.894C67.5953 16.6313 67.2266 17 66.4893 17H63.4093C62.9893 17 62.7233 16.846 62.6113 16.538V17H60.4413V7.634H62.6113V10.672C62.7233 10.364 62.9893 10.21 63.4093 10.21ZM74.4884 15.74V11.47C74.4884 11.2927 74.4604 11.176 74.4044 11.12C74.3484 11.064 74.2317 11.036 74.0544 11.036H72.0524C71.8657 11.036 71.7444 11.064 71.6884 11.12C71.6417 11.176 71.6184 11.2927 71.6184 11.47V15.74C71.6184 15.9267 71.6417 16.048 71.6884 16.104C71.7444 16.1507 71.8657 16.174 72.0524 16.174H74.0544C74.2317 16.174 74.3484 16.1507 74.4044 16.104C74.4604 16.048 74.4884 15.9267 74.4884 15.74ZM70.5684 10.21H75.5384C76.2757 10.21 76.6444 10.5787 76.6444 11.316V15.894C76.6444 16.6313 76.2757 17 75.5384 17H70.5684C69.8311 17 69.4624 16.6313 69.4624 15.894V11.316C69.4624 10.5787 69.8311 10.21 70.5684 10.21ZM83.5529 15.74V11.47C83.5529 11.2927 83.5249 11.176 83.4689 11.12C83.4129 11.064 83.2962 11.036 83.1189 11.036H81.1169C80.9302 11.036 80.8089 11.064 80.7529 11.12C80.7062 11.176 80.6829 11.2927 80.6829 11.47V15.74C80.6829 15.9267 80.7062 16.048 80.7529 16.104C80.8089 16.1507 80.9302 16.174 81.1169 16.174H83.1189C83.2962 16.174 83.4129 16.1507 83.4689 16.104C83.5249 16.048 83.5529 15.9267 83.5529 15.74ZM79.6329 10.21H84.6029C85.3402 10.21 85.7089 10.5787 85.7089 11.316V15.894C85.7089 16.6313 85.3402 17 84.6029 17H79.6329C78.8955 17 78.5269 16.6313 78.5269 15.894V11.316C78.5269 10.5787 78.8955 10.21 79.6329 10.21ZM87.6893 17V7.634H89.8593V17H87.6893ZM95.3333 10.21L92.3793 13.57L95.3333 17H92.9533L90.0973 13.57L92.9673 10.21H95.3333Z" fill="#11101C"/>
<path d="M12.2124 12.9375L12.8345 8.77504H8.94472V6.07389C8.94472 4.93512 9.4881 3.8251 11.2302 3.8251H12.9986V0.281211C12.9986 0.281211 11.3939 0 9.85954 0C6.65616 0 4.56228 1.99363 4.56228 5.60266V8.77504H1.00146V12.9375H4.56228V23H8.94472V12.9375H12.2124Z" fill="#11101C"/>
</g>
</svg>
