<svg width="107" height="23" viewBox="0 0 107 23" fill="none" xmlns="http://www.w3.org/2000/svg">
<g opacity="0.5">
<path d="M33.26 8.292H35.584V17H33.26V8.292ZM40.8438 10.21H43.9238C44.6612 10.21 45.0298 10.5787 45.0298 11.316V17H42.8598V11.47C42.8598 11.2927 42.8318 11.176 42.7758 11.12C42.7198 11.064 42.6032 11.036 42.4258 11.036H40.5498C40.2232 11.036 40.0598 11.1853 40.0598 11.484V11.904H40.0458V17H37.8758V10.21H40.0458V10.672C40.1578 10.364 40.4238 10.21 40.8438 10.21ZM51.433 15.754V14.466C51.433 14.2887 51.405 14.172 51.349 14.116C51.3023 14.06 51.1857 14.032 50.999 14.032H47.905C47.1677 14.032 46.799 13.6633 46.799 12.926V11.316C46.799 10.5787 47.1677 10.21 47.905 10.21H52.399C53.1363 10.21 53.505 10.5787 53.505 11.316V12.24H51.405V11.456C51.405 11.2693 51.377 11.1527 51.321 11.106C51.2743 11.05 51.1577 11.022 50.971 11.022H49.389C49.2117 11.022 49.095 11.05 49.039 11.106C48.983 11.1527 48.955 11.2693 48.955 11.456V12.772C48.955 12.9587 48.983 13.08 49.039 13.136C49.095 13.1827 49.2117 13.206 49.389 13.206H52.483C53.2203 13.206 53.589 13.5747 53.589 14.312V15.894C53.589 16.6313 53.2203 17 52.483 17H47.947C47.2097 17 46.841 16.6313 46.841 15.894V14.97H48.955V15.754C48.955 15.9313 48.983 16.048 49.039 16.104C49.095 16.16 49.2117 16.188 49.389 16.188H50.999C51.1857 16.188 51.3023 16.16 51.349 16.104C51.405 16.048 51.433 15.9313 51.433 15.754ZM59.4632 11.036H57.9652V15.698C57.9652 15.8753 57.9885 15.992 58.0352 16.048C58.0912 16.104 58.2125 16.132 58.3992 16.132H59.4492V17H56.9012C56.1639 17 55.7952 16.6313 55.7952 15.894V11.036H54.7032V10.21H55.7952V8.768H57.9652V10.21H59.4632V11.036ZM63.405 16.174H65.295C65.631 16.174 65.799 16.0247 65.799 15.726V11.484C65.799 11.1853 65.631 11.036 65.295 11.036H63.405C63.2183 11.036 63.097 11.064 63.041 11.12C62.9943 11.176 62.971 11.2927 62.971 11.47V15.74C62.971 15.9267 62.9943 16.048 63.041 16.104C63.097 16.1507 63.2183 16.174 63.405 16.174ZM65.799 10.21H67.955V17H65.799V16.538C65.687 16.846 65.421 17 65.001 17H61.921C61.1836 17 60.815 16.6313 60.815 15.894V11.316C60.815 10.5787 61.1836 10.21 61.921 10.21H65.001C65.421 10.21 65.687 10.364 65.799 10.672V10.21ZM72.5241 16.174H74.4141C74.7501 16.174 74.9181 16.0247 74.9181 15.726V11.484C74.9181 11.1853 74.7501 11.036 74.4141 11.036H72.5241C72.3374 11.036 72.2161 11.064 72.1601 11.12C72.1134 11.176 72.0901 11.2927 72.0901 11.47V15.74C72.0901 15.9267 72.1134 16.048 72.1601 16.104C72.2161 16.1507 72.3374 16.174 72.5241 16.174ZM77.0741 16.65H77.0881V17.868C77.0881 18.6053 76.7194 18.974 75.9821 18.974H70.2701V18.148H74.4841C74.6708 18.148 74.7874 18.12 74.8341 18.064C74.8901 18.008 74.9181 17.8913 74.9181 17.714V16.538C74.8061 16.846 74.5401 17 74.1201 17H71.0401C70.3028 17 69.9341 16.6313 69.9341 15.894V11.316C69.9341 10.5787 70.3028 10.21 71.0401 10.21H74.1201C74.5401 10.21 74.8061 10.364 74.9181 10.672V10.21H77.0741V16.65ZM82.6529 10.196H83.7169V11.12H82.2469C81.5842 11.12 81.2529 11.4747 81.2529 12.184V17H79.0829V10.21H81.2529V11.036C81.4395 10.476 81.9062 10.196 82.6529 10.196ZM87.3581 16.174H89.2481C89.5841 16.174 89.7521 16.0247 89.7521 15.726V11.484C89.7521 11.1853 89.5841 11.036 89.2481 11.036H87.3581C87.1714 11.036 87.0501 11.064 86.9941 11.12C86.9474 11.176 86.9241 11.2927 86.9241 11.47V15.74C86.9241 15.9267 86.9474 16.048 86.9941 16.104C87.0501 16.1507 87.1714 16.174 87.3581 16.174ZM89.7521 10.21H91.9081V17H89.7521V16.538C89.6401 16.846 89.3741 17 88.9541 17H85.8741C85.1367 17 84.7681 16.6313 84.7681 15.894V11.316C84.7681 10.5787 85.1367 10.21 85.8741 10.21H88.9541C89.3741 10.21 89.6401 10.364 89.7521 10.672V10.21ZM101.881 10.21H104.751C105.489 10.21 105.857 10.5787 105.857 11.316V17H103.687V11.47C103.687 11.2927 103.659 11.176 103.603 11.12C103.557 11.064 103.44 11.036 103.253 11.036H101.573C101.228 11.036 101.055 11.2087 101.055 11.554V17H98.8992V11.47C98.8992 11.2927 98.8712 11.176 98.8152 11.12C98.7686 11.064 98.6519 11.036 98.4652 11.036H96.6592C96.3232 11.036 96.1552 11.1853 96.1552 11.484V17H93.9852V10.21H96.1552V10.63C96.2672 10.35 96.5286 10.21 96.9392 10.21H99.9492C100.5 10.21 100.845 10.4153 100.985 10.826C101.097 10.4153 101.396 10.21 101.881 10.21Z" fill="#11101C"/>
<g clip-path="url(#clip0_1_9350)">
<path d="M11.0001 7.15287C10.1342 7.15384 9.28794 7.4099 8.56845 7.88866C7.84896 8.36742 7.28851 9.0474 6.95795 9.84261C6.62739 10.6378 6.54157 11.5126 6.71135 12.3562C6.88112 13.1999 7.29886 13.9746 7.91175 14.5824C8.52464 15.1902 9.30516 15.6038 10.1546 15.7709C11.0041 15.938 11.8843 15.8511 12.6841 15.5212C13.4838 15.1912 14.1672 14.6331 14.6477 13.9174C15.1282 13.2016 15.3843 12.3604 15.3837 11.5C15.3819 10.3462 14.9193 9.24027 14.0973 8.42516C13.2754 7.61004 12.1614 7.15244 11.0001 7.15287ZM21.2367 3.8089C21.0138 3.24764 20.6772 2.73787 20.2477 2.31121C19.8183 1.88456 19.3052 1.55012 18.7403 1.32865C17.0164 0.652517 12.912 0.804219 10.9993 0.804219C9.08659 0.804219 4.98622 0.646807 3.25741 1.32865C2.69251 1.55012 2.17943 1.88456 1.75001 2.31121C1.32059 2.73787 0.983981 3.24764 0.761072 3.8089C0.0813704 5.52167 0.233236 9.60376 0.233236 11.5025C0.233236 13.4012 0.0821916 17.4784 0.765177 19.1912C0.988085 19.7524 1.32469 20.2622 1.75411 20.6889C2.18354 21.1155 2.69661 21.45 3.26152 21.6714C4.9854 22.3476 9.08988 22.1959 11.0034 22.1959C12.9169 22.1959 17.0156 22.3533 18.7444 21.6714C19.3093 21.45 19.8224 21.1155 20.2518 20.6889C20.6813 20.2622 21.0179 19.7524 21.2408 19.1912C21.9262 17.4784 21.7686 13.3963 21.7686 11.4976C21.7686 9.59887 21.9262 5.52167 21.2449 3.8089H21.2367ZM11.0001 18.188C9.66877 18.188 8.36733 17.7957 7.26037 17.0609C6.1534 16.326 5.29063 15.2815 4.78115 14.0594C4.27167 12.8373 4.13837 11.4926 4.3981 10.1953C4.65783 8.89795 5.29893 7.70627 6.24032 6.77095C7.18172 5.83562 8.38113 5.19866 9.68688 4.9406C10.9926 4.68254 12.3461 4.81499 13.5761 5.32118C14.8061 5.82738 15.8574 6.68459 16.597 7.78442C17.3367 8.88424 17.7314 10.1773 17.7314 11.5C17.7325 12.3786 17.5591 13.2488 17.2213 14.0607C16.8834 14.8726 16.3876 15.6103 15.7623 16.2315C15.137 16.8528 14.3945 17.3454 13.5774 17.6811C12.7602 18.0168 11.8844 18.1891 11.0001 18.188ZM18.0089 6.09259C17.6981 6.09275 17.3943 6.00133 17.1358 5.8299C16.8773 5.65847 16.6758 5.41472 16.5567 5.12949C16.4377 4.84425 16.4065 4.53035 16.467 4.22748C16.5275 3.92461 16.6771 3.64638 16.8968 3.42798C17.1165 3.20957 17.3965 3.06082 17.7013 3.00052C18.0061 2.94022 18.322 2.97108 18.6092 3.08921C18.8963 3.20734 19.1417 3.40743 19.3144 3.66416C19.4871 3.92089 19.5793 4.22274 19.5793 4.53153C19.5797 4.73644 19.5394 4.93943 19.4608 5.12886C19.3821 5.31829 19.2666 5.49044 19.1209 5.63546C18.9752 5.78047 18.8021 5.89549 18.6116 5.97393C18.421 6.05238 18.2168 6.0927 18.0105 6.09259H18.0089Z" fill="#11101C"/>
</g>
</g>
<defs>
<clipPath id="clip0_1_9350">
<rect width="22" height="23" fill="white"/>
</clipPath>
</defs>
</svg>
