<svg width="21" height="21" viewBox="0 0 21 21" fill="none" xmlns="http://www.w3.org/2000/svg">
<g clip-path="url(#clip0_1_9323)">
<path d="M16.625 7.371V6.125C16.625 4.50055 15.9797 2.94263 14.831 1.79397C13.6824 0.645311 12.1245 0 10.5 0C8.87555 0 7.31763 0.645311 6.16897 1.79397C5.02031 2.94263 4.375 4.50055 4.375 6.125V7.371C3.59569 7.71112 2.93238 8.27096 2.46619 8.98206C1.99999 9.69316 1.75112 10.5247 1.75 11.375V16.625C1.75139 17.7849 2.21277 18.8969 3.03294 19.7171C3.85311 20.5372 4.9651 20.9986 6.125 21H14.875C16.0349 20.9986 17.1469 20.5372 17.9671 19.7171C18.7872 18.8969 19.2486 17.7849 19.25 16.625V11.375C19.2489 10.5247 19 9.69316 18.5338 8.98206C18.0676 8.27096 17.4043 7.71112 16.625 7.371ZM6.125 6.125C6.125 4.96468 6.58594 3.85188 7.40641 3.03141C8.22688 2.21094 9.33968 1.75 10.5 1.75C11.6603 1.75 12.7731 2.21094 13.5936 3.03141C14.4141 3.85188 14.875 4.96468 14.875 6.125V7H6.125V6.125ZM17.5 16.625C17.5 17.3212 17.2234 17.9889 16.7312 18.4812C16.2389 18.9734 15.5712 19.25 14.875 19.25H6.125C5.42881 19.25 4.76113 18.9734 4.26884 18.4812C3.77656 17.9889 3.5 17.3212 3.5 16.625V11.375C3.5 10.6788 3.77656 10.0111 4.26884 9.51884C4.76113 9.02656 5.42881 8.75 6.125 8.75H14.875C15.5712 8.75 16.2389 9.02656 16.7312 9.51884C17.2234 10.0111 17.5 10.6788 17.5 11.375V16.625Z" fill="#11101C"/>
<path d="M10.5 12.25C10.2679 12.25 10.0454 12.3422 9.88128 12.5063C9.71719 12.6704 9.625 12.8929 9.625 13.125V14.875C9.625 15.1071 9.71719 15.3296 9.88128 15.4937C10.0454 15.6578 10.2679 15.75 10.5 15.75C10.7321 15.75 10.9546 15.6578 11.1187 15.4937C11.2828 15.3296 11.375 15.1071 11.375 14.875V13.125C11.375 12.8929 11.2828 12.6704 11.1187 12.5063C10.9546 12.3422 10.7321 12.25 10.5 12.25Z" fill="#11101C"/>
</g>
<defs>
<clipPath id="clip0_1_9323">
<rect width="21" height="21" fill="white"/>
</clipPath>
</defs>
</svg>
