<svg width="410" height="77" viewBox="0 0 410 77" fill="none" xmlns="http://www.w3.org/2000/svg">
<path d="M-11 13C-11 8.58172 -7.41828 5 -3 5H396.18C402.682 5 406.468 12.3449 402.696 17.6411M-11 13L402.696 17.6411M-11 13V64C-11 68.4183 -7.41828 72 -3 72H359.857C362.444 72 364.872 70.7486 366.373 68.641L402.696 17.6411M-11 13L398.624 14.7404L402.696 17.6411" fill="#9F9F9F" stroke="#080614" stroke-width="10"/>
<path d="M82.3724 30.984H72.4524V38.632H81.1244V40.52H72.4524V49H67.1084V29.096H82.3724V30.984ZM96.8976 46.12V36.36C96.8976 35.9547 96.8336 35.688 96.7056 35.56C96.5776 35.432 96.311 35.368 95.9056 35.368H91.3296C90.903 35.368 90.6256 35.432 90.4976 35.56C90.391 35.688 90.3376 35.9547 90.3376 36.36V46.12C90.3376 46.5467 90.391 46.824 90.4976 46.952C90.6256 47.0587 90.903 47.112 91.3296 47.112H95.9056C96.311 47.112 96.5776 47.0587 96.7056 46.952C96.8336 46.824 96.8976 46.5467 96.8976 46.12ZM87.9376 33.48H99.2976C100.983 33.48 101.826 34.3227 101.826 36.008V46.472C101.826 48.1573 100.983 49 99.2976 49H87.9376C86.2523 49 85.4096 48.1573 85.4096 46.472V36.008C85.4096 34.3227 86.2523 33.48 87.9376 33.48ZM117.52 33.48H122.448V49H117.52V47.944C117.264 48.648 116.656 49 115.696 49H108.656C106.971 49 106.128 48.1573 106.128 46.472V33.48H111.056V46.12C111.056 46.5467 111.11 46.824 111.216 46.952C111.344 47.0587 111.622 47.112 112.048 47.112H116.368C117.136 47.112 117.52 46.7707 117.52 46.088V33.48ZM133.98 33.48H141.02C142.705 33.48 143.548 34.3227 143.548 36.008V49H138.588V36.36C138.588 35.9547 138.524 35.688 138.396 35.56C138.268 35.432 138.001 35.368 137.596 35.368H133.308C132.561 35.368 132.188 35.7093 132.188 36.392V37.352H132.156V49H127.196V33.48H132.156V34.536C132.412 33.832 133.02 33.48 133.98 33.48ZM153.736 47.112H158.056C158.824 47.112 159.208 46.7707 159.208 46.088V36.392C159.208 35.7093 158.824 35.368 158.056 35.368H153.736C153.309 35.368 153.032 35.432 152.904 35.56C152.797 35.688 152.744 35.9547 152.744 36.36V46.12C152.744 46.5467 152.797 46.824 152.904 46.952C153.032 47.0587 153.309 47.112 153.736 47.112ZM159.208 27.592H164.136V49H159.208V47.944C158.952 48.648 158.344 49 157.384 49H150.344C148.659 49 147.816 48.1573 147.816 46.472V36.008C147.816 34.3227 148.659 33.48 150.344 33.48H157.384C158.344 33.48 158.952 33.832 159.208 34.536V27.592ZM173.588 40.104H180.5V36.36C180.5 35.9547 180.436 35.688 180.308 35.56C180.201 35.432 179.934 35.368 179.508 35.368H174.58C174.153 35.368 173.876 35.432 173.748 35.56C173.641 35.688 173.588 35.9547 173.588 36.36V40.104ZM171.188 33.48H182.772C184.457 33.48 185.3 34.3227 185.3 36.008V41.992H173.588V46.12C173.588 46.5467 173.641 46.824 173.748 46.952C173.876 47.0587 174.153 47.112 174.58 47.112H179.444C179.87 47.112 180.137 47.0587 180.244 46.952C180.372 46.824 180.436 46.5467 180.436 46.12V44.232H185.236V46.472C185.236 48.1573 184.393 49 182.708 49H171.188C169.502 49 168.66 48.1573 168.66 46.472V36.008C168.66 34.3227 169.502 33.48 171.188 33.48ZM197.731 33.448H200.163V35.56H196.803C195.288 35.56 194.531 36.3707 194.531 37.992V49H189.571V33.48H194.531V35.368C194.958 34.088 196.024 33.448 197.731 33.448ZM202.278 37.704V29.096H207.654V31.272L204.07 37.704H202.278ZM221.746 46.152V43.208C221.746 42.8027 221.682 42.536 221.554 42.408C221.448 42.28 221.181 42.216 220.754 42.216H213.682C211.997 42.216 211.154 41.3733 211.154 39.688V36.008C211.154 34.3227 211.997 33.48 213.682 33.48H223.954C225.64 33.48 226.482 34.3227 226.482 36.008V38.12H221.682V36.328C221.682 35.9013 221.618 35.6347 221.49 35.528C221.384 35.4 221.117 35.336 220.69 35.336H217.074C216.669 35.336 216.402 35.4 216.274 35.528C216.146 35.6347 216.082 35.9013 216.082 36.328V39.336C216.082 39.7627 216.146 40.04 216.274 40.168C216.402 40.2747 216.669 40.328 217.074 40.328H224.146C225.832 40.328 226.674 41.1707 226.674 42.856V46.472C226.674 48.1573 225.832 49 224.146 49H213.778C212.093 49 211.25 48.1573 211.25 46.472V44.36H216.082V46.152C216.082 46.5573 216.146 46.824 216.274 46.952C216.402 47.08 216.669 47.144 217.074 47.144H220.754C221.181 47.144 221.448 47.08 221.554 46.952C221.682 46.824 221.746 46.5573 221.746 46.152ZM248.882 35.368H245.458V46.024C245.458 46.4293 245.512 46.696 245.618 46.824C245.746 46.952 246.024 47.016 246.45 47.016H248.85V49H243.026C241.341 49 240.498 48.1573 240.498 46.472V35.368H238.002V33.48H240.498V30.184H245.458V33.48H248.882V35.368ZM263.46 46.12V36.36C263.46 35.9547 263.396 35.688 263.268 35.56C263.14 35.432 262.873 35.368 262.468 35.368H257.892C257.465 35.368 257.188 35.432 257.06 35.56C256.953 35.688 256.9 35.9547 256.9 36.36V46.12C256.9 46.5467 256.953 46.824 257.06 46.952C257.188 47.0587 257.465 47.112 257.892 47.112H262.468C262.873 47.112 263.14 47.0587 263.268 46.952C263.396 46.824 263.46 46.5467 263.46 46.12ZM254.5 33.48H265.86C267.545 33.48 268.388 34.3227 268.388 36.008V46.472C268.388 48.1573 267.545 49 265.86 49H254.5C252.815 49 251.972 48.1573 251.972 46.472V36.008C251.972 34.3227 252.815 33.48 254.5 33.48ZM272.915 49V27.592H277.875V49H272.915ZM290.387 33.48L283.635 41.16L290.387 49H284.947L278.419 41.16L284.979 33.48H290.387ZM298.056 40.104H304.968V36.36C304.968 35.9547 304.904 35.688 304.776 35.56C304.67 35.432 304.403 35.368 303.976 35.368H299.048C298.622 35.368 298.344 35.432 298.216 35.56C298.11 35.688 298.056 35.9547 298.056 36.36V40.104ZM295.656 33.48H307.24C308.926 33.48 309.768 34.3227 309.768 36.008V41.992H298.056V46.12C298.056 46.5467 298.11 46.824 298.216 46.952C298.344 47.0587 298.622 47.112 299.048 47.112H303.912C304.339 47.112 304.606 47.0587 304.712 46.952C304.84 46.824 304.904 46.5467 304.904 46.12V44.232H309.704V46.472C309.704 48.1573 308.862 49 307.176 49H295.656C293.971 49 293.128 48.1573 293.128 46.472V36.008C293.128 34.3227 293.971 33.48 295.656 33.48ZM320.824 33.48H327.864C329.549 33.48 330.392 34.3227 330.392 36.008V49H325.432V36.36C325.432 35.9547 325.368 35.688 325.24 35.56C325.112 35.432 324.845 35.368 324.44 35.368H320.152C319.405 35.368 319.032 35.7093 319.032 36.392V37.352H319V49H314.04V33.48H319V34.536C319.256 33.832 319.864 33.48 320.824 33.48Z" fill="#11101C"/>
</svg>
