<svg width="21" height="20" viewBox="0 0 21 20" fill="none" xmlns="http://www.w3.org/2000/svg">
<g clip-path="url(#clip0_1_9380)">
<path d="M12.9701 9.75667C13.0158 9.78045 13.0537 9.81572 13.0798 9.85863C13.1059 9.90153 13.1191 9.95043 13.118 10C13.1206 10.0423 13.1125 10.0845 13.0942 10.1232C13.0759 10.1618 13.048 10.1956 13.013 10.2217L8.3125 12.4617C8.26773 12.4852 8.2173 12.4973 8.16616 12.4967C8.11501 12.4961 8.06491 12.4828 8.02079 12.4582C7.97666 12.4335 7.94001 12.3984 7.91445 12.3562C7.88889 12.314 7.8753 12.2662 7.875 12.2175V7.7825C7.87401 7.73305 7.88717 7.68428 7.91307 7.64142C7.93896 7.59855 7.97662 7.5632 8.022 7.53917C8.06377 7.51622 8.11115 7.50415 8.15938 7.50417C8.22993 7.50614 8.29871 7.52568 8.35888 7.56083L12.9701 9.75667ZM21 4.16667V15.8333C20.9986 16.938 20.5372 17.997 19.7171 18.7782C18.8969 19.5593 17.7849 19.9987 16.625 20H4.375C3.2151 19.9987 2.10311 19.5593 1.28294 18.7782C0.462772 17.997 0.00138938 16.938 0 15.8333L0 4.16667C0.00138938 3.062 0.462772 2.00296 1.28294 1.22185C2.10311 0.440735 3.2151 0.00132321 4.375 0L16.625 0C17.7849 0.00132321 18.8969 0.440735 19.7171 1.22185C20.5372 2.00296 20.9986 3.062 21 4.16667ZM14.868 10C14.8683 9.64888 14.7687 9.30425 14.5798 9.00272C14.391 8.70118 14.1198 8.45402 13.7952 8.2875L9.177 6.09167C8.86594 5.9217 8.51341 5.83263 8.15479 5.83339C7.79617 5.83416 7.44406 5.92474 7.1338 6.09603C6.82354 6.26733 6.56604 6.51332 6.38713 6.80933C6.20823 7.10534 6.1142 7.44095 6.1145 7.7825V12.2175C6.1124 12.559 6.2056 12.8949 6.38455 13.1908C6.56351 13.4867 6.8218 13.732 7.133 13.9017C7.44801 14.0768 7.80599 14.1697 8.17075 14.1708C8.5082 14.1723 8.84013 14.0892 9.13325 13.93L13.8372 11.6908C14.1518 11.5221 14.4132 11.2764 14.5944 10.9791C14.7757 10.6818 14.8701 10.3438 14.868 10Z" fill="#4192D0"/>
</g>
<defs>
<clipPath id="clip0_1_9380">
<rect width="21" height="20" fill="white"/>
</clipPath>
</defs>
</svg>
