<svg width="85" height="23" viewBox="0 0 85 23" fill="none" xmlns="http://www.w3.org/2000/svg">
<g opacity="0.5">
<path d="M41.05 8.292V9.118H38.194V17H35.94V9.118H33.112V8.292H41.05ZM51.6481 10.21H53.6921L51.4661 17H48.9181L47.5601 11.736L46.2161 17H43.6541L41.4141 10.21H43.4581L45.0401 15.642L46.5241 10.21H48.5961L50.0801 15.642L51.6481 10.21ZM57.2353 17H55.0653V10.21H57.2353V17ZM55.0233 9.076V7.62H57.2773V9.076H55.0233ZM63.4437 11.036H61.9457V15.698C61.9457 15.8753 61.969 15.992 62.0157 16.048C62.0717 16.104 62.193 16.132 62.3797 16.132H63.4297V17H60.8817C60.1443 17 59.7757 16.6313 59.7757 15.894V11.036H58.6837V10.21H59.7757V8.768H61.9457V10.21H63.4437V11.036ZM68.9534 11.036H67.4554V15.698C67.4554 15.8753 67.4788 15.992 67.5254 16.048C67.5814 16.104 67.7028 16.132 67.8894 16.132H68.9394V17H66.3914C65.6541 17 65.2854 16.6313 65.2854 15.894V11.036H64.1934V10.21H65.2854V8.768H67.4554V10.21H68.9534V11.036ZM72.4612 13.108H75.4852V11.47C75.4852 11.2927 75.4572 11.176 75.4012 11.12C75.3545 11.064 75.2379 11.036 75.0512 11.036H72.8952C72.7085 11.036 72.5872 11.064 72.5312 11.12C72.4845 11.176 72.4612 11.2927 72.4612 11.47V13.108ZM71.4112 10.21H76.4792C77.2165 10.21 77.5852 10.5787 77.5852 11.316V13.934H72.4612V15.74C72.4612 15.9267 72.4845 16.048 72.5312 16.104C72.5872 16.1507 72.7085 16.174 72.8952 16.174H75.0232C75.2099 16.174 75.3265 16.1507 75.3732 16.104C75.4292 16.048 75.4572 15.9267 75.4572 15.74V14.914H77.5572V15.894C77.5572 16.6313 77.1885 17 76.4512 17H71.4112C70.6739 17 70.3052 16.6313 70.3052 15.894V11.316C70.3052 10.5787 70.6739 10.21 71.4112 10.21ZM83.024 10.196H84.088V11.12H82.618C81.9553 11.12 81.624 11.4747 81.624 12.184V17H79.454V10.21H81.624V11.036C81.8106 10.476 82.2773 10.196 83.024 10.196Z" fill="#11101C"/>
<path d="M20.6358 6.81535C20.6504 7.01965 20.6504 7.224 20.6504 7.4283C20.6504 13.6599 15.9074 20.8401 7.23858 20.8401C4.56788 20.8401 2.08694 20.0666 0 18.724C0.379455 18.7678 0.744266 18.7824 1.13832 18.7824C3.34196 18.7824 5.37054 18.0381 6.99047 16.7684C4.91814 16.7246 3.18146 15.3674 2.5831 13.4994C2.875 13.5431 3.16686 13.5723 3.47336 13.5723C3.89657 13.5723 4.31982 13.5139 4.71383 13.4118C2.55394 12.974 0.933971 11.0768 0.933971 8.78553V8.72718C1.56148 9.07743 2.29124 9.29634 3.06466 9.32549C1.79499 8.47903 0.96317 7.03425 0.96317 5.39972C0.96317 4.52411 1.19663 3.72144 1.60528 3.02093C3.92572 5.88133 7.41368 7.74932 11.3248 7.95367C11.2519 7.60341 11.2081 7.2386 11.2081 6.87374C11.2081 4.276 13.3096 2.15991 15.9219 2.15991C17.2791 2.15991 18.505 2.72907 19.366 3.64849C20.4314 3.44418 21.4529 3.05013 22.3578 2.51017C22.0075 3.60473 21.2632 4.52415 20.2855 5.10787C21.2341 5.00576 22.1535 4.74301 22.9999 4.3782C22.3579 5.31217 21.5552 6.14399 20.6358 6.81535Z" fill="#11101C"/>
</g>
</svg>
