<svg width="151" height="129" viewBox="0 0 151 129" fill="none" xmlns="http://www.w3.org/2000/svg">
<g clip-path="url(#clip0_3_11564)">
<mask id="mask0_3_11564" style="mask-type:luminance" maskUnits="userSpaceOnUse" x="0" y="0" width="151" height="128">
<path d="M150.297 0.803345H0V127.855H150.297V0.803345Z" fill="white"/>
</mask>
<g mask="url(#mask0_3_11564)">
<path d="M46.552 0.803345L36.5239 4.53915L76.066 110.684L86.0942 106.948L46.552 0.803345Z" fill="#F2F2F2"/>
<path d="M62.8242 112.267C51.1308 112.267 39.799 108.212 30.7598 100.794C21.7206 93.3758 15.5333 83.0527 13.252 71.5839C10.9707 60.1151 12.7367 48.2101 18.249 37.8973C23.7614 27.5846 32.6789 19.5022 43.4823 15.0273C54.2857 10.5524 66.3064 9.9619 77.4965 13.3563C88.6864 16.7508 98.3532 23.9202 104.85 33.643C111.346 43.3658 114.271 55.0405 113.125 66.6777C111.978 78.3149 106.833 89.1946 98.5641 97.4632C93.8816 102.171 88.3118 105.904 82.1771 108.445C76.0422 110.986 69.4644 112.285 62.8242 112.267ZM62.8242 11.5089C35.1359 11.5089 12.6098 34.0349 12.6098 61.7234C12.6098 89.4117 35.1359 111.938 62.8242 111.938C90.5126 111.938 113.039 89.4117 113.039 61.7234C113.039 34.0349 90.5126 11.5089 62.8242 11.5089Z" fill="#3F3D56"/>
<path d="M140.197 95.8194C133.454 102.965 124.149 107.139 114.329 107.424C104.508 107.709 94.9766 104.081 87.8307 97.3391C72.9509 83.2988 72.2709 59.8528 86.3128 44.9728C93.0554 37.8275 102.36 33.6534 112.18 33.3684C122 33.0834 131.532 36.711 138.677 43.4532C153.558 57.4951 154.238 80.9396 140.197 95.8194Z" fill="#9CDCD5"/>
<path d="M20.0694 17.2433C20.0694 17.2433 12.1728 15.0189 9.83713 25.8072C7.50152 36.5955 9.28103 42.0453 9.28103 42.0453L26.9093 39.9877C26.9093 39.9877 31.9142 20.5243 20.0694 17.2433Z" fill="#2F2E41"/>
<path d="M4.66943 76.0939L8.26964 91.6198L8.94468 97.6951C8.94468 97.6951 8.50631 104.051 10.8744 109.625C10.9057 109.699 10.9375 109.772 10.9698 109.846C13.4449 115.471 13.2199 117.496 13.2199 117.496H16.1451L15.695 107.821C15.695 107.821 15.695 100.845 14.57 98.1451L13.895 76.9939L4.66943 76.0939Z" fill="#FFB9B9"/>
<path d="M17.0439 79.2441L27.6196 98.3702C27.6196 98.3702 29.6447 106.471 31.8948 108.946L37.0701 119.521L39.3202 115.246L33.2449 94.5449L27.6196 78.3441L17.0439 79.2441Z" fill="#FFB9B9"/>
<path d="M16.5953 116.371L12.7701 116.596L12.545 120.197C12.545 120.197 5.56965 127.397 10.2949 127.622C15.0202 127.846 15.6953 125.822 15.6953 125.822C15.6953 125.822 18.3953 123.797 18.3953 122.896C18.3953 121.997 17.9454 119.296 17.4953 118.621C17.0453 117.946 16.5953 116.371 16.5953 116.371Z" fill="#2F2E41"/>
<path d="M39.3221 113.671L35.272 117.046C35.272 117.046 38.4221 125.371 39.7722 125.147C41.1223 124.921 52.1478 117.046 51.0229 115.696C49.8977 114.346 48.3227 115.246 48.3227 115.246C48.3227 115.246 43.3724 117.721 42.2473 116.596L39.3221 113.671Z" fill="#2F2E41"/>
<path d="M5.56939 62.1431L3.54428 69.7935C3.54428 69.7935 -1.40599 74.9688 0.394104 75.6438C2.1942 76.3189 3.54428 75.6438 3.76929 76.5438C3.99431 77.444 10.9697 79.6941 13.6699 79.019L15.0199 78.344C15.0199 78.344 15.92 81.2691 17.27 81.0442C18.6201 80.8191 29.4207 80.8191 29.1958 80.144C28.9707 79.469 27.3956 76.9939 27.3956 76.3189C27.3956 75.6438 26.2706 72.9436 26.2706 72.9436C26.3928 72.8224 26.472 72.6643 26.4956 72.4937C26.4956 72.2686 26.0455 60.793 26.0455 60.793L7.81951 59.8929L5.56939 62.1431Z" fill="#2F2E41"/>
<path d="M18.3947 34.4666C21.6258 34.4666 24.245 31.8473 24.245 28.6163C24.245 25.3853 21.6258 22.766 18.3947 22.766C15.1637 22.766 12.5444 25.3853 12.5444 28.6163C12.5444 31.8473 15.1637 34.4666 18.3947 34.4666Z" fill="#FFB9B9"/>
<path d="M16.4828 33.0041C16.4828 33.0041 17.1578 37.0543 14.6826 38.1794L12.2075 39.3044L21.883 46.7299L25.2582 37.5044C25.2582 37.5044 21.883 36.8293 22.1081 32.104L16.4828 33.0041Z" fill="#FFB9B9"/>
<path d="M15.2444 38.9668C15.2444 38.9668 21.4669 40.4394 23.9809 36.8904L29.6452 37.6167L28.0701 55.8427C28.0701 55.8427 28.2951 65.7433 25.8199 65.9684C23.3449 66.1933 24.2449 63.9432 24.2449 63.9432C24.2449 63.9432 23.1199 65.5183 21.3197 65.5183C19.5197 65.5183 15.9195 64.1682 15.9195 64.1682C15.9195 64.1682 10.7441 63.4932 9.16906 63.7181C7.59397 63.9432 0.843595 65.0682 7.36896 58.5429C7.36896 58.5429 10.7441 56.2928 10.2941 55.6177C9.8441 54.9427 9.16906 52.0175 9.16906 52.0175L9.39407 39.4168L14.3752 38.3187L15.2444 38.9668Z" fill="#575A89"/>
<path d="M6.91967 67.3183C6.91967 67.3183 12.32 70.9185 13.4451 68.2184C14.5701 65.5182 8.49475 64.3931 8.49475 64.3931L6.24463 65.2932L6.91967 67.3183Z" fill="#FFB9B9"/>
<path d="M24.0208 68.8934C24.0208 68.8934 17.2705 68.4435 18.3955 70.9186C19.5206 73.3937 25.821 71.3686 25.821 71.3686L24.0208 68.8934Z" fill="#FFB9B9"/>
<path d="M10.5205 39.8669L9.39549 39.4169C9.39549 39.4169 7.59539 40.5419 6.0203 44.1421C4.44522 47.7423 1.52005 53.8177 1.52005 53.8177C1.52005 53.8177 0.169972 54.0426 0.845011 55.3927C1.52005 56.7428 1.52005 56.5178 1.07002 57.1929C0.620001 57.8679 0.169974 58.543 0.620001 58.9929C1.07003 59.443 1.52005 59.443 1.29504 60.343C1.07002 61.243 1.07002 62.1432 1.29504 62.3681C1.52005 62.5931 3.32015 63.7182 3.09514 64.3933C2.87013 65.0683 1.97007 65.2933 3.32015 65.2933C4.67023 65.2933 5.12025 67.5434 5.12025 67.5434L7.8204 67.9935C7.8204 67.9935 6.24531 64.8432 9.6205 64.6182C9.6205 64.6182 8.72045 63.9432 8.72045 63.2682C8.72045 62.5931 9.39549 62.5931 8.27042 62.3681C7.14536 62.1432 6.92035 61.9181 7.14536 61.243C7.37037 60.568 7.59539 60.118 7.14536 60.118C6.69534 60.118 6.24532 60.7931 6.69534 60.118C7.14536 59.443 5.79528 58.0929 5.79528 58.0929C5.79528 58.0929 8.49543 51.1175 10.2955 50.4424C12.0956 49.7674 10.5205 39.8669 10.5205 39.8669Z" fill="#575A89"/>
<path d="M27.8453 37.8418L29.6453 37.6168C29.6453 37.6168 31.8954 38.0668 32.5705 40.767C33.2455 43.4671 33.4706 57.6429 33.4706 57.6429C33.4706 57.6429 32.5705 58.543 33.0206 59.668C33.4706 60.7931 33.6956 60.5681 33.2455 61.2431C32.7956 61.9182 31.8954 62.3681 31.8954 63.2682C31.8954 64.1683 31.8954 64.6182 31.4455 64.8433C30.9954 65.0683 30.3204 64.8433 30.3204 65.5184C30.3204 66.1934 28.2953 67.7685 28.5203 68.2184C28.7453 68.6685 29.6453 70.4687 26.4952 71.3687L25.3701 72.4937C25.3701 72.4937 24.02 68.8935 22.6699 68.8935C22.6699 68.8935 23.795 68.6685 23.5701 67.7685C23.345 66.8684 24.2451 66.4184 24.2451 66.4184L28.0703 60.7931L28.7453 57.6429L25.5952 51.3426L27.8453 37.8418Z" fill="#575A89"/>
<path d="M20.682 20.5474C20.682 20.5474 18.4576 26.4421 13.008 28.8888L12.1182 23.6616L20.682 20.5474Z" fill="#2F2E41"/>
<path d="M24.3579 29.1787C24.7721 29.1787 25.1079 28.6751 25.1079 28.0537C25.1079 27.4323 24.7721 26.9286 24.3579 26.9286C23.9437 26.9286 23.6079 27.4323 23.6079 28.0537C23.6079 28.6751 23.9437 29.1787 24.3579 29.1787Z" fill="#FFB9B9"/>
<path d="M150.298 127.526H76.3755V127.855H150.298V127.526Z" fill="#575A89"/>
<path d="M150.298 119.294H76.3755V119.622H150.298V119.294Z" fill="#575A89"/>
<path d="M140.195 95.8195C136.736 99.4943 132.561 102.421 127.927 104.42C123.293 106.418 118.299 107.446 113.252 107.44V33.3528C122.708 33.3396 131.808 36.9549 138.676 43.4534C153.555 57.4952 154.235 80.9396 140.195 95.8195Z" fill="#199886"/>
<path d="M131.859 27.755C133.222 27.755 134.328 26.6494 134.328 25.2855C134.328 23.9217 133.222 22.8159 131.859 22.8159C130.494 22.8159 129.388 23.9217 129.388 25.2855C129.388 26.6494 130.494 27.755 131.859 27.755Z" fill="#199886"/>
<path d="M80.1601 111.885C82.6151 111.885 84.6053 109.895 84.6053 107.44C84.6053 104.985 82.6151 102.994 80.1601 102.994C77.7051 102.994 75.7148 104.985 75.7148 107.44C75.7148 109.895 77.7051 111.885 80.1601 111.885Z" fill="#3F3D56"/>
<path d="M72.9179 42.7371C74.4638 42.7371 75.7168 41.484 75.7168 39.9382C75.7168 38.3925 74.4638 37.1394 72.9179 37.1394C71.3722 37.1394 70.1191 38.3925 70.1191 39.9382C70.1191 41.484 71.3722 42.7371 72.9179 42.7371Z" fill="#3F3D56"/>
<path d="M91.5205 85.7075C91.5205 97.7098 113.253 107.44 113.253 107.44V63.9753C113.253 63.9753 91.5205 73.7052 91.5205 85.7075Z" fill="#199886"/>
<path d="M113.252 63.9753V107.44C113.252 107.44 134.984 97.7098 134.984 85.7075C134.984 73.7052 113.252 63.9753 113.252 63.9753Z" fill="#3F3D56"/>
</g>
</g>
<defs>
<clipPath id="clip0_3_11564">
<rect width="150.297" height="127.987" fill="white" transform="translate(0 0.803223)"/>
</clipPath>
</defs>
</svg>
