<svg width="219" height="129" viewBox="0 0 219 129" fill="none" xmlns="http://www.w3.org/2000/svg">
<g clip-path="url(#clip0_3_11798)">
<mask id="mask0_3_11798" style="mask-type:luminance" maskUnits="userSpaceOnUse" x="0" y="0" width="219" height="129">
<path d="M218.625 0.798218H0.328125V128.651H218.625V0.798218Z" fill="white"/>
</mask>
<g mask="url(#mask0_3_11798)">
<path d="M194.717 48.6134C189.989 48.6134 185.366 47.2113 181.435 44.5843C177.503 41.9573 174.439 38.2234 172.629 33.8549C170.82 29.4863 170.347 24.6793 171.269 20.0417C172.191 15.404 174.468 11.1442 177.812 7.8006C181.155 4.45706 185.415 2.18009 190.053 1.25761C194.691 0.335127 199.498 0.808576 203.866 2.61809C208.235 4.42759 211.968 7.49189 214.595 11.4235C217.223 15.355 218.624 19.9773 218.624 24.7058C218.617 31.0443 216.096 37.1212 211.614 41.6032C207.133 46.0851 201.055 48.6063 194.717 48.6134ZM194.717 1.17178C190.063 1.17178 185.512 2.55204 181.642 5.13799C177.772 7.72394 174.755 11.3995 172.974 15.6997C171.193 20 170.727 24.732 171.635 29.2971C172.544 33.8622 174.784 38.0556 178.076 41.3469C181.367 44.6382 185.561 46.8796 190.126 47.7876C194.691 48.6957 199.423 48.2297 203.723 46.4485C208.023 44.6672 211.699 41.6508 214.285 37.7806C216.871 33.9105 218.251 29.3604 218.251 24.7058C218.244 18.4664 215.762 12.4845 211.35 8.07254C206.938 3.66058 200.956 1.17884 194.717 1.17178Z" fill="#3F3D56"/>
<path d="M194.798 36.7792C201.428 36.7792 206.803 31.4044 206.803 24.7744C206.803 18.1443 201.428 12.7697 194.798 12.7697C188.168 12.7697 182.793 18.1443 182.793 24.7744C182.793 31.4044 188.168 36.7792 194.798 36.7792Z" fill="#F2F2F2"/>
<path d="M195.59 24.8022H12.3276V116.87H195.59V24.8022Z" fill="#A7D2D0"/>
<path opacity="0.1" d="M132.538 51.4189H63.8149V98.5434H132.538V51.4189Z" fill="black"/>
<path d="M211.227 12.7417C213.901 12.7417 216.069 10.5745 216.069 7.90107C216.069 5.22766 213.901 3.06042 211.227 3.06042C208.554 3.06042 206.387 5.22766 206.387 7.90107C206.387 10.5745 208.554 12.7417 211.227 12.7417Z" fill="#199886"/>
<path d="M17.7818 30.4747C18.9868 30.4747 19.9635 29.4979 19.9635 28.293C19.9635 27.0881 18.9868 26.1113 17.7818 26.1113C16.5769 26.1113 15.6001 27.0881 15.6001 28.293C15.6001 29.4979 16.5769 30.4747 17.7818 30.4747Z" fill="#199886"/>
<path d="M24.5454 30.4747C25.7504 30.4747 26.7272 29.4979 26.7272 28.293C26.7272 27.0881 25.7504 26.1113 24.5454 26.1113C23.3405 26.1113 22.3638 27.0881 22.3638 28.293C22.3638 29.4979 23.3405 30.4747 24.5454 30.4747Z" fill="#199886"/>
<path d="M31.3087 30.4747C32.5135 30.4747 33.4903 29.4979 33.4903 28.293C33.4903 27.0881 32.5135 26.1113 31.3087 26.1113C30.1038 26.1113 29.127 27.0881 29.127 28.293C29.127 29.4979 30.1038 30.4747 31.3087 30.4747Z" fill="#199886"/>
<path d="M37.8536 59.0548H33.4902V63.4182H37.8536V59.0548Z" fill="#199886"/>
<path d="M170.719 97.0164H166.355V101.38H170.719V97.0164Z" fill="white"/>
<path d="M155.334 66.6768L151.942 69.4213L154.686 72.8134L158.078 70.0689L155.334 66.6768Z" fill="#199886"/>
<path d="M139.957 126.033H2.94629V52.2915H3.3826V125.596H139.957V126.033Z" fill="#3F3D56"/>
<path d="M142.575 128.651C142.014 128.651 141.465 128.484 140.998 128.173C140.532 127.861 140.169 127.418 139.954 126.9C139.739 126.382 139.683 125.811 139.793 125.262C139.902 124.711 140.172 124.206 140.569 123.809C140.966 123.413 141.471 123.143 142.021 123.033C142.571 122.923 143.142 122.98 143.66 123.194C144.178 123.409 144.621 123.772 144.933 124.238C145.244 124.705 145.411 125.254 145.411 125.815C145.41 126.567 145.111 127.288 144.579 127.819C144.047 128.351 143.326 128.65 142.575 128.651ZM142.575 123.414C142.099 123.414 141.636 123.556 141.241 123.819C140.847 124.083 140.539 124.458 140.357 124.896C140.175 125.334 140.128 125.817 140.221 126.283C140.314 126.748 140.542 127.176 140.877 127.511C141.213 127.847 141.641 128.076 142.106 128.169C142.572 128.261 143.054 128.213 143.493 128.032C143.931 127.85 144.306 127.543 144.57 127.148C144.834 126.753 144.974 126.289 144.974 125.815C144.973 125.178 144.721 124.568 144.27 124.118C143.82 123.669 143.21 123.415 142.575 123.414Z" fill="#3F3D56"/>
<path d="M3.16433 52.5098C2.60338 52.5098 2.05503 52.3434 1.58862 52.0318C1.12221 51.7202 0.758684 51.2772 0.54402 50.759C0.329354 50.2407 0.273188 49.6705 0.382623 49.1203C0.492059 48.5702 0.762181 48.0647 1.15883 47.6681C1.55548 47.2714 2.06084 47.0013 2.61101 46.8919C3.16118 46.7825 3.73145 46.8386 4.24969 47.0533C4.76794 47.2679 5.2109 47.6315 5.52255 48.0979C5.83419 48.5643 6.00053 49.1127 6.00053 49.6736C5.9997 50.4256 5.70062 51.1465 5.16891 51.6782C4.6372 52.2099 3.91628 52.509 3.16433 52.5098ZM3.16433 47.2737C2.68969 47.2737 2.22569 47.4145 1.83103 47.6782C1.43638 47.9419 1.12878 48.3167 0.947145 48.7552C0.765505 49.1937 0.71798 49.6763 0.810579 50.1418C0.903178 50.6073 1.13174 51.0349 1.46737 51.3706C1.803 51.7062 2.23061 51.9347 2.69614 52.0273C3.16166 52.12 3.6442 52.0725 4.08272 51.8908C4.52123 51.7092 4.89604 51.4015 5.15974 51.0069C5.42345 50.6122 5.56419 50.1482 5.56419 49.6736C5.56347 49.0373 5.3104 48.4273 4.86049 47.9774C4.41059 47.5275 3.80059 47.2745 3.16433 47.2737Z" fill="#3F3D56"/>
<path d="M44.18 111.415L42.2317 116.87H37.853V111.306C38.1759 104.327 42.0921 101.046 42.2142 100.946C39.2712 103.784 39.5984 113.597 39.5984 113.597C41.562 105.089 43.3073 104.871 43.3073 104.871C42.2513 106.457 41.7059 113.672 41.6732 114.121C41.8041 112.605 44.18 111.415 44.18 111.415Z" fill="#F2F2F2"/>
<path d="M179.663 112.157V116.87H176.296L174.645 112.243C174.645 112.243 176.528 113.185 176.632 114.387C176.606 114.016 176.173 108.309 175.336 107.052C175.336 107.052 176.721 107.225 178.279 113.972C178.279 113.972 178.537 106.19 176.204 103.939C176.302 104.019 179.407 106.621 179.663 112.157Z" fill="#F2F2F2"/>
<path d="M120.747 98.5426H115.441L115.405 98.1069L115.018 93.257V93.2543L114.617 88.2118L117.065 77.8101L119.147 79.8908V89.8028C119.147 89.8028 120.37 91.6395 120.125 92.1287C119.88 92.6179 119.636 92.6179 119.88 92.9843C120.125 93.3517 120.37 93.5963 120.125 93.8409C120.006 94.0004 119.942 94.1933 119.942 94.3923C119.942 94.5913 120.006 94.7842 120.125 94.9429C120.37 95.1883 120.859 95.5539 120.491 95.9221C120.125 96.2877 119.636 96.0431 120.125 97.3897C120.214 97.6387 120.327 97.8789 120.462 98.1069C120.548 98.2576 120.644 98.4023 120.747 98.5426Z" fill="#D0CDE1"/>
<path d="M104.4 65.0212L103.665 72.3638L111.13 73.4653L111.681 69.2433L112.231 65.0212H104.4Z" fill="#FFB9B9"/>
<path opacity="0.1" d="M104.4 65.0212L103.665 72.3638L111.13 73.4653L111.681 69.2433L112.231 65.0212H104.4Z" fill="black"/>
<path d="M108.498 67.4076C111.742 67.4076 114.372 64.7777 114.372 61.5335C114.372 58.2893 111.742 55.6594 108.498 55.6594C105.254 55.6594 102.625 58.2893 102.625 61.5335C102.625 64.7777 105.254 67.4076 108.498 67.4076Z" fill="#FFB9B9"/>
<path d="M93.6538 98.5426C93.6336 98.4996 93.6108 98.4549 93.5889 98.4058C93.5459 98.3146 93.4986 98.2156 93.4486 98.1077C93.1234 97.3827 92.7254 96.3517 92.9551 96.0431C93.3233 95.5539 93.4451 95.0647 93.2005 94.8201C92.9551 94.5755 92.2213 95.0647 92.9551 94.4519C93.6897 93.8409 93.9343 94.2073 93.6897 93.4735C93.4451 92.7397 92.9551 93.1071 93.4451 92.7397C93.9343 92.3733 94.3017 92.4943 94.0571 92.1287C93.8125 91.7605 93.3233 91.7605 93.8125 91.5159C94.3017 91.2713 94.6699 91.5159 94.5471 90.9031C94.4235 90.2929 94.3017 90.5375 94.5471 90.2929C94.6103 90.2289 94.8329 89.6126 95.1293 88.7333C95.9604 86.247 97.3613 81.6615 97.3613 81.4804C97.3613 81.2357 95.4037 73.5273 95.4037 73.5273L94.5471 73.0361C94.5471 73.0361 90.7537 75.6062 89.5298 81.3589C88.3051 87.1098 87.4492 88.5798 87.4492 88.5798C87.4492 88.5798 86.2258 88.8244 87.0813 89.6801C87.9385 90.5375 87.9385 90.4139 87.2046 90.9031C86.4705 91.3923 85.9811 90.4139 86.4705 91.3923C86.9599 92.3733 87.5706 92.1287 87.0813 92.7397C86.5919 93.3517 85.7364 93.3517 86.2258 93.8417C86.7152 94.3309 85.7364 95.433 86.3472 95.9221C86.9599 96.4113 87.2046 96.5332 87.2046 97.3897C87.2048 97.6299 87.2241 97.8702 87.2624 98.1077C87.2835 98.2542 87.3134 98.3997 87.3521 98.5426C87.3801 98.6566 87.4081 98.7425 87.4268 98.7968L93.6538 98.5426Z" fill="#D0CDE1"/>
<path d="M93.6548 98.5426H94.1527L94.179 98.369L93.589 98.4058L91.4429 98.5426L87.4272 98.7968L93.6548 98.5426Z" fill="#3F3D56"/>
<path d="M96.2595 93.3518L95.1593 89.5583L95.1295 88.7333L94.5474 73.0362L101.768 70.468L102.992 69.4874C102.992 69.4874 103.236 66.6727 103.604 66.428C103.737 66.3402 103.95 66.4429 104.231 66.682C104.727 67.1023 105.436 67.941 106.295 68.8767C107.642 70.3448 110.457 70.1001 111.312 69.6107C111.422 69.5466 111.537 69.4898 111.654 69.4407C112.269 69.1867 112.535 69.366 112.535 69.366C113.148 69.8554 111.681 71.4468 111.681 71.4468C111.681 71.4468 112.17 72.5468 115.35 73.6488C118.533 74.7509 119.146 79.891 119.146 79.891C119.146 79.891 115.35 90.1694 115.474 90.9032C115.578 91.5326 115.145 92.881 115.018 93.2553V93.2571C114.997 93.3167 114.984 93.3518 114.984 93.3518L115.263 98.1078L115.289 98.5427H96.7768C96.7224 98.391 96.6532 98.2455 96.5699 98.1078C96.5497 98.0736 96.5269 98.0386 96.5041 98.0026C95.4048 96.2878 96.2595 93.3518 96.2595 93.3518Z" fill="#D0CDE1"/>
<path d="M102.584 62.286C102.584 62.286 101.974 61.3711 102.209 60.3856C102.349 59.8262 102.404 59.2488 102.373 58.6729C102.373 58.6729 102.865 57.0776 103.358 56.186C103.851 55.2945 103.616 54.9191 105.165 54.6376C106.713 54.3561 106.079 52.3384 110.162 54.5203C110.3 54.7126 110.491 54.8598 110.713 54.9433C110.933 55.0269 111.175 55.0429 111.405 54.9895C112.249 54.8253 112.554 55.9984 112.554 55.9984C112.554 55.9984 113.118 55.6699 113.329 56.1391C113.54 56.6083 115.046 55.8575 115.046 59.0248C115.046 62.1921 113.332 65.0213 113.332 65.0213C113.332 65.0213 113.458 59.6935 110.666 59.1539C107.875 58.6143 104.871 57.0424 104.144 59.0601C103.752 60.1925 103.227 61.2751 102.584 62.286Z" fill="#2F2E41"/>
<path d="M113.394 63.5527C113.698 63.5527 113.944 63.224 113.944 62.8185C113.944 62.4129 113.698 62.0842 113.394 62.0842C113.09 62.0842 112.843 62.4129 112.843 62.8185C112.843 63.224 113.09 63.5527 113.394 63.5527Z" fill="#FFB9B9"/>
<path d="M63.8149 47.9276V98.5426H144.102V47.9276H63.8149ZM143.666 98.1078H64.252V48.3646H143.666V98.1078Z" fill="white"/>
</g>
</g>
<defs>
<clipPath id="clip0_3_11798">
<rect width="218.297" height="127.997" fill="white" transform="translate(0.328125 0.798218)"/>
</clipPath>
</defs>
</svg>
