<svg width="166" height="129" viewBox="0 0 166 129" fill="none" xmlns="http://www.w3.org/2000/svg">
<g clip-path="url(#clip0_3_11486)">
<mask id="mask0_3_11486" style="mask-type:luminance" maskUnits="userSpaceOnUse" x="0" y="0" width="165" height="128">
<path d="M164.095 0.797241H0.65625V127.994H164.095V0.797241Z" fill="white"/>
</mask>
<g mask="url(#mask0_3_11486)">
<path d="M34.5856 84.4631C27.1963 77.1889 24.0753 69.6 25.7976 63.0946C28.0076 54.7464 37.8261 48.9742 52.7353 47.2583L52.7903 47.7371C38.0887 49.4291 28.42 55.0717 26.2635 63.2179C24.5874 69.5489 27.663 76.972 34.9238 84.1198L34.5856 84.4631Z" fill="#F0F0F0"/>
<path d="M105.881 110.285C96.6587 110.285 86.6369 108.914 76.6825 106.279C64.3725 103.02 53.0856 98.1009 44.042 92.0535L44.3098 91.653C53.3099 97.6711 64.5469 102.568 76.8059 105.813C87.8841 108.745 99.0456 110.105 109.079 109.747L109.096 110.227C108.037 110.266 106.965 110.285 105.881 110.285Z" fill="#F0F0F0"/>
<path d="M127.038 107.254L126.884 106.797C135.132 104.009 140.291 99.5164 141.803 93.8057C143.725 86.546 139.55 78.1216 130.046 70.0843C120.495 62.0062 106.721 55.3034 91.2612 51.2109L91.3845 50.7449C106.911 54.8554 120.753 61.593 130.357 69.7164C140.011 77.8805 144.241 86.4794 142.269 93.929C140.713 99.8035 135.447 104.411 127.038 107.254Z" fill="#F0F0F0"/>
<path d="M51.3006 110.486C33.1793 102.449 19.2154 92.022 11.9814 81.1255L12.3829 80.8589C19.5668 91.6799 33.4574 102.045 51.496 110.045L51.3006 110.486Z" fill="#F0F0F0"/>
<path d="M115.014 124.409C113.144 124.409 111.244 124.368 109.31 124.284L109.331 123.802C123.756 124.428 136.483 122.701 146.141 118.809L146.321 119.257C137.897 122.652 127.16 124.409 115.014 124.409Z" fill="#F0F0F0"/>
<path d="M104.5 47.6904C101.505 46.7153 98.4246 45.8073 95.3437 44.9917C77.615 40.2983 60.1874 38.6319 44.9445 40.1735L44.896 39.694C60.1959 38.1471 77.6831 39.8176 95.4671 44.5258C98.5565 45.3437 101.646 46.2543 104.65 47.2323L104.5 47.6904Z" fill="#F0F0F0"/>
<path d="M23.2605 85.186C15.8711 77.9118 12.7502 70.3229 14.4723 63.8175C16.6825 55.4693 26.5009 49.6971 41.4101 47.9812L41.4652 48.46C26.7635 50.152 17.0949 55.7946 14.9383 63.9408C13.2623 70.2718 16.3379 77.6949 23.5986 84.8427L23.2605 85.186Z" fill="#F0F0F0"/>
<path d="M94.5564 111.008C85.334 111.008 75.3122 109.637 65.3578 107.001C53.0478 103.743 41.7609 98.8238 32.7173 92.7764L32.985 92.3759C41.9852 98.394 53.222 103.291 65.4812 106.536C76.5594 109.469 87.7209 110.828 97.7546 110.469L97.7719 110.951C96.7124 110.989 95.6405 111.008 94.5564 111.008Z" fill="#F0F0F0"/>
<path d="M115.713 107.976L115.559 107.521C123.807 104.731 128.966 100.239 130.478 94.5284C132.4 87.2687 128.225 78.8443 118.722 70.8071C109.17 62.729 95.3957 56.0261 79.9365 51.9335L80.0598 51.4677C95.5866 55.5782 109.428 62.3157 119.033 70.4391C128.686 78.6033 132.916 87.2021 130.944 94.6517C129.388 100.526 124.123 105.134 115.713 107.976Z" fill="#F0F0F0"/>
<path d="M39.9755 111.209C21.8541 103.172 7.89016 92.7448 0.65625 81.8482L1.05771 81.5817C8.24162 92.4027 22.1322 102.768 40.1708 110.768L39.9755 111.209Z" fill="#F0F0F0"/>
<path d="M103.688 125.132C101.819 125.132 99.9179 125.091 97.9849 125.008L98.0056 124.526C112.431 125.15 125.159 123.424 134.815 119.533L134.995 119.98C126.572 123.374 115.835 125.132 103.688 125.132Z" fill="#F0F0F0"/>
<path d="M93.1753 48.4133C90.1801 47.4382 87.0994 46.5302 84.0186 45.7146C66.2898 41.0212 48.8622 39.3548 33.6193 40.8964L33.5708 40.4169C48.8707 38.87 66.3578 40.5405 84.1419 45.2487C87.2313 46.0666 90.3209 46.9772 93.3245 47.9552L93.1753 48.4133Z" fill="#F0F0F0"/>
<path d="M8.87134 72.2779C12.3346 68.3949 17.859 66.0284 22.8654 67.445C18.2468 70.7135 14.9332 75.5102 13.5107 80.9867C12.9699 83.1007 12.5884 85.5083 10.8303 86.8008C9.73632 87.6051 8.28683 87.7972 6.94152 87.6141C5.59614 87.4309 4.32406 86.9077 3.06913 86.3892L2.73145 86.4185C3.70233 81.3069 5.40811 76.1608 8.87134 72.2779Z" fill="#F2F2F2"/>
<path d="M22.8491 67.553C18.6635 68.5665 14.9035 70.8731 12.1033 74.1451C11.488 74.8388 10.9859 75.6251 10.6155 76.4752C10.2814 77.3149 10.1782 78.2288 10.3168 79.1218C10.4292 79.9571 10.6409 80.7985 10.5484 81.6466C10.4945 82.08 10.3497 82.4971 10.1233 82.8706C9.897 83.2441 9.59425 83.5655 9.23497 83.8138C8.35582 84.4558 7.29844 84.7437 6.25462 84.9892C5.09567 85.2617 3.88756 85.5265 2.94282 86.2967C2.82836 86.3901 2.69025 86.2069 2.80454 86.1138C4.44822 84.7737 6.73256 84.9458 8.55113 83.9724C9.39971 83.5183 10.1166 82.8057 10.2908 81.8278C10.4433 80.9726 10.2257 80.1048 10.1045 79.26C9.95658 78.3907 10.0238 77.4986 10.3002 76.6613C10.6261 75.7952 11.0971 74.9907 11.693 74.2826C13.009 72.6669 14.5708 71.2683 16.3214 70.1377C18.312 68.8365 20.5106 67.8852 22.822 67.3254C22.9651 67.2907 22.9913 67.5187 22.8491 67.553Z" fill="white"/>
<path d="M12.9434 73.0385C12.4582 72.4941 12.1823 71.795 12.1649 71.0661C12.1477 70.3371 12.3899 69.6257 12.8487 69.0589C12.9419 68.9445 13.124 69.084 13.0306 69.1985C12.6025 69.7255 12.3768 70.3883 12.3944 71.067C12.4119 71.7458 12.6715 72.396 13.1264 72.9002C13.225 73.0099 13.0416 73.1474 12.9434 73.0385Z" fill="white"/>
<path d="M10.2045 78.7058C11.6919 78.8046 13.1618 78.3391 14.3212 77.4023C14.436 77.3094 14.5742 77.4924 14.4595 77.5853C13.2512 78.5578 11.7205 79.0391 10.173 78.9329C10.0255 78.9227 10.0578 78.6956 10.2045 78.7058Z" fill="white"/>
<path d="M18.3628 69.136C18.5068 69.3858 18.7103 69.5959 18.9555 69.7475C19.2006 69.899 19.4795 69.9874 19.7672 70.0046C19.9148 70.0129 19.8822 70.24 19.7356 70.2317C19.4179 70.2112 19.1099 70.1133 18.8387 69.9465C18.5675 69.7796 18.3414 69.5489 18.1799 69.2743C18.1625 69.2498 18.1552 69.2195 18.1593 69.1896C18.1635 69.1598 18.1789 69.1327 18.2023 69.1138C18.2266 69.0956 18.2571 69.0878 18.2872 69.0919C18.3173 69.0961 18.3444 69.112 18.3628 69.136Z" fill="white"/>
<path d="M29.9717 83.5643C29.8794 83.5617 29.7871 83.5592 29.6936 83.558C28.4527 83.5296 27.2117 83.602 25.9826 83.7746C25.8874 83.7864 25.791 83.7999 25.6963 83.8144C22.7395 84.2617 19.8915 85.2541 17.297 86.7409C16.2651 87.3336 15.2799 88.0039 14.3496 88.746C13.0651 89.771 11.7538 90.9846 10.25 91.5099C10.0937 91.5664 9.93408 91.6132 9.772 91.6501L2.79293 86.8282C2.78258 86.8093 2.77104 86.7919 2.7606 86.7729L2.47314 86.5932C2.51844 86.5515 2.56632 86.5093 2.61162 86.4677C2.63781 86.4434 2.66554 86.4203 2.69171 86.3961C2.70965 86.3801 2.72769 86.3644 2.74297 86.349C2.74893 86.3438 2.75495 86.3385 2.75981 86.3349C2.7751 86.3196 2.79093 86.307 2.80511 86.2932C3.07209 86.0566 3.34119 85.8214 3.61241 85.5878C3.61241 85.5878 3.61351 85.5861 3.61618 85.5856C5.68734 83.8104 7.92493 82.1923 10.337 80.9653C10.4095 80.9285 10.4831 80.8899 10.5589 80.8552C11.6492 80.3083 12.7824 79.8512 13.9471 79.4889C14.5855 79.2924 15.2335 79.1285 15.8885 78.9977C17.5815 78.6627 19.3168 78.5962 21.0305 78.8006C24.4468 79.2084 27.6945 80.7042 29.8118 83.3599C29.8659 83.4278 29.9186 83.4947 29.9717 83.5643Z" fill="#F2F2F2"/>
<path d="M29.8952 83.6421C25.943 81.9312 21.5522 81.5092 17.3465 82.4357C16.4376 82.6192 15.5632 82.9447 14.7556 83.4004C13.9833 83.8698 13.3507 84.5372 12.9236 85.3337C12.5105 86.0683 12.173 86.8677 11.5885 87.489C11.2846 87.8027 10.9178 88.0486 10.5122 88.2105C10.1066 88.3724 9.67133 88.4468 9.23497 88.4287C8.1465 88.4121 7.12897 88.0052 6.14774 87.5728C5.05827 87.0926 3.93424 86.5767 2.71621 86.6229C2.56863 86.6284 2.56857 86.3991 2.71594 86.3935C4.83511 86.3132 6.55544 87.8259 8.59348 88.1437C9.54446 88.292 10.5459 88.1545 11.2738 87.4786C11.9103 86.8876 12.2591 86.0637 12.671 85.3163C13.0762 84.5332 13.6671 83.8612 14.3919 83.3591C15.1736 82.8638 16.0339 82.5052 16.936 82.2985C18.9596 81.8008 21.0487 81.6244 23.127 81.7756C25.4999 81.9351 27.8281 82.4993 30.0107 83.4439C30.1458 83.5025 30.0294 83.7002 29.8952 83.6421Z" fill="white"/>
<path d="M18.6827 82.0575C18.623 81.3309 18.8236 80.6066 19.2487 80.014C19.6737 79.4216 20.2955 78.9994 21.003 78.8231C21.1463 78.7879 21.2077 79.0089 21.0643 79.0442C20.4051 79.2071 19.8259 79.6004 19.4312 80.153C19.0366 80.7054 18.8524 81.3809 18.912 82.0572C18.9248 82.2043 18.6954 82.2038 18.6827 82.0575Z" fill="white"/>
<path d="M13.0832 84.9336C14.2112 85.908 15.6651 86.4213 17.1549 86.3714C17.3025 86.3663 17.3026 86.5956 17.1552 86.6007C15.6048 86.6499 14.0929 86.1125 12.9213 85.096C12.8097 84.999 12.9722 84.8373 13.0832 84.9336Z" fill="white"/>
<path d="M25.3598 82.2053C25.3243 82.4912 25.3603 82.7816 25.4648 83.0502C25.5693 83.3188 25.7388 83.5573 25.9581 83.7442C26.0708 83.8396 25.9082 84.0014 25.7961 83.9065C25.5547 83.6989 25.3678 83.4353 25.2518 83.1387C25.1357 82.8423 25.0941 82.5218 25.1304 82.2055C25.1313 82.1754 25.1437 82.1468 25.165 82.1255C25.1863 82.1041 25.2148 82.0917 25.245 82.0907C25.2753 82.0908 25.3044 82.1029 25.3258 82.1243C25.3474 82.1458 25.3596 82.1749 25.3598 82.2053Z" fill="white"/>
<path d="M144.573 104.108C142.616 99.2874 138.209 95.2018 133.017 94.8534C136.269 99.484 137.778 105.116 137.276 110.752C137.076 112.925 136.626 115.32 137.847 117.128C138.607 118.254 139.907 118.922 141.236 119.201C142.565 119.481 143.939 119.415 145.295 119.35L145.604 119.49C146.407 114.349 146.53 108.93 144.573 104.108Z" fill="#F2F2F2"/>
<path d="M132.995 94.9603C136.597 97.3216 139.363 100.758 140.901 104.781C141.247 105.641 141.455 106.55 141.519 107.475C141.551 108.378 141.341 109.274 140.91 110.068C140.524 110.817 140.041 111.538 139.843 112.368C139.749 112.795 139.745 113.236 139.833 113.663C139.92 114.092 140.097 114.496 140.352 114.851C140.964 115.751 141.863 116.377 142.765 116.959C143.765 117.605 144.813 118.261 145.444 119.304C145.52 119.431 145.712 119.305 145.636 119.178C144.538 117.364 142.329 116.758 140.943 115.23C140.296 114.517 139.861 113.605 140.026 112.625C140.169 111.768 140.666 111.024 141.064 110.27C141.495 109.501 141.732 108.638 141.753 107.757C141.737 106.831 141.564 105.915 141.241 105.048C140.544 103.084 139.544 101.242 138.275 99.5885C136.837 97.6939 135.087 96.0591 133.097 94.7548C132.974 94.6742 132.873 94.8801 132.995 94.9603Z" fill="white"/>
<path d="M140.48 103.456C141.12 103.106 141.615 102.541 141.876 101.86C142.137 101.179 142.148 100.428 141.907 99.7398C141.857 99.6007 141.639 99.6709 141.688 99.8101C141.914 100.45 141.904 101.15 141.659 101.784C141.415 102.417 140.952 102.942 140.354 103.264C140.224 103.334 140.351 103.526 140.48 103.456Z" fill="white"/>
<path d="M141.156 109.714C139.722 109.307 138.494 108.375 137.716 107.103C137.639 106.977 137.448 107.103 137.525 107.229C138.335 108.551 139.615 109.519 141.109 109.939C141.251 109.979 141.297 109.754 141.156 109.714Z" fill="white"/>
<path d="M136.686 97.9588C136.468 98.1457 136.205 98.2752 135.924 98.3356C135.642 98.3959 135.349 98.3854 135.072 98.3049C134.931 98.2631 134.885 98.4879 135.026 98.5294C135.332 98.6169 135.655 98.6282 135.966 98.5622C136.277 98.4961 136.569 98.3548 136.812 98.1506C136.837 98.1333 136.854 98.1072 136.86 98.0777C136.866 98.0482 136.861 98.0175 136.846 97.9918C136.829 97.9665 136.803 97.9488 136.773 97.9427C136.744 97.9366 136.712 97.9423 136.686 97.9588Z" fill="white"/>
<path d="M120.906 107.646C120.993 107.675 121.081 107.704 121.169 107.734C122.348 108.124 123.492 108.609 124.592 109.186C124.677 109.228 124.763 109.273 124.848 109.319C127.483 110.734 129.831 112.626 131.775 114.899C132.547 115.803 133.251 116.766 133.877 117.777C134.742 119.175 135.569 120.758 136.809 121.759C136.938 121.864 137.072 121.962 137.213 122.051L145.406 119.855C145.422 119.841 145.439 119.828 145.456 119.814L145.787 119.741C145.757 119.687 145.727 119.631 145.698 119.576C145.681 119.545 145.663 119.514 145.647 119.482C145.636 119.461 145.623 119.44 145.614 119.42C145.611 119.414 145.607 119.407 145.603 119.402C145.594 119.382 145.584 119.365 145.574 119.347C145.403 119.034 145.228 118.723 145.051 118.412C145.051 118.41 145.051 118.41 145.049 118.408C143.695 116.04 142.131 113.764 140.271 111.798C140.216 111.738 140.159 111.678 140.099 111.62C139.256 110.738 138.343 109.927 137.368 109.194C136.832 108.794 136.277 108.422 135.704 108.078C134.222 107.194 132.61 106.549 130.927 106.165C127.573 105.401 124.011 105.718 121.124 107.507C121.05 107.554 120.979 107.599 120.906 107.646Z" fill="#F2F2F2"/>
<path d="M120.952 107.745C125.249 107.462 129.526 108.54 133.175 110.827C133.97 111.305 134.684 111.906 135.292 112.606C135.861 113.308 136.233 114.149 136.367 115.042C136.509 115.874 136.558 116.74 136.901 117.521C137.081 117.919 137.344 118.273 137.672 118.563C137.999 118.851 138.384 119.068 138.801 119.198C139.832 119.547 140.927 119.507 141.997 119.429C143.184 119.343 144.416 119.235 145.547 119.688C145.685 119.743 145.762 119.526 145.624 119.471C143.655 118.684 141.527 119.531 139.501 119.145C138.555 118.964 137.658 118.498 137.2 117.618C136.8 116.847 136.748 115.954 136.611 115.111C136.493 114.238 136.162 113.406 135.648 112.689C135.078 111.96 134.389 111.333 133.608 110.836C131.87 109.687 129.962 108.818 127.953 108.262C125.665 107.615 123.283 107.364 120.909 107.519C120.762 107.53 120.806 107.755 120.952 107.745Z" fill="white"/>
<path d="M132.045 110.021C132.346 109.357 132.4 108.608 132.199 107.907C131.997 107.206 131.554 106.6 130.947 106.196C130.823 106.114 130.691 106.302 130.815 106.383C131.381 106.758 131.794 107.323 131.98 107.976C132.166 108.629 132.112 109.327 131.828 109.944C131.767 110.079 131.983 110.154 132.045 110.021Z" fill="white"/>
<path d="M136.35 114.613C134.961 115.151 133.419 115.145 132.033 114.598C131.895 114.543 131.818 114.759 131.956 114.813C133.399 115.381 135.004 115.383 136.449 114.82C136.586 114.766 136.488 114.558 136.35 114.613Z" fill="white"/>
<path d="M125.705 107.916C125.643 108.198 125.511 108.459 125.323 108.677C125.134 108.895 124.894 109.063 124.625 109.165C124.487 109.217 124.586 109.424 124.723 109.372C125.02 109.257 125.285 109.072 125.493 108.832C125.702 108.591 125.849 108.304 125.922 107.994C125.93 107.965 125.928 107.934 125.916 107.907C125.903 107.88 125.88 107.858 125.852 107.847C125.823 107.837 125.792 107.839 125.765 107.852C125.737 107.865 125.716 107.888 125.705 107.916Z" fill="white"/>
<path d="M106.612 120.524C107.676 120.524 108.54 119.662 108.54 118.597C108.54 117.533 107.676 116.67 106.612 116.67C105.547 116.67 104.684 117.533 104.684 118.597C104.684 119.662 105.547 120.524 106.612 120.524Z" fill="#FD6584"/>
<path d="M113.439 87.6914C114.504 87.6914 115.366 86.8283 115.366 85.7636C115.366 84.699 114.504 83.8359 113.439 83.8359C112.374 83.8359 111.511 84.699 111.511 85.7636C111.511 86.8283 112.374 87.6914 113.439 87.6914Z" fill="#E6E6E6"/>
<path d="M77.5694 34.2199C78.634 34.2199 79.4971 33.3569 79.4971 32.2922C79.4971 31.2275 78.634 30.3645 77.5694 30.3645C76.5047 30.3645 75.6416 31.2275 75.6416 32.2922C75.6416 33.3569 76.5047 34.2199 77.5694 34.2199Z" fill="#E6E6E6"/>
<path d="M37.1724 106.24C37.1724 106.731 37.1886 107.221 37.223 107.708C37.2593 108.29 37.3218 108.867 37.4066 109.441C37.6918 111.371 38.2366 113.256 39.0262 115.04C39.0667 115.129 39.107 115.218 39.1474 115.307L39.208 115.44C39.2282 115.485 39.2503 115.528 39.2706 115.571C39.2988 115.63 39.3251 115.687 39.3534 115.743C39.3877 115.813 39.4221 115.884 39.4584 115.955C39.4624 115.963 39.4665 115.973 39.4725 115.983C39.5028 116.043 39.5311 116.103 39.5634 116.163C39.5693 116.176 39.5761 116.189 39.5836 116.202C39.6179 116.27 39.6543 116.341 39.6906 116.41C39.731 116.482 39.7694 116.556 39.8098 116.629C39.9067 116.809 40.0076 116.987 40.1106 117.164C40.1409 117.217 40.1712 117.269 40.2036 117.322C40.2318 117.37 40.2601 117.419 40.2904 117.467C40.3106 117.499 40.3307 117.534 40.3509 117.566C40.3833 117.621 40.4156 117.673 40.4499 117.728C40.5246 117.847 40.6014 117.967 40.6761 118.085H40.6781C40.7125 118.14 40.7488 118.194 40.7852 118.246V118.249C40.8922 118.411 41.0032 118.572 41.1143 118.731C41.1141 118.731 41.1146 118.731 41.1143 118.731C41.1146 118.731 41.1156 118.732 41.1157 118.732C41.1156 118.732 41.1159 118.732 41.1157 118.732C41.1158 118.734 41.1163 118.734 41.1163 118.734C41.2052 118.863 41.298 118.988 41.389 119.113V119.115C41.4495 119.195 41.5081 119.275 41.5687 119.354C41.6172 119.418 41.6677 119.485 41.7181 119.549C41.7282 119.564 41.7403 119.575 41.7504 119.59V119.592C41.7645 119.61 41.7787 119.626 41.7928 119.644C42.0069 119.919 42.2276 120.187 42.4552 120.451L42.4915 120.492C42.5036 120.507 42.5178 120.52 42.5299 120.537C42.5501 120.559 42.5682 120.582 42.5884 120.604C42.6066 120.625 42.6268 120.648 42.647 120.67C43.833 122.006 45.1779 123.193 46.6515 124.202C46.8474 124.337 47.0473 124.469 47.2473 124.595C47.2978 124.629 47.3482 124.661 47.3987 124.691C47.4128 124.701 47.429 124.711 47.4431 124.721C47.4714 124.737 47.4977 124.754 47.5259 124.771C47.5522 124.788 47.5784 124.804 47.6067 124.82C47.7137 124.887 47.8228 124.951 47.9318 125.016C47.958 125.033 47.9863 125.048 48.0147 125.065C48.0409 125.078 48.0691 125.095 48.0974 125.111C48.0974 125.113 48.0974 125.113 48.0995 125.113H48.1014V125.115H48.1034C48.2388 125.194 48.3761 125.271 48.5154 125.345C48.5901 125.385 48.6668 125.428 48.7436 125.466C48.9173 125.561 49.093 125.652 49.2686 125.739C49.3313 125.769 49.3959 125.799 49.4584 125.832C49.511 125.856 49.5634 125.883 49.616 125.907C49.6321 125.915 49.6463 125.92 49.6604 125.929C49.7049 125.949 49.7472 125.969 49.7917 125.989C49.8402 126.012 49.8886 126.034 49.9351 126.055C49.9896 126.08 50.0421 126.104 50.0966 126.126C50.2986 126.218 50.5025 126.304 50.7065 126.387C51.4374 126.687 52.1844 126.945 52.944 127.163C52.9783 127.173 53.0146 127.183 53.051 127.193C53.3762 127.283 53.7032 127.367 54.0325 127.442C54.608 127.575 55.1889 127.684 55.7752 127.768H55.7792C55.8499 127.779 55.9186 127.788 55.9892 127.799C55.9954 127.799 56.0014 127.801 56.0094 127.801C56.0094 127.803 56.0094 127.803 56.0115 127.801C56.0882 127.811 56.167 127.82 56.2437 127.831C56.249 127.833 56.2544 127.833 56.2599 127.833C56.3325 127.843 56.4072 127.852 56.48 127.859C56.5587 127.867 56.6374 127.876 56.7162 127.884C56.7768 127.889 56.8375 127.895 56.898 127.902C56.9032 127.904 56.9086 127.904 56.9141 127.904C56.9687 127.908 57.0232 127.914 57.0777 127.918H57.0857C57.1323 127.922 57.1807 127.926 57.2272 127.93C57.7906 127.974 58.356 127.994 58.9295 127.994C59.5495 127.994 60.1653 127.97 60.7732 127.918H60.7793C60.9105 127.906 61.0398 127.893 61.169 127.882C61.2034 127.878 61.2356 127.876 61.27 127.871C61.276 127.871 61.2841 127.869 61.2902 127.869C61.3003 127.867 61.3104 127.867 61.3225 127.865C61.3279 127.865 61.3335 127.865 61.3387 127.863C61.3831 127.859 61.4275 127.854 61.4739 127.85L61.6254 127.831C61.6759 127.825 61.7264 127.817 61.7769 127.811C61.7889 127.809 61.799 127.809 61.8112 127.807C61.8475 127.803 61.8838 127.796 61.9203 127.79C61.9384 127.788 61.9566 127.787 61.9727 127.785C62.0091 127.779 62.0434 127.775 62.0798 127.768H62.0818C63.1899 127.609 64.2838 127.363 65.3533 127.032C65.4098 127.013 65.4663 126.997 65.5229 126.979C65.5249 126.979 65.5269 126.976 65.5289 126.976C65.545 126.971 65.5633 126.967 65.5794 126.961C65.7308 126.912 65.8803 126.862 66.0298 126.809C66.2357 126.74 66.4397 126.666 66.6437 126.589C66.6982 126.566 66.7527 126.547 66.8072 126.525C66.9183 126.482 67.0273 126.437 67.1364 126.394C67.3222 126.319 67.5079 126.24 67.6917 126.159C67.8634 126.083 68.033 126.006 68.2026 125.924C68.2066 125.922 68.2127 125.922 68.2167 125.919C68.2551 125.9 68.2935 125.883 68.3298 125.864H68.3319C69.2618 125.418 70.1587 124.906 71.0156 124.331C71.2902 124.148 71.5609 123.958 71.8274 123.762C72.0415 123.603 72.2515 123.44 72.4615 123.275C73.4977 122.451 74.4567 121.535 75.3271 120.537V120.535C75.3897 120.466 75.4482 120.395 75.5088 120.325C75.5189 120.315 75.527 120.305 75.535 120.297C75.5734 120.25 75.6097 120.206 75.6481 120.161V120.159C75.6986 120.101 75.7491 120.041 75.7976 119.979C75.8097 119.966 75.8197 119.953 75.8299 119.942V119.94C75.8703 119.891 75.9086 119.842 75.949 119.792C75.9693 119.768 75.9874 119.743 76.0076 119.719V119.717C76.1267 119.568 76.2418 119.418 76.3569 119.264C76.3872 119.225 76.4175 119.182 76.4499 119.139C76.5952 118.944 76.7367 118.744 76.8739 118.544V118.542C76.9265 118.467 76.9769 118.39 77.0294 118.315C77.0799 118.239 77.1304 118.162 77.1809 118.085C77.2314 118.005 77.2838 117.926 77.3343 117.845L77.3404 117.833C77.3909 117.756 77.4414 117.675 77.4899 117.597C77.5282 117.532 77.5666 117.469 77.605 117.407C77.6292 117.364 77.6554 117.322 77.6797 117.278C77.6892 117.264 77.6979 117.25 77.7059 117.235C77.7624 117.136 77.819 117.037 77.8755 116.938C77.9421 116.823 78.0069 116.706 78.0714 116.589C78.0956 116.541 78.122 116.492 78.1482 116.444C78.1583 116.427 78.1663 116.412 78.1744 116.395C78.2047 116.339 78.235 116.28 78.2633 116.221C78.2936 116.165 78.3239 116.106 78.3541 116.048C78.3824 115.991 78.4127 115.933 78.441 115.874C78.4632 115.83 78.4834 115.785 78.5056 115.741C78.5072 115.737 78.5092 115.734 78.5117 115.731C78.5218 115.708 78.5319 115.689 78.54 115.668C78.5424 115.665 78.5445 115.662 78.546 115.658C78.5682 115.614 78.5884 115.567 78.6106 115.523C78.6389 115.464 78.6652 115.403 78.6934 115.345C78.7116 115.305 78.7318 115.262 78.75 115.22C78.7762 115.161 78.8045 115.103 78.8287 115.042C78.857 114.982 78.8832 114.921 78.9095 114.858C78.917 114.844 78.9238 114.828 78.9297 114.812C78.9439 114.783 78.954 114.755 78.966 114.727C78.9983 114.652 79.0307 114.576 79.0609 114.501C79.0973 114.416 79.1316 114.33 79.164 114.244C79.1962 114.166 79.2265 114.085 79.2568 114.004L79.269 113.976C79.7394 112.736 80.0964 111.457 80.3352 110.153V110.151C80.4699 109.407 80.5662 108.656 80.624 107.901C80.626 107.859 80.63 107.819 80.632 107.779C80.6684 107.268 80.6845 106.755 80.6845 106.24C80.6845 106.012 80.6805 105.785 80.6745 105.559C80.5335 100.829 78.8468 96.2751 75.8723 92.5945C75.8077 92.5137 75.743 92.4329 75.6764 92.3521C75.6097 92.2714 75.5412 92.1926 75.4745 92.1138C73.2607 89.5214 70.4689 87.4853 67.3238 86.1699C64.1788 84.8543 60.7687 84.2962 57.3684 84.5404C53.9682 84.7848 50.6728 85.8245 47.7481 87.576C44.8234 89.3275 42.3512 91.7417 40.5308 94.624C40.4318 94.7815 40.3328 94.941 40.2379 95.1006C40.1409 95.2621 40.0481 95.4237 39.9552 95.5873C38.1257 98.8391 37.1672 102.508 37.1724 106.24Z" fill="#F2F2F2"/>
<path d="M58.0645 92.0095C61.642 92.9275 65.3082 93.4566 68.9993 93.5878C69.5574 93.6182 70.1169 93.6144 70.6746 93.5764C71.9002 93.4733 72.95 93.0882 74.1192 92.8776C74.6812 92.7767 75.3073 92.7029 75.8732 92.5939C75.7424 92.4316 75.6093 92.2715 75.4739 92.1132C74.2537 92.2162 73.0145 92.5537 71.7798 92.7105C69.6807 92.9774 67.3289 92.6796 65.7376 91.945C64.9655 91.5886 64.3742 91.1437 63.6049 90.7856C63.5002 90.7319 63.3869 90.6972 63.2701 90.683C63.0484 90.6764 62.8292 90.7333 62.6387 90.8469C61.348 91.4985 59.4741 92.0281 57.7347 91.7367C57.6051 91.8381 57.8514 91.9537 58.0645 92.0095Z" fill="white"/>
<path d="M50.3686 94.3026C50.3526 94.2997 50.3367 94.2974 50.3208 94.2947C50.3876 94.2533 50.4506 94.2058 50.5087 94.1531L50.3686 94.3026Z" fill="white"/>
<path d="M39.9551 95.5881C40.6814 95.6462 41.4118 95.6894 42.1457 95.7178C42.7039 95.7479 43.2634 95.7441 43.8212 95.7064C45.0467 95.6027 46.0965 95.2181 47.2656 95.0076C48.3372 94.815 49.6392 94.7222 50.3196 94.2947C48.5612 93.9903 46.7394 94.6099 44.9262 94.8405C43.4597 95.0209 41.9729 94.9474 40.5312 94.6235C40.3304 94.9393 40.1384 95.2607 39.9551 95.5881Z" fill="white"/>
<path d="M48.7432 125.466C48.9168 125.561 49.0925 125.652 49.2682 125.739C49.3308 125.769 49.3954 125.799 49.458 125.832C49.5105 125.856 49.563 125.883 49.6155 125.907C49.6317 125.915 49.6458 125.92 49.66 125.929C49.7044 125.949 49.7468 125.969 49.7912 125.989C49.8397 126.012 49.8882 126.034 49.9346 126.055C49.9891 126.08 50.0416 126.104 50.0961 126.126C50.2981 126.218 50.5021 126.304 50.706 126.387C51.437 126.687 52.184 126.945 52.9435 127.163C52.9779 127.173 53.0142 127.183 53.0505 127.193C53.3757 127.283 53.7028 127.367 54.032 127.442C54.6075 127.575 55.1884 127.684 55.7747 127.768H55.7788C55.8494 127.779 55.9181 127.788 55.9888 127.799C55.9948 127.799 56.0009 127.801 56.0089 127.801C56.0089 127.803 56.0089 127.803 56.011 127.801C56.0877 127.811 56.1665 127.82 56.2432 127.831C56.2485 127.833 56.2539 127.833 56.2594 127.833C56.3321 127.843 56.4068 127.852 56.4795 127.859C56.5582 127.867 56.637 127.876 56.7158 127.884C56.7763 127.889 56.8369 127.895 56.8976 127.902C56.9027 127.904 56.9082 127.904 56.9137 127.904C56.9682 127.908 57.0227 127.914 57.0773 127.918H57.0853C57.1318 127.922 57.1802 127.926 57.2267 127.93C57.7901 127.974 58.3555 127.994 58.929 127.994C59.549 127.994 60.1649 127.97 60.7727 127.918H60.7788C60.9101 127.906 61.0393 127.893 61.1686 127.882C61.2029 127.878 61.2352 127.876 61.2695 127.871C61.2755 127.871 61.2837 127.869 61.2897 127.869C61.2998 127.867 61.3099 127.867 61.3221 127.865C61.3275 127.865 61.333 127.865 61.3382 127.863C61.3826 127.859 61.4271 127.854 61.4735 127.85L61.625 127.831C61.6755 127.825 61.7259 127.817 61.7764 127.811C61.7885 127.809 61.7986 127.809 61.8108 127.807C61.8471 127.803 61.8834 127.796 61.9198 127.79C61.9379 127.788 61.9561 127.787 61.9723 127.785C62.0087 127.779 62.0429 127.775 62.0793 127.768H62.0813C63.1894 127.609 64.2833 127.363 65.3528 127.032C65.4093 127.013 65.4658 126.997 65.5224 126.979C65.2616 125.763 64.7249 124.623 63.9534 123.647C63.1821 122.672 62.1967 121.887 61.0737 121.353C61.3514 121.088 61.5435 120.746 61.625 120.371C61.6773 120.13 61.6815 119.88 61.6372 119.637C61.5928 119.393 61.5008 119.161 61.3665 118.954C61.1045 118.551 60.6933 118.269 60.2235 118.171L57.2308 117.544C56.749 117.45 56.2495 117.55 55.8412 117.823C55.4327 118.095 55.1483 118.517 55.0498 118.998C55.0192 119.146 55.0057 119.297 55.0094 119.446C52.1277 121.365 50.0538 123.354 48.7432 125.466Z" fill="#199886"/>
<path d="M57.5802 116.362C61.0237 116.362 63.8153 113.571 63.8153 110.127C63.8153 106.684 61.0237 103.892 57.5802 103.892C54.1367 103.892 51.3452 106.684 51.3452 110.127C51.3452 113.571 54.1367 116.362 57.5802 116.362Z" fill="#FFB8B8"/>
<path d="M53.6948 115.502C53.0299 115.049 52.3509 114.176 51.8977 113.522C51.297 112.661 50.8837 111.685 50.6845 110.656C50.4854 109.626 50.5048 108.565 50.7416 107.545C50.8171 107.136 51.0026 106.756 51.2783 106.445C51.572 106.154 52.0516 106.016 52.41 106.222C52.3122 105.96 52.2691 105.681 52.2835 105.401C52.2977 105.122 52.3691 104.849 52.4931 104.598C52.7451 104.098 53.11 103.663 53.5593 103.328C54.4183 102.667 55.4404 102.25 56.5171 102.123C57.5938 101.995 58.685 102.162 59.6747 102.604C60.0641 102.785 59.4245 101.391 59.8321 101.525C60.2371 101.682 60.6873 101.674 61.0865 101.503C61.47 101.31 62.7408 102.457 62.5937 102.054C62.8847 102.186 63.1375 102.389 63.3285 102.646C63.5197 102.902 63.6428 103.202 63.6866 103.519C63.7303 103.835 63.6933 104.157 63.5789 104.456C63.4646 104.754 63.2765 105.019 63.0323 105.225C62.7105 105.497 62.3087 105.653 61.9564 105.884C61.339 106.318 60.9021 106.963 60.7281 107.698C60.554 108.432 60.6548 109.204 61.0115 109.87C60.6408 109.632 60.2341 109.455 59.807 109.347C59.5927 109.294 59.3691 109.294 59.1547 109.346C58.9403 109.397 58.7413 109.499 58.5743 109.642C58.4346 109.803 58.3292 109.989 58.2644 110.191C58.1995 110.393 58.1766 110.606 58.1971 110.817C58.2112 111.241 58.3118 111.657 58.3232 112.081C58.3562 113.322 59.0213 115.683 58.0585 116.343C57.2987 116.865 54.6026 116.123 53.6948 115.502Z" fill="#2F2E41"/>
<path d="M163.891 8.3296H0.86089C0.806202 8.32838 0.754163 8.30581 0.715915 8.2667C0.677666 8.22759 0.65625 8.17506 0.65625 8.12036C0.65625 8.06566 0.677666 8.01314 0.715915 7.97403C0.754163 7.93492 0.806202 7.91235 0.86089 7.91113H163.891C163.945 7.91235 163.997 7.93492 164.035 7.97403C164.074 8.01314 164.095 8.06566 164.095 8.12036C164.095 8.17506 164.074 8.22759 164.035 8.2667C163.997 8.30581 163.945 8.32838 163.891 8.3296Z" fill="#CACACA"/>
<path d="M5.46866 5.40034C6.71206 5.40034 7.72003 4.3699 7.72003 3.09879C7.72003 1.82768 6.71206 0.797241 5.46866 0.797241C4.22525 0.797241 3.21729 1.82768 3.21729 3.09879C3.21729 4.3699 4.22525 5.40034 5.46866 5.40034Z" fill="#3F3D56"/>
<path d="M13.245 5.40034C14.4885 5.40034 15.4964 4.3699 15.4964 3.09879C15.4964 1.82768 14.4885 0.797241 13.245 0.797241C12.0016 0.797241 10.9937 1.82768 10.9937 3.09879C10.9937 4.3699 12.0016 5.40034 13.245 5.40034Z" fill="#3F3D56"/>
<path d="M21.0233 5.40034C22.2668 5.40034 23.2747 4.3699 23.2747 3.09879C23.2747 1.82768 22.2668 0.797241 21.0233 0.797241C19.7799 0.797241 18.772 1.82768 18.772 3.09879C18.772 4.3699 19.7799 5.40034 21.0233 5.40034Z" fill="#3F3D56"/>
<path d="M159.231 2.20509H153.705C153.596 2.20267 153.492 2.15753 153.415 2.07932C153.339 2.0011 153.296 1.89604 153.296 1.78663C153.296 1.67722 153.339 1.57216 153.415 1.49394C153.492 1.41573 153.596 1.37058 153.705 1.36816H159.231C159.34 1.37058 159.444 1.41573 159.521 1.49394C159.598 1.57216 159.641 1.67722 159.641 1.78663C159.641 1.89604 159.598 2.0011 159.521 2.07932C159.444 2.15753 159.34 2.20267 159.231 2.20509Z" fill="#3F3D56"/>
<path d="M159.231 3.77431H153.705C153.596 3.7719 153.492 3.72676 153.415 3.64854C153.339 3.57033 153.296 3.46526 153.296 3.35584C153.296 3.24642 153.339 3.14135 153.415 3.06314C153.492 2.98493 153.596 2.93978 153.705 2.93738H159.231C159.34 2.93978 159.445 2.98493 159.521 3.06314C159.598 3.14135 159.641 3.24642 159.641 3.35584C159.641 3.46526 159.598 3.57033 159.521 3.64854C159.445 3.72676 159.34 3.7719 159.231 3.77431Z" fill="#3F3D56"/>
<path d="M159.231 5.34352H153.705C153.596 5.34112 153.492 5.29597 153.415 5.21776C153.339 5.13954 153.296 5.03448 153.296 4.92506C153.296 4.81564 153.339 4.71057 153.415 4.63235C153.492 4.55414 153.596 4.509 153.705 4.50659H159.231C159.34 4.509 159.445 4.55414 159.521 4.63235C159.598 4.71057 159.641 4.81564 159.641 4.92506C159.641 5.03448 159.598 5.13954 159.521 5.21776C159.445 5.29597 159.34 5.34112 159.231 5.34352Z" fill="#3F3D56"/>
<path d="M61.8677 78.9191C61.7364 78.9189 61.6064 78.8925 61.4853 78.8419C61.3045 78.7692 61.15 78.6437 61.0418 78.4817C60.9334 78.3198 60.8767 78.1289 60.8787 77.9341V76.9472C60.8785 76.7402 60.7962 76.5416 60.6499 76.3953C60.5035 76.2489 60.305 76.1666 60.098 76.1663C59.8374 76.1661 59.5876 76.0624 59.4034 75.8781C59.2191 75.6939 59.1155 75.4441 59.1152 75.1835V61.6626C59.1155 61.402 59.2191 61.1523 59.4034 60.968C59.5876 60.7838 59.8373 60.6801 60.0979 60.6798H104.893C105.155 60.6801 105.404 60.7838 105.589 60.968C105.773 61.1523 105.876 61.402 105.877 61.6626V75.1835C105.876 75.4441 105.773 75.6939 105.589 75.8781C105.404 76.0624 105.155 76.1661 104.893 76.1663H65.3426C65.2399 76.1661 65.1384 76.1861 65.0436 76.2254C64.9488 76.2646 64.8627 76.3223 64.7904 76.395L62.5565 78.6289C62.4666 78.7204 62.3594 78.7933 62.2412 78.8431C62.123 78.8929 61.9961 78.9188 61.8677 78.9191Z" fill="white"/>
<path d="M61.8665 79.121C61.7086 79.1208 61.5523 79.0893 61.4067 79.0283C61.1888 78.9407 61.0026 78.7894 60.8721 78.5942C60.7417 78.3989 60.6732 78.1688 60.6756 77.934V76.9471C60.6755 76.7937 60.6145 76.6465 60.506 76.5379C60.3974 76.4294 60.2503 76.3683 60.0968 76.3682C59.7827 76.3678 59.4816 76.2428 59.2595 76.0207C59.0373 75.7986 58.9124 75.4975 58.9121 75.1833V61.6626C58.9124 61.3484 59.0373 61.0473 59.2594 60.8251C59.4816 60.6031 59.7826 60.4782 60.0967 60.4778H104.892C105.207 60.4782 105.507 60.6031 105.73 60.8251C105.952 61.0473 106.077 61.3484 106.077 61.6626V75.1833C106.077 75.4975 105.952 75.7986 105.73 76.0207C105.507 76.2428 105.207 76.3678 104.892 76.3682H65.3413C65.2652 76.3679 65.1899 76.3828 65.1197 76.4119C65.0493 76.4411 64.9855 76.4838 64.9319 76.5377L62.6981 78.7716C62.5894 78.8819 62.4601 78.9696 62.3173 79.0296C62.1746 79.0896 62.0213 79.1206 61.8665 79.121ZM60.0967 60.8817C59.8897 60.882 59.6912 60.9643 59.5448 61.1107C59.3985 61.257 59.3162 61.4555 59.316 61.6626V75.1833C59.3162 75.3904 59.3985 75.5889 59.5449 75.7353C59.6912 75.8817 59.8898 75.964 60.0968 75.9643C60.3574 75.9647 60.6071 76.0683 60.7914 76.2526C60.9756 76.4368 61.0793 76.6867 61.0795 76.9472V77.934C61.0796 78.0884 61.1254 78.2394 61.2111 78.3677C61.297 78.4961 61.4189 78.5961 61.5616 78.6552C61.7043 78.7144 61.8612 78.7298 62.0127 78.6997C62.1641 78.6695 62.3033 78.5952 62.4124 78.486L64.6464 76.2522C64.7374 76.1606 64.8457 76.0881 64.965 76.0386C65.0843 75.9892 65.2122 75.9639 65.3413 75.9643H104.892C105.1 75.964 105.298 75.8817 105.444 75.7353C105.591 75.5889 105.673 75.3904 105.673 75.1833V61.6626C105.673 61.4555 105.591 61.257 105.444 61.1106C105.298 60.9642 105.1 60.8819 104.892 60.8817H60.0967Z" fill="#3F3D56"/>
<path d="M101.045 66.8011H64.72C64.5812 66.8011 64.4481 66.7461 64.35 66.6479C64.2519 66.5498 64.1968 66.4167 64.1968 66.278C64.1968 66.1392 64.2519 66.0061 64.35 65.908C64.4481 65.8099 64.5812 65.7548 64.72 65.7548H101.045C101.183 65.7548 101.316 65.8099 101.415 65.908C101.513 66.0061 101.568 66.1392 101.568 66.278C101.568 66.4167 101.513 66.5498 101.415 66.6479C101.316 66.7461 101.183 66.8011 101.045 66.8011Z" fill="#199886"/>
<path d="M100.978 69.0239H64.72C64.5812 69.0239 64.4481 68.9688 64.35 68.8707C64.2519 68.7726 64.1968 68.6395 64.1968 68.5008C64.1968 68.362 64.2519 68.2289 64.35 68.1308C64.4481 68.0327 64.5812 67.9775 64.72 67.9775H100.978C101.117 67.9775 101.25 68.0327 101.348 68.1308C101.446 68.2289 101.501 68.362 101.501 68.5008C101.501 68.6395 101.446 68.7726 101.348 68.8707C101.25 68.9688 101.117 69.0239 100.978 69.0239Z" fill="#E6E6E6"/>
<path d="M100.942 71.2465H64.72C64.5812 71.2465 64.4481 71.1914 64.35 71.0933C64.2519 70.9951 64.1968 70.862 64.1968 70.7233C64.1968 70.5846 64.2519 70.4515 64.35 70.3534C64.4481 70.2552 64.5812 70.2001 64.72 70.2001H100.942C101.081 70.2001 101.214 70.2552 101.312 70.3534C101.41 70.4515 101.465 70.5846 101.465 70.7233C101.465 70.862 101.41 70.9951 101.312 71.0933C101.214 71.1914 101.081 71.2465 100.942 71.2465Z" fill="#E6E6E6"/>
<path d="M158.247 58.5816C158.247 59.0723 158.231 59.563 158.196 60.0497C158.16 60.6312 158.097 61.2088 158.013 61.7823C157.728 63.7134 157.183 65.5971 156.393 67.3821C156.352 67.471 156.313 67.5598 156.272 67.6487L156.212 67.782C156.191 67.8264 156.169 67.8708 156.148 67.9132C156.12 67.9718 156.094 68.0283 156.066 68.0848C156.032 68.1556 155.997 68.2263 155.961 68.2969C155.957 68.305 155.953 68.3151 155.946 68.3252C155.916 68.3858 155.888 68.4444 155.856 68.5049C155.85 68.5181 155.843 68.531 155.836 68.5432C155.802 68.6119 155.765 68.6826 155.729 68.7513C155.688 68.824 155.65 68.8987 155.609 68.9714C155.513 69.1511 155.412 69.3288 155.309 69.5066C155.278 69.559 155.248 69.6116 155.216 69.664C155.188 69.7125 155.16 69.761 155.13 69.8095C155.109 69.8418 155.089 69.8761 155.068 69.9084C155.036 69.9629 155.004 70.0154 154.969 70.07C154.894 70.1891 154.818 70.3083 154.743 70.4274H154.741C154.707 70.482 154.671 70.5365 154.634 70.5889V70.5909C154.527 70.7525 154.417 70.914 154.305 71.0736C154.305 71.0736 154.304 71.0737 154.304 71.0738C154.304 71.0739 154.304 71.074 154.303 71.0742C154.303 71.074 154.303 71.0744 154.303 71.0742C154.303 71.0745 154.303 71.0753 154.303 71.0757C154.214 71.2049 154.121 71.3301 154.031 71.4553V71.4573C153.97 71.536 153.911 71.6168 153.851 71.6956C153.803 71.7602 153.752 71.8268 153.702 71.8914C153.691 71.9056 153.679 71.9177 153.67 71.9319V71.9339C153.655 71.9521 153.64 71.9682 153.627 71.9863C153.413 72.2611 153.192 72.5295 152.964 72.7921L152.928 72.8346C152.916 72.8487 152.902 72.8628 152.889 72.879C152.869 72.9012 152.852 72.9233 152.831 72.9456C152.813 72.9678 152.792 72.99 152.773 73.0122C151.586 74.3482 150.242 75.5343 148.768 76.5441C148.572 76.6794 148.372 76.8108 148.172 76.9379C148.122 76.9703 148.071 77.0025 148.021 77.0328C148.006 77.0429 147.991 77.053 147.976 77.0631C147.948 77.0793 147.922 77.0955 147.894 77.1137C147.867 77.1298 147.841 77.1459 147.813 77.1621C147.706 77.2288 147.596 77.2934 147.488 77.3579C147.461 77.3742 147.433 77.3903 147.405 77.4064C147.379 77.4206 147.351 77.4367 147.322 77.4529C147.322 77.4549 147.322 77.4549 147.32 77.4549L147.318 77.457H147.316C147.181 77.5357 147.044 77.6125 146.904 77.6872C146.829 77.7276 146.752 77.7699 146.675 77.8083C146.503 77.9032 146.327 77.9941 146.151 78.081C146.088 78.1112 146.024 78.1415 145.961 78.1738C145.908 78.198 145.856 78.2243 145.803 78.2485C145.788 78.2566 145.773 78.2627 145.759 78.2708C145.715 78.291 145.672 78.3111 145.627 78.3313C145.58 78.3535 145.531 78.3758 145.485 78.3979C145.43 78.4222 145.378 78.4464 145.323 78.4687C145.121 78.5596 144.917 78.6463 144.713 78.7292C143.982 79.0288 143.235 79.2877 142.475 79.5047C142.441 79.5148 142.405 79.5248 142.368 79.5348C142.043 79.6258 141.716 79.7085 141.387 79.7832C140.811 79.9166 140.231 80.0256 139.645 80.1104H139.641C139.57 80.1205 139.501 80.1306 139.43 80.1407C139.424 80.1407 139.418 80.1428 139.41 80.1428C139.41 80.1448 139.41 80.1448 139.408 80.1428C139.332 80.1529 139.252 80.163 139.175 80.1731C139.17 80.1746 139.165 80.1753 139.16 80.175C139.087 80.1851 139.012 80.1933 138.939 80.2013C138.861 80.2094 138.782 80.2174 138.703 80.2255C138.643 80.2316 138.582 80.2377 138.522 80.2437C138.517 80.2455 138.51 80.2462 138.505 80.2457C138.451 80.2498 138.396 80.2558 138.342 80.2599H138.334C138.287 80.2639 138.239 80.268 138.192 80.272C137.629 80.3165 137.064 80.3366 136.49 80.3366C135.87 80.3366 135.254 80.3124 134.647 80.2599H134.64C134.509 80.2478 134.38 80.2356 134.25 80.2235C134.216 80.2195 134.183 80.2174 134.149 80.2135C134.144 80.2135 134.136 80.2114 134.129 80.2114C134.119 80.2094 134.11 80.2094 134.097 80.2074C134.092 80.2076 134.086 80.2069 134.08 80.2053C134.037 80.2013 133.992 80.1952 133.945 80.1912L133.794 80.1731C133.743 80.1669 133.693 80.1589 133.642 80.1529C133.631 80.1508 133.62 80.1508 133.608 80.1488C133.572 80.1448 133.535 80.1387 133.499 80.1327C133.481 80.1306 133.463 80.1286 133.447 80.1266C133.41 80.1205 133.376 80.1165 133.34 80.1104H133.337C132.229 79.9509 131.135 79.7045 130.067 79.3733C130.009 79.3552 129.953 79.339 129.897 79.3209C129.895 79.3209 129.893 79.3188 129.891 79.3188C129.874 79.3128 129.856 79.3087 129.84 79.3027C129.689 79.2542 129.539 79.2037 129.389 79.1513C129.184 79.0826 128.98 79.0079 128.776 78.9311C128.721 78.9089 128.667 78.8887 128.612 78.8664C128.502 78.8241 128.392 78.7796 128.283 78.7352C128.098 78.6605 127.912 78.5817 127.727 78.501C127.556 78.4243 127.386 78.3475 127.216 78.2667C127.213 78.2647 127.207 78.2647 127.203 78.2607C127.164 78.2425 127.126 78.2244 127.089 78.2062H127.087C126.158 77.7598 125.261 77.2476 124.403 76.6734C124.129 76.4896 123.858 76.2998 123.592 76.1039C123.378 75.9444 123.168 75.7829 122.958 75.6172C121.922 74.7931 120.963 73.8766 120.092 72.879V72.8769C120.03 72.8083 119.971 72.7376 119.911 72.6669C119.901 72.6568 119.892 72.6467 119.884 72.6386C119.847 72.5922 119.81 72.5478 119.772 72.5033V72.5013C119.721 72.4428 119.671 72.3822 119.622 72.3216C119.609 72.3075 119.6 72.2954 119.589 72.2832V72.2812C119.549 72.2327 119.51 72.1843 119.471 72.1338C119.45 72.1095 119.432 72.0853 119.412 72.0611V72.0591C119.293 71.9096 119.177 71.7602 119.063 71.6067C119.032 71.5663 119.002 71.524 118.969 71.4815C118.825 71.2857 118.683 71.0857 118.546 70.8858V70.8838C118.493 70.809 118.443 70.7323 118.39 70.6576C118.34 70.5808 118.289 70.5041 118.239 70.4274C118.188 70.3467 118.136 70.2679 118.085 70.187L118.079 70.175C118.029 70.0983 117.979 70.0174 117.93 69.9388C117.891 69.8741 117.853 69.8115 117.814 69.7488C117.79 69.7065 117.764 69.664 117.74 69.6197C117.73 69.6059 117.722 69.5918 117.713 69.5772C117.657 69.4783 117.601 69.3793 117.544 69.2803C117.477 69.1653 117.412 69.0482 117.348 68.931C117.324 68.8826 117.298 68.8341 117.271 68.7856C117.262 68.7695 117.253 68.7533 117.245 68.7372C117.215 68.6806 117.185 68.622 117.156 68.5635C117.126 68.5069 117.096 68.4484 117.065 68.3899C117.037 68.3332 117.007 68.2748 116.978 68.2162C116.957 68.1717 116.936 68.1273 116.914 68.0829C116.912 68.0792 116.91 68.0759 116.908 68.0728C116.897 68.0506 116.888 68.0304 116.88 68.0102C116.878 68.0071 116.875 68.0037 116.873 68.0001C116.852 67.9557 116.831 67.9092 116.809 67.8647C116.781 67.8063 116.755 67.7456 116.726 67.6871C116.708 67.6467 116.688 67.6043 116.669 67.5619C116.643 67.5033 116.615 67.4447 116.59 67.3842C116.562 67.3236 116.536 67.263 116.51 67.2004C116.502 67.1853 116.496 67.1698 116.489 67.154C116.476 67.1257 116.465 67.0974 116.453 67.0692C116.421 66.9945 116.388 66.9177 116.358 66.8429C116.322 66.7581 116.288 66.6713 116.255 66.5865C116.223 66.5077 116.193 66.427 116.163 66.3462L116.15 66.3179C115.68 65.0786 115.323 63.7992 115.085 62.4952V62.4931C114.949 61.7488 114.853 60.9978 114.795 60.2436C114.793 60.2011 114.789 60.1607 114.788 60.1204C114.752 59.6094 114.735 59.0965 114.735 58.5816C114.735 58.3534 114.739 58.1272 114.745 57.9011C114.886 53.1708 116.573 48.6171 119.547 44.9364C119.611 44.8557 119.677 44.7749 119.743 44.6942C119.81 44.6134 119.879 44.5346 119.945 44.4559C122.159 41.8634 124.951 39.8273 128.096 38.5118C131.241 37.1963 134.651 36.6382 138.052 36.8825C141.451 37.1267 144.747 38.1665 147.671 39.918C150.597 41.6695 153.068 44.0837 154.889 46.966C154.988 47.1234 155.087 47.283 155.182 47.4426C155.278 47.6041 155.371 47.7656 155.465 47.9292C157.294 51.1811 158.253 54.8504 158.247 58.5816Z" fill="#F2F2F2"/>
<path d="M137.354 44.3517C133.777 45.2696 130.111 45.7988 126.419 45.9299C125.862 45.9603 125.302 45.9565 124.745 45.9185C123.519 45.8155 122.469 45.4302 121.3 45.2198C120.737 45.1189 120.112 45.0451 119.546 44.936C119.677 44.7738 119.81 44.6135 119.946 44.4553C121.165 44.5584 122.405 44.8958 123.64 45.0527C125.739 45.3196 128.091 45.0218 129.682 44.2872C130.454 43.9306 131.045 43.4858 131.814 43.1278C131.919 43.074 132.033 43.0393 132.149 43.0252C132.371 43.0185 132.59 43.0754 132.781 43.1891C134.071 43.8406 135.945 44.3701 137.684 44.0788C137.814 44.1803 137.568 44.2958 137.354 44.3517Z" fill="white"/>
<path d="M145.052 46.6447C145.068 46.6417 145.083 46.6395 145.1 46.6367C145.033 46.5953 144.97 46.5479 144.912 46.4951L145.052 46.6447Z" fill="white"/>
<path d="M155.465 47.9302C154.738 47.9881 154.009 48.0314 153.274 48.0598C152.717 48.0899 152.157 48.0862 151.599 48.0484C150.374 47.9448 149.324 47.5601 148.154 47.3496C147.084 47.157 145.781 47.0643 145.101 46.6368C146.859 46.3324 148.681 46.952 150.494 47.1825C151.961 47.3628 153.447 47.2895 154.889 46.9655C155.09 47.2812 155.282 47.6028 155.465 47.9302Z" fill="white"/>
<path d="M134.038 68.1013C137.647 68.1013 140.572 65.1105 140.572 61.4212C140.572 57.7319 137.647 54.7411 134.038 54.7411C130.429 54.7411 127.503 57.7319 127.503 61.4212C127.503 65.1105 130.429 68.1013 134.038 68.1013Z" fill="#FFB6B6"/>
<path d="M146.676 77.8083C146.503 77.9032 146.328 77.9941 146.152 78.081C146.089 78.1112 146.024 78.1415 145.961 78.1739C145.909 78.198 145.856 78.2244 145.804 78.2486C145.788 78.2566 145.774 78.2627 145.76 78.2708C145.716 78.291 145.673 78.3112 145.628 78.3313C145.581 78.3536 145.532 78.3758 145.485 78.3981C145.431 78.4222 145.378 78.4464 145.323 78.4687C145.122 78.5596 144.918 78.6464 144.714 78.7292C143.983 79.0288 143.236 79.2877 142.476 79.5047C142.442 79.5148 142.406 79.5249 142.369 79.535C142.044 79.6258 141.717 79.7086 141.388 79.7834C140.812 79.9166 140.232 80.0256 139.645 80.1104H139.641C139.571 80.1205 139.502 80.1306 139.431 80.1407C139.425 80.1407 139.419 80.1428 139.411 80.1428C139.411 80.1428 139.411 80.1448 139.408 80.1428C139.332 80.1529 139.253 80.163 139.176 80.1731C139.171 80.1746 139.166 80.1753 139.161 80.1751C139.088 80.1852 139.013 80.1933 138.94 80.2013C138.861 80.2094 138.783 80.2175 138.704 80.2255C138.644 80.2317 138.583 80.2377 138.522 80.2437C138.517 80.2455 138.511 80.2462 138.506 80.2457C138.451 80.2498 138.397 80.2558 138.343 80.2599H138.335C138.288 80.2639 138.24 80.268 138.193 80.272C137.63 80.3165 137.064 80.3367 136.491 80.3367C135.87 80.3367 135.255 80.3124 134.646 80.2599H134.641C134.51 80.2478 134.38 80.2356 134.251 80.2236C134.217 80.2195 134.184 80.2175 134.15 80.2135C134.144 80.2135 134.137 80.2115 134.13 80.2115C134.12 80.2094 134.109 80.2094 134.098 80.2074C134.092 80.2076 134.087 80.2069 134.081 80.2053C134.037 80.2013 133.993 80.1952 133.946 80.1912L133.795 80.1731C133.744 80.167 133.694 80.1589 133.643 80.1529C133.631 80.1508 133.621 80.1508 133.609 80.1488C133.573 80.1448 133.536 80.1387 133.5 80.1327C133.482 80.1306 133.463 80.1286 133.448 80.1267C133.411 80.1205 133.377 80.1166 133.34 80.1104H133.338C132.23 79.9509 131.136 79.7045 130.067 79.3733C130.01 79.3552 129.954 79.339 129.897 79.3209C130.158 78.1049 130.695 76.9651 131.466 75.9896C132.237 75.0141 133.223 74.2289 134.346 73.6949C134.068 73.4302 133.876 73.0883 133.795 72.7134C133.742 72.4717 133.738 72.222 133.783 71.9787C133.826 71.7355 133.919 71.5034 134.053 71.2958C134.316 70.8934 134.727 70.6115 135.196 70.5123L138.189 69.8862C138.671 69.7923 139.17 69.8923 139.578 70.1646C139.987 70.4369 140.271 70.8594 140.37 71.3402C140.4 71.4877 140.414 71.638 140.411 71.7885C143.292 73.7069 145.366 75.696 146.676 77.8083Z" fill="#199886"/>
<path d="M151.524 58.524C150.413 57.2287 149.886 55.5101 148.997 54.0393C148.109 52.5685 146.564 51.252 144.932 51.5943C143.806 51.8303 142.937 52.8233 142.496 53.9303C142.056 55.0374 141.974 56.2582 141.897 57.4542C141.924 54.9964 140.305 52.6136 138.074 51.8294C135.843 51.0451 133.174 51.9199 131.772 53.8944C131.16 53.3276 130.362 53.0048 129.529 52.9873C128.695 52.9697 127.883 53.2588 127.249 53.7995C125.995 54.92 125.718 57.0528 126.64 58.482C127.562 59.9112 129.559 60.4436 131.024 59.651L131.541 60.1275C131.25 61.1473 131.816 62.352 132.766 62.7359C133.537 63.0472 134.625 62.9954 134.913 63.8043C135.115 64.3695 134.738 64.9727 134.338 65.4071C133.937 65.8414 133.461 66.2899 133.413 66.8908C133.341 67.7977 134.277 68.4329 135.129 68.6241C137.183 69.0855 139.463 68.1343 140.646 66.3216C140.669 66.2866 140.694 66.2517 140.721 66.2166C141.385 65.3672 141.869 64.3913 142.143 63.3485C142.417 62.3058 142.476 61.218 142.316 60.1516C142.25 59.7327 142.316 59.4211 142.605 59.3218C143.854 58.893 147.352 59.7931 148.41 60.6066C149.47 61.4201 150.317 62.4966 151.336 63.3626C152.356 64.2286 153.656 64.8966 154.951 64.6607C155.987 64.4719 156.87 63.7191 157.463 62.811C158.056 61.9029 158.398 60.8445 158.703 59.7925C156.411 61.1172 153.272 60.5627 151.524 58.524Z" fill="#2F2E41"/>
<path d="M17.3819 45.0515C17.3819 45.5423 17.398 46.033 17.4323 46.5197C17.4686 47.1013 17.5313 47.6789 17.6161 48.2524C17.9011 50.1834 18.4459 52.067 19.2357 53.8522C19.276 53.941 19.3164 54.0298 19.3568 54.1187L19.4174 54.252C19.4375 54.2964 19.4598 54.3409 19.48 54.3832C19.5083 54.4418 19.5345 54.4983 19.5628 54.5549C19.5971 54.6256 19.6314 54.6962 19.6678 54.7669C19.6718 54.775 19.6759 54.7851 19.6819 54.7952C19.7123 54.8558 19.7405 54.9144 19.7728 54.9749C19.7788 54.9881 19.7855 55.0009 19.793 55.0133C19.8274 55.082 19.8637 55.1527 19.9 55.2213C19.9404 55.294 19.9788 55.3687 20.0192 55.4414C20.1162 55.6212 20.2171 55.7988 20.3201 55.9765C20.3504 56.0291 20.3807 56.0815 20.4129 56.1341C20.4413 56.1825 20.4696 56.231 20.4998 56.2795C20.52 56.3117 20.5402 56.3461 20.5604 56.3784C20.5927 56.433 20.625 56.4854 20.6594 56.5399C20.7341 56.6591 20.8108 56.7783 20.8855 56.8974H20.8875C20.9218 56.9519 20.9582 57.0065 20.9946 57.0589V57.061C21.1015 57.2225 21.2127 57.3841 21.3237 57.5436C21.3235 57.5435 21.324 57.5436 21.3237 57.5436C21.324 57.5438 21.325 57.544 21.3252 57.5442C21.3251 57.544 21.3254 57.5444 21.3252 57.5442C21.3253 57.5445 21.3258 57.5453 21.3257 57.5456C21.4146 57.6749 21.5075 57.8001 21.5983 57.9253V57.9273C21.6589 58.006 21.7175 58.0869 21.7781 58.1655C21.8266 58.2302 21.877 58.2969 21.9275 58.3615C21.9376 58.3755 21.9498 58.3877 21.9599 58.4019V58.4038C21.974 58.4221 21.9881 58.4382 22.0022 58.4564C22.2163 58.731 22.4371 58.9996 22.6646 59.2621L22.7009 59.3045C22.7131 59.3187 22.7272 59.3328 22.7393 59.349C22.7595 59.3712 22.7777 59.3934 22.7979 59.4156C22.8161 59.4378 22.8363 59.46 22.8565 59.4823C24.0425 60.8182 25.3872 62.0044 26.8609 63.0142C27.0568 63.1495 27.2567 63.2807 27.4567 63.408C27.5071 63.4403 27.5576 63.4726 27.6081 63.5029C27.6222 63.513 27.6383 63.5231 27.6525 63.5332C27.6808 63.5493 27.707 63.5654 27.7353 63.5837C27.7616 63.5998 27.7878 63.6159 27.8161 63.6321C27.9232 63.6987 28.0322 63.7634 28.1412 63.828C28.1675 63.8441 28.1957 63.8603 28.224 63.8765C28.2502 63.8905 28.2786 63.9068 28.3069 63.9229C28.3069 63.925 28.3069 63.9249 28.3088 63.9249H28.3108V63.927H28.3129C28.4482 64.0057 28.5855 64.0824 28.7249 64.1572C28.7996 64.1975 28.8763 64.24 28.953 64.2783C29.1267 64.3732 29.3023 64.4641 29.4781 64.5509C29.5406 64.5812 29.6053 64.6115 29.6679 64.6439C29.7204 64.6681 29.7729 64.6943 29.8254 64.7186C29.8416 64.7266 29.8558 64.7327 29.8698 64.7407C29.9142 64.7609 29.9567 64.7811 30.0011 64.8013C30.0495 64.8236 30.098 64.8457 30.1444 64.868C30.199 64.8923 30.2515 64.9164 30.306 64.9387C30.5079 65.0295 30.7119 65.1164 30.9159 65.1992C31.6468 65.4988 32.3938 65.7577 33.1533 65.9746C33.1877 65.9847 33.2241 65.9948 33.2604 66.0049C33.5855 66.0958 33.9127 66.1786 34.2419 66.2533C34.8173 66.3866 35.3983 66.4956 35.9846 66.5804H35.9887C36.0594 66.5905 36.128 66.6006 36.1987 66.6107C36.2047 66.6107 36.2108 66.6128 36.2189 66.6128C36.2189 66.6147 36.2189 66.6147 36.2209 66.6128C36.2977 66.6229 36.3763 66.6329 36.4531 66.643C36.4583 66.6446 36.4638 66.6452 36.4693 66.645C36.542 66.6551 36.6167 66.6632 36.6894 66.6713C36.7681 66.6794 36.8469 66.6875 36.9257 66.6956C36.9862 66.7016 37.0468 66.7077 37.1074 66.7137C37.1126 66.7155 37.1181 66.7162 37.1235 66.7158C37.178 66.7197 37.2326 66.7259 37.2871 66.7298H37.2952C37.3416 66.7339 37.3901 66.738 37.4365 66.742C37.9999 66.7864 38.5654 66.8066 39.1389 66.8066C39.7588 66.8066 40.3748 66.7824 40.9826 66.7298H40.9887C41.1199 66.7178 41.2491 66.7057 41.3784 66.6935C41.4127 66.6895 41.4451 66.6875 41.4794 66.6834C41.4855 66.6834 41.4935 66.6814 41.4996 66.6814C41.5097 66.6794 41.5198 66.6794 41.5319 66.6774C41.5374 66.6776 41.5428 66.6769 41.548 66.6753C41.5925 66.6713 41.6369 66.6652 41.6834 66.6613L41.8348 66.643C41.8853 66.637 41.9358 66.6289 41.9862 66.6229C41.9984 66.6208 42.0085 66.6209 42.0206 66.6188C42.057 66.6147 42.0933 66.6087 42.1296 66.6027C42.1479 66.6007 42.166 66.5986 42.1822 66.5966C42.2185 66.5906 42.2529 66.5865 42.2892 66.5805H42.2913C43.3993 66.421 44.4932 66.1744 45.5626 65.8433C45.6192 65.8252 45.6757 65.8091 45.7322 65.7909C45.7343 65.7909 45.7363 65.7889 45.7383 65.7889C45.7545 65.7827 45.7726 65.7788 45.7889 65.7726C45.9403 65.7243 46.0897 65.6738 46.2391 65.6212C46.4451 65.5526 46.6491 65.4778 46.853 65.4011C46.9076 65.3789 46.9621 65.3587 47.0166 65.3365C47.1276 65.2941 47.2367 65.2496 47.3458 65.2052C47.5315 65.1305 47.7174 65.0518 47.9012 64.9709C48.0728 64.8942 48.2424 64.8175 48.412 64.7367C48.4161 64.7347 48.4221 64.7347 48.4262 64.7307C48.4646 64.7125 48.5029 64.6943 48.5393 64.6761H48.5413C49.4713 64.2298 50.3681 63.7176 51.2251 63.1435C51.4997 62.9597 51.7703 62.7699 52.0369 62.5739C52.2509 62.4144 52.461 62.2529 52.671 62.0873C53.707 61.2631 54.6662 60.3466 55.5365 59.349V59.347C55.5991 59.2783 55.6576 59.2076 55.7183 59.1369C55.7284 59.1268 55.7364 59.1167 55.7445 59.1087C55.7828 59.0622 55.8192 59.0178 55.8575 58.9734V58.9713C55.9081 58.9127 55.9586 58.8522 56.0071 58.7916C56.0191 58.7774 56.0292 58.7654 56.0393 58.7532V58.7512C56.0797 58.7027 56.1181 58.6543 56.1585 58.6039C56.1787 58.5796 56.1969 58.5554 56.2171 58.5311V58.529C56.3362 58.3796 56.4513 58.2302 56.5664 58.0768C56.5967 58.0364 56.627 57.9939 56.6592 57.9516C56.8047 57.7556 56.946 57.5557 57.0833 57.3558V57.3538C57.1358 57.2791 57.1863 57.2023 57.2389 57.1276C57.2893 57.0509 57.3398 56.9741 57.3903 56.8974C57.4408 56.8167 57.4933 56.7379 57.5438 56.6571L57.5498 56.6449C57.6003 56.5682 57.6508 56.4875 57.6992 56.4087C57.7376 56.3441 57.776 56.2814 57.8143 56.2189C57.8386 56.1764 57.8648 56.1341 57.8891 56.0897C57.8985 56.076 57.9073 56.0618 57.9153 56.0472C57.9719 55.9483 58.0284 55.8494 58.085 55.7504C58.1516 55.6353 58.2162 55.5181 58.2809 55.4011C58.3051 55.3526 58.3313 55.3041 58.3576 55.2557C58.3677 55.2395 58.3758 55.2233 58.3839 55.2072C58.4142 55.1507 58.4445 55.0921 58.4727 55.0335C58.5029 54.977 58.5333 54.9184 58.5636 54.8598C58.5918 54.8033 58.6221 54.7447 58.6504 54.6861C58.6727 54.6417 58.6929 54.5973 58.715 54.5528C58.7166 54.5493 58.7187 54.5459 58.7211 54.5427C58.7312 54.5206 58.7412 54.5004 58.7494 54.4802C58.7519 54.4771 58.7538 54.4737 58.7554 54.4701C58.7777 54.4257 58.7979 54.3793 58.82 54.3348C58.8483 54.2762 58.8745 54.2157 58.9029 54.1571C58.921 54.1167 58.9412 54.0742 58.9594 54.0319C58.9856 53.9733 59.0139 53.9147 59.0381 53.8541C59.0663 53.7936 59.0927 53.733 59.1189 53.6704C59.1265 53.6553 59.1333 53.6398 59.1391 53.624C59.1532 53.5956 59.1633 53.5674 59.1754 53.5391C59.2078 53.4644 59.24 53.3877 59.2703 53.313C59.3067 53.2282 59.3411 53.1413 59.3733 53.0565C59.4057 52.9777 59.436 52.897 59.4663 52.8162L59.4783 52.7879C59.9489 51.5486 60.3057 50.2691 60.5446 48.9652V48.9632C60.6793 48.2187 60.7757 47.4679 60.8334 46.7136C60.8354 46.6712 60.8394 46.6307 60.8415 46.5903C60.8778 46.0795 60.8939 45.5666 60.8939 45.0515C60.8939 44.8234 60.89 44.5972 60.8838 44.3711C60.7429 39.6409 59.0561 35.0872 56.0817 31.4065C56.0172 31.3257 55.9525 31.2449 55.8858 31.1641C55.8192 31.0834 55.7505 31.0046 55.6839 30.9258C53.4702 28.3334 50.6782 26.2974 47.5332 24.9819C44.3883 23.6663 40.9782 23.1082 37.5779 23.3524C34.1776 23.5968 30.8822 24.6365 27.9575 26.388C25.0328 28.1395 22.5606 30.5537 20.7401 33.436C20.6412 33.5935 20.5422 33.7531 20.4473 33.9126C20.3504 34.0741 20.2575 34.2357 20.1645 34.3992C18.3351 37.6511 17.3766 41.3204 17.3819 45.0515Z" fill="#F2F2F2"/>
<path d="M38.274 30.8217C41.8515 31.7396 45.5177 32.2688 49.2088 32.3999C49.7669 32.4303 50.3264 32.4265 50.8841 32.3886C52.1097 32.2854 53.1595 31.9002 54.3286 31.6898C54.8907 31.5888 55.5167 31.515 56.0826 31.406C55.9518 31.2437 55.8187 31.0836 55.6833 30.9253C54.4632 31.0284 53.224 31.3658 51.9893 31.5226C49.8902 31.7896 47.5383 31.4917 45.9471 30.7571C45.175 30.4007 44.5836 29.9558 43.8144 29.5978C43.7097 29.5441 43.5964 29.5093 43.4796 29.4952C43.2578 29.4885 43.0387 29.5454 42.8481 29.6591C41.5574 30.3106 39.6835 30.8401 37.9442 30.5488C37.8145 30.6503 38.0609 30.7658 38.274 30.8217Z" fill="white"/>
<path d="M30.578 33.1146C30.5621 33.1117 30.5462 33.1094 30.5303 33.1067C30.5971 33.0653 30.66 33.0178 30.7183 32.9651L30.578 33.1146Z" fill="white"/>
<path d="M20.1641 34.4002C20.8905 34.4582 21.6208 34.5014 22.3548 34.5298C22.9129 34.5599 23.4725 34.5561 24.0302 34.5184C25.2557 34.4147 26.3055 34.0301 27.4747 33.8196C28.5461 33.6271 29.8482 33.5342 30.5286 33.1067C28.7702 32.8023 26.9484 33.4219 25.1352 33.6525C23.6686 33.8329 22.182 33.7594 20.7403 33.4355C20.5395 33.7512 20.3474 34.0728 20.1641 34.4002Z" fill="white"/>
<path d="M28.9526 64.2783C29.1263 64.3732 29.302 64.4641 29.4776 64.5509C29.5403 64.5812 29.6049 64.6115 29.6676 64.6439C29.72 64.6681 29.7726 64.6943 29.825 64.7186C29.8411 64.7266 29.8553 64.7327 29.8694 64.7408C29.9139 64.7609 29.9563 64.7811 30.0007 64.8013C30.0492 64.8236 30.0977 64.8458 30.1441 64.868C30.1986 64.8923 30.2512 64.9164 30.3057 64.9387C30.5076 65.0295 30.7115 65.1164 30.9155 65.1992C31.6464 65.4988 32.3934 65.7577 33.153 65.9746C33.1873 65.9847 33.2237 65.9948 33.2601 66.0049C33.5852 66.0958 33.9123 66.1786 34.2415 66.2533C34.817 66.3866 35.398 66.4956 35.9843 66.5804H35.9882C36.0589 66.5905 36.1276 66.6007 36.1982 66.6108C36.2044 66.6108 36.2104 66.6128 36.2185 66.6128C36.2185 66.6128 36.2184 66.6147 36.2205 66.6128C36.2972 66.6229 36.376 66.633 36.4528 66.6431C36.458 66.6446 36.4634 66.6452 36.4689 66.645C36.5415 66.6551 36.6163 66.6632 36.689 66.6714C36.7678 66.6794 36.8466 66.6875 36.9252 66.6956C36.9859 66.7016 37.0465 66.7077 37.107 66.7137C37.1122 66.7155 37.1177 66.7162 37.1232 66.7158C37.1777 66.7197 37.2322 66.7259 37.2867 66.7298H37.2949C37.3413 66.7339 37.3898 66.738 37.4362 66.742C37.9996 66.7865 38.5651 66.8066 39.1386 66.8066C39.7585 66.8066 40.3744 66.7824 40.9823 66.7298H40.9883C41.1195 66.7178 41.2488 66.7057 41.378 66.6935C41.4124 66.6895 41.4446 66.6875 41.479 66.6834C41.4851 66.6834 41.4931 66.6815 41.4992 66.6815C41.5093 66.6794 41.5194 66.6794 41.5315 66.6774C41.5369 66.6776 41.5425 66.6769 41.5477 66.6753C41.5921 66.6714 41.6365 66.6652 41.6829 66.6613L41.8345 66.6431C41.8849 66.637 41.9354 66.6289 41.9859 66.6229C41.9981 66.6209 42.0081 66.6209 42.0202 66.6188C42.0565 66.6147 42.093 66.6087 42.1293 66.6027C42.1475 66.6007 42.1656 66.5986 42.1817 66.5966C42.2182 66.5906 42.2525 66.5865 42.2888 66.5805H42.2908C43.399 66.421 44.4928 66.1744 45.5623 65.8434C45.6188 65.8252 45.6754 65.8091 45.7319 65.7909C45.4711 64.5749 44.9343 63.4351 44.163 62.4596C43.3916 61.4841 42.4063 60.6989 41.2831 60.1648C41.561 59.9002 41.753 59.5583 41.8345 59.1834C41.8869 58.9417 41.891 58.692 41.8466 58.4488C41.8023 58.2055 41.7103 57.9733 41.576 57.7657C41.3139 57.3634 40.9028 57.0815 40.4329 56.9822L37.4402 56.3562C36.9584 56.2623 36.4591 56.3623 36.0507 56.6347C35.6423 56.9069 35.3578 57.3294 35.2593 57.8102C35.2288 57.9576 35.2151 58.108 35.2189 58.2585C32.3371 60.1769 30.2632 62.166 28.9526 64.2783Z" fill="#199886"/>
<path d="M40.7924 54.3361C44.8156 54.3361 48.077 51.0747 48.077 47.0515C48.077 43.0283 44.8156 39.7668 40.7924 39.7668C36.7692 39.7668 33.5078 43.0283 33.5078 47.0515C33.5078 51.0747 36.7692 54.3361 40.7924 54.3361Z" fill="#9E616A"/>
<path d="M39.7586 53.9467C37.9349 54.4393 35.9244 53.7845 34.5011 52.5423C33.0779 51.3002 32.1876 49.54 31.6747 47.722C31.2989 46.3905 31.1208 44.9125 31.7137 43.6625C32.3066 42.4124 33.9021 41.569 35.1332 42.2005C34.3737 41.3157 34.7531 39.8523 35.64 39.0955C36.5269 38.3386 37.7449 38.1215 38.9048 38.003C40.5881 37.8308 42.3269 37.8115 43.9288 38.3569C45.5306 38.9022 46.9861 40.0946 47.4874 41.7107C47.9994 41.9491 48.576 42.011 49.127 41.8866C49.6779 41.7622 50.172 41.4586 50.532 41.0234C50.6247 41.5232 50.5502 42.0398 50.3199 42.4931C50.0895 42.9464 49.7162 43.3111 49.2577 43.5309L51.7121 42.7351C52.1342 43.6286 51.3946 44.7343 50.4487 45.0205C49.503 45.3066 48.482 44.9939 47.5845 44.5805C46.6869 44.1672 45.8171 43.6446 44.8423 43.4834C43.8674 43.3222 42.7223 43.6354 42.2713 44.5146C42.0351 44.9751 42.0228 45.5145 41.8857 46.0136C41.7485 46.5126 41.4012 47.03 40.8852 47.0709C40.5593 47.0967 40.2401 46.923 39.9151 46.9585C39.7156 46.9978 39.5319 47.0944 39.3865 47.2365C39.2411 47.3786 39.1403 47.56 39.0963 47.7585C39.0154 48.1569 39.0144 48.5673 39.0934 48.9661L39.7169 53.7315L39.7586 53.9467Z" fill="#2F2E41"/>
</g>
</g>
<defs>
<clipPath id="clip0_3_11486">
<rect width="164.422" height="127.999" fill="white" transform="translate(0.65625 0.797241)"/>
</clipPath>
</defs>
</svg>
