<svg width="1600" height="387" viewBox="0 0 1600 387" fill="none" xmlns="http://www.w3.org/2000/svg">
<g clip-path="url(#clip0_3_12050)">
<path d="M871.868 118.392C870.284 122.207 873.081 126.378 878.114 127.708C883.148 129.038 888.512 127.023 890.096 123.209C891.68 119.394 888.883 115.223 883.85 113.893C878.816 112.563 873.452 114.577 871.868 118.392Z" fill="#FFCE1F"/>
<path d="M35.1836 107.743C33.9778 110.648 35.3032 113.611 38.1438 114.361C40.9845 115.112 44.2648 113.366 45.4706 110.461C46.6763 107.557 45.351 104.594 42.5103 103.844C39.6697 103.093 36.3894 104.839 35.1836 107.743Z" fill="#1B564E"/>
<path d="M1501.78 202.41C1500.65 205.131 1501.79 207.879 1504.33 208.548C1506.87 209.217 1509.84 207.553 1510.98 204.833C1512.11 202.112 1510.97 199.364 1508.43 198.695C1505.89 198.026 1502.92 199.69 1501.78 202.41Z" fill="#A54343"/>
<path d="M1501.78 202.41C1500.65 205.131 1501.79 207.879 1504.33 208.548C1506.87 209.217 1509.84 207.553 1510.98 204.833C1512.11 202.112 1510.97 199.364 1508.43 198.695C1505.89 198.026 1502.92 199.69 1501.78 202.41Z" fill="#1B564E"/>
<path d="M193.544 354.41C192.411 357.131 193.551 359.879 196.088 360.548C198.626 361.217 201.602 359.553 202.734 356.833C203.866 354.112 202.727 351.364 200.189 350.695C197.651 350.026 194.676 351.69 193.544 354.41Z" fill="#A54343"/>
<path d="M193.544 354.41C192.411 357.131 193.551 359.879 196.088 360.548C198.626 361.217 201.602 359.553 202.734 356.833C203.866 354.112 202.727 351.364 200.189 350.695C197.651 350.026 194.676 351.69 193.544 354.41Z" fill="#1B564E"/>
<path d="M944.402 262.41C943.27 265.131 944.409 267.879 946.947 268.548C949.485 269.217 952.46 267.553 953.592 264.833C954.725 262.112 953.585 259.364 951.047 258.695C948.51 258.026 945.534 259.69 944.402 262.41Z" fill="#A54343"/>
<path d="M944.402 262.41C943.27 265.131 944.409 267.879 946.947 268.548C949.485 269.217 952.46 267.553 953.592 264.833C954.725 262.112 953.585 259.364 951.047 258.695C948.51 258.026 945.534 259.69 944.402 262.41Z" fill="#1B564E"/>
<path d="M890.269 329.41C889.136 332.131 890.276 334.879 892.814 335.548C895.351 336.217 898.327 334.553 899.459 331.833C900.591 329.112 899.452 326.364 896.914 325.695C894.376 325.026 891.401 326.69 890.269 329.41Z" fill="#A54343"/>
<path d="M890.269 329.41C889.136 332.131 890.276 334.879 892.814 335.548C895.351 336.217 898.327 334.553 899.459 331.833C900.591 329.112 899.452 326.364 896.914 325.695C894.376 325.026 891.401 326.69 890.269 329.41Z" fill="#1B564E"/>
<path d="M653.05 250.41C651.918 253.131 653.057 255.879 655.595 256.548C658.133 257.217 661.108 255.553 662.24 252.833C663.373 250.112 662.233 247.364 659.695 246.695C657.158 246.026 654.182 247.69 653.05 250.41Z" fill="#A54343"/>
<path d="M653.05 250.41C651.918 253.131 653.057 255.879 655.595 256.548C658.133 257.217 661.108 255.553 662.24 252.833C663.373 250.112 662.233 247.364 659.695 246.695C657.158 246.026 654.182 247.69 653.05 250.41Z" fill="#FFCE1F"/>
<path d="M35.1521 262.41C34.0197 265.131 35.1591 267.879 37.6969 268.548C40.2347 269.217 43.2099 267.553 44.3423 264.833C45.4746 262.112 44.3353 259.364 41.7975 258.695C39.2597 258.026 36.2844 259.69 35.1521 262.41Z" fill="#A54343"/>
<path d="M35.1521 262.41C34.0197 265.131 35.1591 267.879 37.6969 268.548C40.2347 269.217 43.2099 267.553 44.3423 264.833C45.4746 262.112 44.3353 259.364 41.7975 258.695C39.2597 258.026 36.2844 259.69 35.1521 262.41Z" fill="#A54343"/>
<path d="M1127.85 159.41C1126.72 162.131 1127.86 164.879 1130.4 165.548C1132.94 166.217 1135.91 164.553 1137.04 161.833C1138.18 159.112 1137.04 156.364 1134.5 155.695C1131.96 155.026 1128.99 156.69 1127.85 159.41Z" fill="#A54343"/>
<path d="M1127.85 159.41C1126.72 162.131 1127.86 164.879 1130.4 165.548C1132.94 166.217 1135.91 164.553 1137.04 161.833C1138.18 159.112 1137.04 156.364 1134.5 155.695C1131.96 155.026 1128.99 156.69 1127.85 159.41Z" fill="#A54343"/>
<path d="M117.537 105.178C116.688 107.217 117.732 109.327 119.868 109.89C122.004 110.453 124.424 109.256 125.273 107.217C126.122 105.177 125.078 103.067 122.942 102.504C120.806 101.941 118.386 103.138 117.537 105.178Z" fill="#A54343"/>
<path d="M117.537 105.178C116.688 107.217 117.732 109.327 119.868 109.89C122.004 110.453 124.424 109.256 125.273 107.217C126.122 105.177 125.078 103.067 122.942 102.504C120.806 101.941 118.386 103.138 117.537 105.178Z" fill="#A54343"/>
<path d="M1101.05 384.41C1099.92 387.131 1101.06 389.879 1103.6 390.548C1106.14 391.217 1109.11 389.553 1110.25 386.833C1111.38 384.112 1110.24 381.364 1107.7 380.695C1105.16 380.026 1102.19 381.69 1101.05 384.41Z" fill="#A54343"/>
<path d="M1101.05 384.41C1099.92 387.131 1101.06 389.879 1103.6 390.548C1106.14 391.217 1109.11 389.553 1110.25 386.833C1111.38 384.112 1110.24 381.364 1107.7 380.695C1105.16 380.026 1102.19 381.69 1101.05 384.41Z" fill="#A54343"/>
<path d="M784.489 237.803C783.643 239.836 784.964 242.013 787.44 242.666C789.916 243.319 792.609 242.199 793.455 240.166C794.301 238.132 792.98 235.955 790.504 235.302C788.029 234.65 785.335 235.769 784.489 237.803Z" fill="#A54343"/>
<path d="M784.489 237.803C783.643 239.836 784.964 242.013 787.44 242.666C789.916 243.319 792.609 242.199 793.455 240.166C794.301 238.132 792.98 235.955 790.504 235.302C788.029 234.65 785.335 235.769 784.489 237.803Z" fill="#D0CEF1"/>
<path d="M535.156 299.488C534.459 301.161 535.566 302.957 537.627 303.501C539.689 304.044 541.924 303.128 542.621 301.455C543.317 299.782 542.21 297.986 540.149 297.442C538.087 296.899 535.852 297.815 535.156 299.488Z" fill="#A54343"/>
<path d="M535.156 299.488C534.459 301.161 535.566 302.957 537.627 303.501C539.689 304.044 541.924 303.128 542.621 301.455C543.317 299.782 542.21 297.986 540.149 297.442C538.087 296.899 535.852 297.815 535.156 299.488Z" fill="#D0CEF1"/>
<path d="M367.786 344.102C367.765 346.95 369.903 348.983 372.561 348.642C375.219 348.302 377.391 345.716 377.411 342.867C377.432 340.019 375.295 337.986 372.637 338.327C369.979 338.668 367.807 341.253 367.786 344.102Z" fill="#A54343"/>
<path d="M367.786 344.102C367.765 346.95 369.903 348.983 372.561 348.642C375.219 348.302 377.391 345.716 377.411 342.867C377.432 340.019 375.295 337.986 372.637 338.327C369.979 338.668 367.807 341.253 367.786 344.102Z" fill="#5C5A7C"/>
<path d="M510.328 190.41C509.196 193.131 510.335 195.879 512.873 196.548C515.41 197.217 518.386 195.553 519.518 192.833C520.65 190.112 519.511 187.364 516.973 186.695C514.435 186.026 511.46 187.69 510.328 190.41Z" fill="#A54343"/>
<path d="M510.328 190.41C509.196 193.131 510.335 195.879 512.873 196.548C515.41 197.217 518.386 195.553 519.518 192.833C520.65 190.112 519.511 187.364 516.973 186.695C514.435 186.026 511.46 187.69 510.328 190.41Z" fill="#A54343"/>
<path d="M1433.61 99.4103C1432.48 102.131 1433.62 104.879 1436.16 105.548C1438.7 106.217 1441.67 104.553 1442.81 101.833C1443.94 99.1119 1442.8 96.364 1440.26 95.6951C1437.72 95.0262 1434.75 96.6896 1433.61 99.4103Z" fill="#A54343"/>
<path d="M1433.61 99.4103C1432.48 102.131 1433.62 104.879 1436.16 105.548C1438.7 106.217 1441.67 104.553 1442.81 101.833C1443.94 99.1119 1442.8 96.364 1440.26 95.6951C1437.72 95.0262 1434.75 96.6896 1433.61 99.4103Z" fill="#FFCE1F"/>
<path d="M109 386.484C109 421.768 78.396 450.484 40.5 450.484C2.604 450.484 -28 421.768 -28 386.484C-28 351.2 2.604 322.484 40.5 322.484C78.396 322.484 109 351.2 109 386.484Z" stroke="#199886" stroke-opacity="0.34" stroke-width="2"/>
<path d="M109 386.484C109 421.768 78.396 450.484 40.5 450.484C2.604 450.484 -28 421.768 -28 386.484C-28 351.2 2.604 322.484 40.5 322.484C78.396 322.484 109 351.2 109 386.484ZM814 408.484C814 443.768 783.396 472.484 745.5 472.484C707.604 472.484 677 443.768 677 408.484C677 373.2 707.604 344.484 745.5 344.484C783.396 344.484 814 373.2 814 408.484Z" stroke="#199886" stroke-opacity="0.34" stroke-width="2"/>
<path d="M434 65.4844C434 100.768 403.396 129.484 365.5 129.484C327.604 129.484 297 100.768 297 65.4844C297 30.2004 327.604 1.48438 365.5 1.48438C403.396 1.48438 434 30.2004 434 65.4844Z" stroke="#199886" stroke-opacity="0.37" stroke-width="2"/>
<path d="M1157.83 90.785L1047.3 134.881L1094.24 252.538L1204.77 208.442L1157.83 90.785Z" stroke="#3F3D56" stroke-opacity="0.17" stroke-width="2"/>
<path d="M963 97.9844C963 138.558 929.44 171.484 888 171.484C846.56 171.484 813 138.558 813 97.9844C813 57.4104 846.56 24.4844 888 24.4844C929.44 24.4844 963 57.4104 963 97.9844Z" stroke="#199886" stroke-opacity="0.34" stroke-width="2"/>
<path d="M55.7974 107.127L-54.731 151.223L-7.79059 268.88L102.738 224.784L55.7974 107.127Z" stroke="#3F3D56" stroke-opacity="0.17" stroke-width="2"/>
<path opacity="0.31" d="M75.0079 97.6724L141.596 250.966L-22.0771 233.713L75.0079 97.6724ZM493.218 404.009L340.991 472.998L355.667 309.074L493.218 404.009ZM948.344 295.504L841.126 247.187L937.44 178.409L948.344 295.504ZM1128.96 460.233L1028.99 398.308L1133.47 342.717L1128.96 460.233ZM1626.31 326.719L1448.13 204.149L1624.21 110.458L1626.31 326.719Z" stroke="#199886" stroke-width="2"/>
<path d="M1644.55 252.287L1529.85 216.735L1498.25 318.687L1612.95 354.239L1644.55 252.287Z" stroke="#3F3D56" stroke-opacity="0.17" stroke-width="2"/>
<path d="M378.827 343.785L268.299 387.881L315.239 505.538L425.768 461.442L378.827 343.785Z" stroke="#3F3D56" stroke-opacity="0.17" stroke-width="2"/>
</g>
<defs>
<clipPath id="clip0_3_12050">
<rect width="1600" height="424" fill="white" transform="translate(0 0.484375)"/>
</clipPath>
</defs>
</svg>
