<svg width="1800" height="746" viewBox="0 0 1800 746" fill="none" xmlns="http://www.w3.org/2000/svg">
<g clip-path="url(#clip0_3_10121)">
<path d="M1791.61 21.3533C1796.24 21.3533 1800 16.657 1800 10.8638C1800 5.07061 1796.24 0.374298 1791.61 0.374298C1786.97 0.374298 1783.22 5.07061 1783.22 10.8638C1783.22 16.657 1786.97 21.3533 1791.61 21.3533Z" fill="#FF6585"/>
<path d="M845.455 182.192C849.703 182.192 853.147 178.749 853.147 174.5C853.147 170.252 849.703 166.808 845.455 166.808C841.206 166.808 837.762 170.252 837.762 174.5C837.762 178.749 841.206 182.192 845.455 182.192Z" fill="#199886"/>
<path d="M1365.73 745.829C1360.71 745.829 1356.64 742.385 1356.64 738.137C1356.64 733.888 1360.71 730.444 1365.73 730.444C1370.76 730.444 1374.83 733.888 1374.83 738.137C1374.83 742.385 1370.76 745.829 1365.73 745.829Z" fill="#199886"/>
<path d="M404.895 32.5421C399.102 32.5421 394.406 26.9066 394.406 19.9547C394.406 13.0029 399.102 7.36731 404.895 7.36731C410.688 7.36731 415.385 13.0029 415.385 19.9547C415.385 26.9066 410.688 32.5421 404.895 32.5421Z" fill="#FF6585"/>
<path d="M519.696 10.3009C517.701 15.7833 521.224 21.777 527.565 23.6884C533.906 25.5997 540.663 22.7048 542.659 17.2225C544.654 11.7401 541.131 5.74639 534.79 3.83506C528.449 1.92372 521.691 4.81859 519.696 10.3009Z" fill="#FFCE1F"/>
<path d="M905.71 162.749C903.715 168.231 907.238 174.225 913.579 176.136C919.92 178.047 926.678 175.152 928.673 169.67C930.668 164.188 927.145 158.194 920.804 156.283C914.463 154.371 907.705 157.266 905.71 162.749Z" fill="#FFCE1F"/>
<path d="M3.61103 182.329C1.61575 187.811 5.13865 193.805 11.4796 195.716C17.8206 197.628 24.5785 194.733 26.5738 189.25C28.569 183.768 25.0461 177.774 18.7052 175.863C12.3642 173.952 5.6063 176.847 3.61103 182.329Z" fill="#FF6584"/>
<path d="M481.167 471.839C482.85 477.322 479.878 483.316 474.527 485.227C469.176 487.139 463.473 484.244 461.79 478.761C460.106 473.278 463.079 467.284 468.43 465.373C473.781 463.462 479.483 466.357 481.167 471.839Z" fill="#FFCE1F"/>
<path d="M23.1955 459.252C21.2002 464.734 24.7231 470.728 31.0641 472.639C37.4051 474.551 44.163 471.656 46.1582 466.174C48.1535 460.691 44.6306 454.698 38.2896 452.786C31.9486 450.875 25.1908 453.77 23.1955 459.252Z" fill="#FFCE1F"/>
</g>
<defs>
<clipPath id="clip0_3_10121">
<rect width="1800" height="745.455" fill="white" transform="translate(0 0.374298)"/>
</clipPath>
</defs>
</svg>
