<svg width="1470" height="1352" viewBox="0 0 1470 1352" fill="none" xmlns="http://www.w3.org/2000/svg">
<g clip-path="url(#clip0_3_11426)">
<path d="M9.5 635.797C14.7467 635.797 19 631.767 19 626.797C19 621.826 14.7467 617.797 9.5 617.797C4.25329 617.797 0 621.826 0 626.797C0 631.767 4.25329 635.797 9.5 635.797Z" fill="#FF6585"/>
<path d="M33.8317 495.894C34.9452 499.814 32.979 504.099 29.44 505.466C25.9011 506.833 22.1296 504.763 21.0161 500.843C19.9026 496.924 21.8689 492.638 25.4078 491.272C28.9468 489.905 32.7183 491.975 33.8317 495.894Z" fill="#FFCE1F"/>
<path d="M580 130.797C577.791 130.797 576 128.334 576 125.297C576 122.259 577.791 119.797 580 119.797C582.209 119.797 584 122.259 584 125.297C584 128.334 582.209 130.797 580 130.797Z" fill="#199886"/>
<path d="M126.5 1303.8C129.538 1303.8 132 1301.33 132 1298.3C132 1295.26 129.538 1292.8 126.5 1292.8C123.462 1292.8 121 1295.26 121 1298.3C121 1301.33 123.462 1303.8 126.5 1303.8Z" fill="#199886"/>
<path d="M170.5 1331.8C173.538 1331.8 176 1329.33 176 1326.3C176 1323.26 173.538 1320.8 170.5 1320.8C167.462 1320.8 165 1323.26 165 1326.3C165 1329.33 167.462 1331.8 170.5 1331.8Z" fill="#199886"/>
<path d="M137.5 430.797C140.538 430.797 143 428.334 143 425.297C143 422.259 140.538 419.797 137.5 419.797C134.462 419.797 132 422.259 132 425.297C132 428.334 134.462 430.797 137.5 430.797Z" fill="#199886"/>
<path d="M1228 389.797C1221.92 389.797 1217 385.767 1217 380.797C1217 375.826 1221.92 371.797 1228 371.797C1234.08 371.797 1239 375.826 1239 380.797C1239 385.767 1234.08 389.797 1228 389.797Z" fill="#41847F"/>
<path d="M79.5 279.797C84.1944 279.797 88 275.767 88 270.797C88 265.826 84.1944 261.797 79.5 261.797C74.8056 261.797 71 265.826 71 270.797C71 275.767 74.8056 279.797 79.5 279.797Z" fill="#FF6585"/>
<path d="M638 13.7969C634.134 13.7969 631 10.8867 631 7.29688C631 3.70702 634.134 0.796875 638 0.796875C641.866 0.796875 645 3.70702 645 7.29688C645 10.8867 641.866 13.7969 638 13.7969Z" fill="#FF6585"/>
<path d="M90.5 113.797C93.5376 113.797 96 110.887 96 107.297C96 103.707 93.5376 100.797 90.5 100.797C87.4624 100.797 85 103.707 85 107.297C85 110.887 87.4624 113.797 90.5 113.797Z" fill="#FF6585"/>
<path d="M946.5 175.797C942.91 175.797 940 172.887 940 169.297C940 165.707 942.91 162.797 946.5 162.797C950.09 162.797 953 165.707 953 169.297C953 172.887 950.09 175.797 946.5 175.797Z" fill="#FF6585"/>
<path d="M969.358 932.887C968.057 936.807 970.353 941.096 974.486 942.468C978.619 943.84 983.024 941.774 984.325 937.855C985.626 933.935 983.33 929.645 979.197 928.274C975.064 926.902 970.659 928.967 969.358 932.887Z" fill="#FFCE1F"/>
<path d="M263.702 156.895C262.762 160.815 264.421 165.1 267.407 166.467C270.393 167.833 273.575 165.763 274.515 161.843C275.455 157.923 273.796 153.637 270.81 152.271C267.824 150.904 264.641 152.974 263.702 156.895Z" fill="#FFCE1F"/>
<path d="M1213.62 1048.89C1214.72 1052.81 1212.78 1057.1 1209.29 1058.46C1205.8 1059.83 1202.08 1057.76 1200.98 1053.84C1199.88 1049.92 1201.82 1045.64 1205.31 1044.27C1208.8 1042.9 1212.52 1044.97 1213.62 1048.89Z" fill="#FFCE1F"/>
<path d="M1105.62 1272.89C1106.72 1276.81 1104.78 1281.1 1101.29 1282.46C1097.8 1283.83 1094.08 1281.76 1092.98 1277.84C1091.88 1273.92 1093.82 1269.64 1097.31 1268.27C1100.8 1266.9 1104.52 1268.97 1105.62 1272.89Z" fill="#FFCE1F"/>
<path d="M1250.62 1338.89C1251.72 1342.81 1249.78 1347.1 1246.29 1348.46C1242.8 1349.83 1239.08 1347.76 1237.98 1343.84C1236.88 1339.92 1238.82 1335.64 1242.31 1334.27C1245.8 1332.9 1249.52 1334.97 1250.62 1338.89Z" fill="#FF6584"/>
<path d="M205.486 39.8944C206.6 43.8141 204.633 48.0995 201.094 49.4661C197.555 50.8326 193.784 48.763 192.67 44.8433C191.557 40.9236 193.523 36.6383 197.062 35.2717C200.601 33.9051 204.373 35.9748 205.486 39.8944Z" fill="#FFCE1F"/>
<path d="M834.144 41.8847C832.843 45.8044 835.139 50.094 839.272 51.4658C843.405 52.8376 847.81 50.772 849.111 46.8523C850.412 42.9326 848.116 38.643 843.983 37.2712C839.85 35.8994 835.445 37.965 834.144 41.8847Z" fill="#FFCE1F"/>
<path d="M1030 885.797C1025.58 885.797 1022 882.439 1022 878.297C1022 874.155 1025.58 870.797 1030 870.797C1034.42 870.797 1038 874.155 1038 878.297C1038 882.439 1034.42 885.797 1030 885.797Z" fill="#FF6585"/>
<path d="M1004 136.797C1000.13 136.797 997 133.439 997 129.297C997 125.155 1000.13 121.797 1004 121.797C1007.87 121.797 1011 125.155 1011 129.297C1011 133.439 1007.87 136.797 1004 136.797Z" fill="#FF6585"/>
<path d="M767.5 162.797C770.538 162.797 773 160.334 773 157.297C773 154.259 770.538 151.797 767.5 151.797C764.462 151.797 762 154.259 762 157.297C762 160.334 764.462 162.797 767.5 162.797Z" fill="#199886"/>
<path d="M1368.5 425.797C1371.54 425.797 1374 423.334 1374 420.297C1374 417.259 1371.54 414.797 1368.5 414.797C1365.46 414.797 1363 417.259 1363 420.297C1363 423.334 1365.46 425.797 1368.5 425.797Z" fill="#199886"/>
<path d="M1464.5 362.797C1467.54 362.797 1470 360.334 1470 357.297C1470 354.259 1467.54 351.797 1464.5 351.797C1461.46 351.797 1459 354.259 1459 357.297C1459 360.334 1461.46 362.797 1464.5 362.797Z" fill="#199886"/>
<path d="M1407.5 637.797C1412.75 637.797 1417 633.767 1417 628.797C1417 623.826 1412.75 619.797 1407.5 619.797C1402.25 619.797 1398 623.826 1398 628.797C1398 633.767 1402.25 637.797 1407.5 637.797Z" fill="#FF6585"/>
<path d="M1424 163.797C1420.13 163.797 1417 160.887 1417 157.297C1417 153.707 1420.13 150.797 1424 150.797C1427.87 150.797 1431 153.707 1431 157.297C1431 160.887 1427.87 163.797 1424 163.797Z" fill="#FF6585"/>
<path d="M1187.89 180.327C1186.46 184.247 1188.98 188.533 1193.52 189.899C1198.05 191.266 1202.88 189.196 1204.31 185.276C1205.74 181.356 1203.22 177.071 1198.68 175.704C1194.15 174.338 1189.32 176.407 1187.89 180.327Z" fill="#FFCE1F"/>
<path d="M1331.22 234.544C1332.42 238.464 1330.3 242.75 1326.47 244.117C1322.64 245.483 1318.57 243.414 1317.36 239.493C1316.16 235.573 1318.28 231.288 1322.11 229.921C1325.94 228.554 1330.01 230.624 1331.22 234.544Z" fill="#FFCE1F"/>
<path d="M1206.58 46.8944C1205.15 50.8143 1207.67 55.0998 1212.21 56.4664C1216.74 57.833 1221.57 55.7632 1223 51.8433C1224.43 47.9235 1221.91 43.6379 1217.37 42.2713C1212.84 40.9047 1208.01 42.9746 1206.58 46.8944Z" fill="#FFCE1F"/>
<path d="M1358 35.7969C1353.58 35.7969 1350 32.439 1350 28.2969C1350 24.1547 1353.58 20.7969 1358 20.7969C1362.42 20.7969 1366 24.1547 1366 28.2969C1366 32.439 1362.42 35.7969 1358 35.7969Z" fill="#FF6585"/>
</g>
<defs>
<clipPath id="clip0_3_11426">
<rect width="1470" height="1351" fill="white" transform="translate(0 0.796875)"/>
</clipPath>
</defs>
</svg>
